G04 #@! TF.GenerationSoftware,KiCad,Pcbnew,(6.0.2)*
G04 #@! TF.CreationDate,2022-05-25T13:29:00+08:00*
G04 #@! TF.ProjectId,CGMOI,43474d4f-492e-46b6-9963-61645f706362,rev?*
G04 #@! TF.SameCoordinates,Original*
G04 #@! TF.FileFunction,Soldermask,Top*
G04 #@! TF.FilePolarity,Negative*
%FSLAX46Y46*%
G04 Gerber Fmt 4.6, Leading zero omitted, Abs format (unit mm)*
G04 Created by KiCad (PCBNEW (6.0.2)) date 2022-05-25 13:29:00*
%MOMM*%
%LPD*%
G01*
G04 APERTURE LIST*
%ADD10O,1.727200X1.727200*%
%ADD11R,2.800000X3.000000*%
%ADD12C,3.000000*%
%ADD13C,3.200000*%
G04 APERTURE END LIST*
D10*
X162672000Y-34500000D03*
X162682000Y-77100000D03*
X176790000Y-106430000D03*
X184106000Y-49538000D03*
X176830000Y-128340000D03*
D11*
X29170000Y-73240000D03*
D12*
X29170000Y-68240000D03*
D10*
X162906000Y-54618000D03*
D11*
X60010000Y-37040000D03*
D12*
X60010000Y-42040000D03*
D10*
X66260000Y-100790000D03*
X176770000Y-88650000D03*
X66260000Y-105870000D03*
X162906000Y-49538000D03*
X184106000Y-57158000D03*
X176780000Y-150280000D03*
X176780000Y-160440000D03*
X176770000Y-101350000D03*
X176770000Y-98810000D03*
X176770000Y-103890000D03*
D11*
X29200000Y-62860000D03*
D12*
X29200000Y-57860000D03*
D10*
X176830000Y-118180000D03*
X183882000Y-69480000D03*
X66260000Y-103330000D03*
X176780000Y-157900000D03*
X183872000Y-29420000D03*
D11*
X29100000Y-31740000D03*
D12*
X29100000Y-26740000D03*
D10*
X183882000Y-77100000D03*
D11*
X29180000Y-52440000D03*
D12*
X29180000Y-47440000D03*
D10*
X176780000Y-155360000D03*
X176830000Y-135960000D03*
X162906000Y-57158000D03*
X183882000Y-66940000D03*
X176770000Y-93730000D03*
D11*
X59970000Y-47920000D03*
D12*
X59970000Y-52920000D03*
D10*
X183872000Y-31960000D03*
X176790000Y-108970000D03*
X162682000Y-72020000D03*
X183872000Y-37040000D03*
X162682000Y-69480000D03*
X184106000Y-59698000D03*
X176780000Y-145200000D03*
X176770000Y-96270000D03*
X176830000Y-133420000D03*
X184106000Y-46998000D03*
X176780000Y-162980000D03*
D11*
X108190000Y-47950000D03*
D12*
X108190000Y-52950000D03*
D10*
X183882000Y-74560000D03*
X184106000Y-52078000D03*
X183882000Y-79640000D03*
X176830000Y-120720000D03*
X176830000Y-115640000D03*
X162672000Y-31960000D03*
X162906000Y-52078000D03*
D11*
X83670000Y-37180000D03*
D12*
X83670000Y-42180000D03*
D10*
X183872000Y-39580000D03*
X184106000Y-54618000D03*
X183882000Y-72020000D03*
D11*
X60100000Y-59000000D03*
D12*
X60100000Y-64000000D03*
D10*
X66260000Y-88050000D03*
D11*
X83700000Y-58900000D03*
D12*
X83700000Y-63900000D03*
D10*
X176830000Y-125800000D03*
D11*
X102520000Y-79770000D03*
D12*
X102520000Y-74770000D03*
D10*
X183872000Y-34500000D03*
X66260000Y-82970000D03*
X176780000Y-147740000D03*
D11*
X108150000Y-37180000D03*
D12*
X108150000Y-42180000D03*
D10*
X183872000Y-26880000D03*
D11*
X83680000Y-47900000D03*
D12*
X83680000Y-52900000D03*
D11*
X108200000Y-59000000D03*
D12*
X108200000Y-64000000D03*
D10*
X162672000Y-29420000D03*
X176780000Y-152820000D03*
D11*
X102530000Y-90400000D03*
D12*
X102530000Y-85400000D03*
D10*
X176830000Y-130880000D03*
X176830000Y-123260000D03*
X176780000Y-142660000D03*
X162672000Y-37040000D03*
D11*
X102500000Y-101100000D03*
D12*
X102500000Y-96100000D03*
D10*
X162682000Y-74560000D03*
X176770000Y-91190000D03*
X66260000Y-85510000D03*
D11*
X29160000Y-42190000D03*
D12*
X29160000Y-37190000D03*
D13*
X35370000Y-118247500D03*
X36640000Y-166507500D03*
D10*
X49340000Y-118247500D03*
D13*
X87440000Y-123327500D03*
X111570000Y-166507500D03*
X117920000Y-118247500D03*
X87440000Y-151267500D03*
D10*
X56960000Y-118247500D03*
X59500000Y-118247500D03*
X87567000Y-146187500D03*
X115380000Y-166507500D03*
X117920000Y-166507500D03*
X72200000Y-118247500D03*
X74740000Y-118247500D03*
X77280000Y-118247500D03*
X79820000Y-118247500D03*
X82360000Y-118247500D03*
X84900000Y-118247500D03*
X87440000Y-118247500D03*
X89980000Y-118247500D03*
X95060000Y-118247500D03*
X97600000Y-118247500D03*
X100140000Y-118247500D03*
X102680000Y-118247500D03*
X105220000Y-118247500D03*
X107760000Y-118247500D03*
X110300000Y-118247500D03*
X112840000Y-118247500D03*
X45276000Y-166507500D03*
X84900000Y-166507500D03*
X82360000Y-166507500D03*
X79820000Y-166507500D03*
X77280000Y-166507500D03*
X74740000Y-166507500D03*
X72200000Y-166507500D03*
X69660000Y-166507500D03*
X67120000Y-166507500D03*
X63056000Y-166507500D03*
X60516000Y-166507500D03*
X57976000Y-166507500D03*
X55436000Y-166507500D03*
X52896000Y-166507500D03*
X50356000Y-166507500D03*
X89980000Y-166507500D03*
X92520000Y-166507500D03*
X95060000Y-166507500D03*
X97600000Y-166507500D03*
X100140000Y-166507500D03*
X102680000Y-166507500D03*
X105220000Y-166507500D03*
X107760000Y-166507500D03*
X115380000Y-163967500D03*
X117920000Y-163967500D03*
X115380000Y-161427500D03*
X117920000Y-161427500D03*
X115380000Y-158887500D03*
X117920000Y-158887500D03*
X115380000Y-156347500D03*
X117920000Y-156347500D03*
X115380000Y-153807500D03*
X117920000Y-153807500D03*
X115380000Y-151267500D03*
X117920000Y-151267500D03*
X115380000Y-148727500D03*
X117920000Y-148727500D03*
X115380000Y-146187500D03*
X117920000Y-146187500D03*
X115380000Y-143647500D03*
X117920000Y-143647500D03*
X115380000Y-141107500D03*
X117920000Y-141107500D03*
X115380000Y-138567500D03*
X117920000Y-138567500D03*
X115380000Y-136027500D03*
X117920000Y-136027500D03*
X115380000Y-133487500D03*
X117920000Y-133487500D03*
X115380000Y-130947500D03*
X117920000Y-130947500D03*
X115380000Y-128407500D03*
X117920000Y-128407500D03*
X115380000Y-125867500D03*
X117920000Y-125867500D03*
X47816000Y-166507500D03*
X62040000Y-118247500D03*
X64580000Y-118247500D03*
X87567000Y-141107500D03*
X115380000Y-123327500D03*
X117920000Y-123327500D03*
X51880000Y-118247500D03*
X85027000Y-146187500D03*
X87567000Y-143647500D03*
X54420000Y-118247500D03*
X85027000Y-141107500D03*
X85027000Y-143647500D03*
X40196000Y-166507500D03*
X42736000Y-166507500D03*
X67120000Y-118247500D03*
M02*
