M48
; DRILL file {KiCad (6.0.2)} date Wed May 25 13:29:35 2022
; FORMAT={-:-/ absolute / metric / decimal}
; #@! TF.CreationDate,2022-05-25T13:29:35+08:00
; #@! TF.GenerationSoftware,Kicad,Pcbnew,(6.0.2)
; #@! TF.FileFunction,Plated,1,2,PTH
FMAT,2
METRIC
; #@! TA.AperFunction,Plated,PTH,ViaDrill
T1C0.400
; #@! TA.AperFunction,Plated,PTH,ComponentDrill
T2C1.016
; #@! TA.AperFunction,Plated,PTH,ViaDrill
T3C1.150
; #@! TA.AperFunction,Plated,PTH,ComponentDrill
T4C1.500
%
G90
G05
T1
X22.7Y-32.1
X22.7Y-39.9
X28.0Y-79.0
X28.0Y-81.0
X28.0Y-83.0
X28.0Y-85.0
X28.0Y-87.0
X28.0Y-89.0
X28.0Y-91.0
X28.0Y-97.0
X28.0Y-99.0
X28.0Y-101.0
X28.0Y-103.0
X28.0Y-105.0
X28.0Y-107.0
X28.0Y-109.0
X30.0Y-79.0
X30.0Y-81.0
X30.0Y-83.0
X30.0Y-85.0
X30.0Y-87.0
X30.0Y-89.0
X30.0Y-91.0
X30.0Y-97.0
X30.0Y-99.0
X30.0Y-101.0
X30.0Y-103.0
X30.0Y-105.0
X30.0Y-107.0
X30.0Y-109.0
X32.0Y-79.0
X32.0Y-81.0
X32.0Y-83.0
X32.0Y-85.0
X32.0Y-87.0
X32.0Y-89.0
X32.0Y-91.0
X32.0Y-97.0
X32.0Y-99.0
X32.0Y-101.0
X32.0Y-103.0
X32.0Y-105.0
X32.0Y-107.0
X32.0Y-109.0
X34.0Y-79.0
X34.0Y-81.0
X34.0Y-83.0
X34.0Y-85.0
X34.0Y-87.0
X34.0Y-89.0
X34.0Y-91.0
X34.0Y-97.0
X34.0Y-99.0
X34.0Y-101.0
X34.0Y-103.0
X34.0Y-105.0
X34.0Y-107.0
X34.0Y-109.0
X34.73Y-56.78
X36.0Y-79.0
X36.0Y-81.0
X36.0Y-83.0
X36.0Y-85.0
X36.0Y-87.0
X36.0Y-89.0
X36.0Y-91.0
X36.0Y-97.0
X36.0Y-99.0
X36.0Y-101.0
X36.0Y-103.0
X36.0Y-105.0
X36.0Y-107.0
X36.0Y-109.0
X39.0Y-126.0
X39.0Y-128.0
X40.0Y-23.0
X40.0Y-25.0
X40.0Y-27.0
X40.0Y-29.0
X40.0Y-31.0
X40.0Y-33.0
X40.0Y-35.0
X40.0Y-37.0
X40.0Y-39.0
X40.0Y-41.0
X40.0Y-43.0
X40.0Y-45.0
X41.0Y-126.0
X41.0Y-128.0
X41.0Y-130.0
X41.99Y-64.04
X42.0Y-23.0
X42.0Y-25.0
X42.0Y-27.0
X42.0Y-29.0
X42.0Y-31.0
X42.0Y-33.0
X42.0Y-35.0
X42.0Y-37.0
X42.0Y-39.0
X42.0Y-41.0
X42.0Y-43.0
X42.0Y-45.0
X42.0Y-47.0
X43.0Y-126.0
X43.0Y-128.0
X43.0Y-130.0
X43.0Y-132.0
X44.0Y-23.0
X44.0Y-25.0
X44.0Y-27.0
X44.0Y-29.0
X44.0Y-31.0
X44.0Y-33.0
X44.0Y-35.0
X44.0Y-37.0
X44.0Y-39.0
X44.0Y-41.0
X44.0Y-43.0
X44.0Y-45.0
X44.0Y-47.0
X44.0Y-49.0
X45.0Y-126.0
X45.0Y-128.0
X45.0Y-130.0
X45.0Y-132.0
X45.0Y-134.0
X45.34Y-121.43
X46.0Y-23.0
X46.0Y-25.0
X46.0Y-27.0
X46.2Y-101.2
X47.0Y-126.0
X47.0Y-128.0
X47.0Y-130.0
X47.0Y-132.0
X47.0Y-134.0
X47.0Y-136.0
X48.0Y-23.0
X48.0Y-25.0
X49.0Y-126.0
X49.0Y-128.0
X49.0Y-130.0
X49.0Y-132.0
X49.0Y-134.0
X49.0Y-136.0
X49.0Y-138.0
X50.0Y-23.0
X50.2Y-102.2
X51.0Y-128.0
X51.0Y-130.0
X51.0Y-132.0
X51.0Y-134.0
X51.0Y-136.0
X51.0Y-138.0
X51.0Y-140.0
X51.0Y-142.0
X51.0Y-144.0
X51.0Y-146.0
X52.0Y-84.0
X52.0Y-87.0
X53.0Y-132.0
X53.0Y-134.0
X53.0Y-136.0
X53.0Y-138.0
X53.0Y-140.0
X53.0Y-142.0
X53.0Y-144.0
X53.0Y-146.0
X54.0Y-84.0
X54.0Y-87.0
X55.0Y-134.0
X55.0Y-136.0
X55.0Y-138.0
X55.0Y-140.0
X55.0Y-142.0
X55.0Y-144.0
X55.0Y-146.0
X56.0Y-84.0
X56.0Y-87.0
X56.0Y-102.0
X56.0Y-104.0
X57.0Y-136.0
X57.0Y-138.0
X57.0Y-140.0
X57.0Y-142.0
X57.0Y-144.0
X57.0Y-146.0
X57.47Y-121.43
X58.0Y-84.0
X58.0Y-87.0
X58.0Y-102.0
X58.0Y-104.0
X59.0Y-138.0
X59.0Y-140.0
X59.0Y-142.0
X59.0Y-144.0
X59.0Y-146.0
X59.5Y-84.4
X59.5Y-86.7
X59.5Y-102.1
X59.5Y-104.4
X60.0Y-126.0
X61.0Y-140.0
X61.0Y-142.0
X61.0Y-144.0
X61.0Y-146.0
X61.1Y-84.825
X61.1Y-86.8
X61.1Y-102.185
X61.1Y-104.3
X62.0Y-126.0
X62.0Y-128.0
X63.0Y-142.0
X63.0Y-144.0
X63.0Y-146.0
X64.0Y-126.0
X64.0Y-128.0
X64.0Y-130.0
X65.0Y-144.0
X65.0Y-146.0
X66.0Y-70.0
X66.0Y-72.0
X66.0Y-74.0
X66.0Y-126.0
X66.0Y-128.0
X66.0Y-130.0
X66.0Y-132.0
X66.7Y-29.6
X67.0Y-146.0
X68.0Y-70.0
X68.0Y-72.0
X68.0Y-74.0
X68.0Y-126.0
X68.0Y-128.0
X68.0Y-130.0
X68.0Y-132.0
X69.876Y-102.2
X70.0Y-70.0
X70.0Y-72.0
X70.0Y-74.0
X70.0Y-126.0
X70.0Y-128.0
X70.0Y-130.0
X70.0Y-132.0
X72.0Y-70.0
X72.0Y-72.0
X72.0Y-74.0
X72.0Y-126.0
X72.0Y-128.0
X72.0Y-130.0
X72.0Y-132.0
X72.6Y-102.4
X73.0Y-106.0
X73.0Y-108.0
X73.0Y-110.0
X73.0Y-112.0
X73.0Y-114.0
X73.3Y-122.8
X74.0Y-70.0
X74.0Y-72.0
X74.0Y-74.0
X74.0Y-78.0
X74.0Y-80.0
X74.0Y-82.0
X74.0Y-85.0
X74.0Y-87.0
X74.0Y-89.0
X74.0Y-126.0
X74.0Y-128.0
X74.0Y-130.0
X74.0Y-132.0
X75.0Y-106.0
X75.0Y-108.0
X75.0Y-110.0
X75.0Y-112.0
X75.0Y-114.0
X76.0Y-70.0
X76.0Y-72.0
X76.0Y-74.0
X76.0Y-78.0
X76.0Y-80.0
X76.0Y-82.0
X76.0Y-85.0
X76.0Y-87.0
X76.0Y-89.0
X76.0Y-92.0
X76.0Y-128.0
X76.0Y-130.0
X76.0Y-132.0
X76.1Y-122.8
X77.0Y-106.0
X77.0Y-108.0
X77.0Y-110.0
X77.0Y-112.0
X77.0Y-114.0
X78.0Y-70.0
X78.0Y-72.0
X78.0Y-74.0
X78.0Y-78.0
X78.0Y-80.0
X78.0Y-82.0
X78.0Y-85.0
X78.0Y-87.0
X78.0Y-89.0
X78.0Y-92.0
X78.0Y-94.0
X78.0Y-130.0
X78.0Y-132.0
X79.0Y-108.0
X79.0Y-110.0
X79.0Y-112.0
X79.0Y-114.0
X80.0Y-70.0
X80.0Y-72.0
X80.0Y-74.0
X80.0Y-78.0
X80.0Y-80.0
X80.0Y-82.0
X80.0Y-85.0
X80.0Y-87.0
X80.0Y-89.0
X80.0Y-92.0
X80.0Y-94.0
X80.0Y-96.0
X80.0Y-132.0
X81.0Y-110.0
X81.0Y-112.0
X81.0Y-114.0
X81.0Y-126.0
X82.0Y-70.0
X82.0Y-72.0
X82.0Y-74.0
X82.0Y-78.0
X82.0Y-80.0
X82.0Y-82.0
X82.0Y-85.0
X82.0Y-87.0
X82.0Y-89.0
X82.0Y-92.0
X82.0Y-94.0
X82.0Y-96.0
X82.0Y-98.0
X83.0Y-112.0
X83.0Y-114.0
X83.0Y-126.0
X83.0Y-128.0
X84.0Y-70.0
X84.0Y-72.0
X84.0Y-74.0
X84.0Y-78.0
X84.0Y-80.0
X84.0Y-82.0
X84.0Y-85.0
X84.0Y-87.0
X84.0Y-89.0
X84.0Y-92.0
X84.0Y-94.0
X84.0Y-96.0
X84.0Y-98.0
X84.0Y-100.0
X84.0Y-157.0
X84.0Y-159.0
X84.0Y-161.0
X85.0Y-114.0
X85.0Y-126.0
X85.0Y-128.0
X85.0Y-130.0
X86.0Y-78.0
X86.0Y-80.0
X86.0Y-82.0
X86.0Y-85.0
X86.0Y-87.0
X86.0Y-89.0
X86.0Y-92.0
X86.0Y-94.0
X86.0Y-96.0
X86.0Y-98.0
X86.0Y-100.0
X86.0Y-157.0
X86.0Y-159.0
X86.0Y-161.0
X87.0Y-31.0
X87.0Y-33.0
X87.0Y-126.0
X87.0Y-128.0
X87.0Y-130.0
X87.0Y-132.0
X88.0Y-78.0
X88.0Y-80.0
X88.0Y-82.0
X88.0Y-85.0
X88.0Y-87.0
X88.0Y-89.0
X88.0Y-92.0
X88.0Y-94.0
X88.0Y-96.0
X88.0Y-98.0
X88.0Y-100.0
X88.0Y-157.0
X88.0Y-159.0
X88.0Y-161.0
X89.0Y-31.0
X89.0Y-33.0
X89.0Y-126.0
X89.0Y-128.0
X89.0Y-130.0
X89.0Y-132.0
X90.0Y-78.0
X90.0Y-80.0
X90.0Y-82.0
X90.0Y-85.0
X90.0Y-87.0
X90.0Y-89.0
X90.0Y-92.0
X90.0Y-94.0
X90.0Y-96.0
X90.0Y-98.0
X90.0Y-100.0
X90.0Y-157.0
X90.0Y-159.0
X90.0Y-161.0
X90.5Y-29.4
X91.0Y-31.0
X91.0Y-33.0
X91.0Y-126.0
X91.0Y-128.0
X91.0Y-130.0
X91.0Y-132.0
X92.0Y-157.0
X92.0Y-159.0
X92.0Y-161.0
X92.1Y-113.2
X93.0Y-31.0
X93.0Y-33.0
X93.0Y-126.0
X93.0Y-128.0
X93.0Y-130.0
X93.0Y-132.0
X94.0Y-157.0
X94.0Y-159.0
X94.0Y-161.0
X94.6Y-123.7
X95.0Y-31.0
X95.0Y-33.0
X96.0Y-120.6
X96.0Y-157.0
X96.0Y-159.0
X96.0Y-161.0
X96.56Y-123.07
X97.0Y-31.0
X97.0Y-33.0
X98.0Y-157.0
X98.0Y-159.0
X98.0Y-161.0
X99.0Y-31.0
X99.0Y-33.0
X100.0Y-124.0
X100.0Y-126.0
X100.0Y-128.0
X100.0Y-130.0
X100.0Y-132.0
X100.0Y-157.0
X100.0Y-159.0
X100.0Y-161.0
X101.0Y-31.0
X101.0Y-33.0
X102.0Y-124.0
X102.0Y-126.0
X102.0Y-128.0
X102.0Y-130.0
X102.0Y-132.0
X102.0Y-159.0
X102.0Y-161.0
X103.0Y-31.0
X103.0Y-33.0
X104.0Y-124.0
X104.0Y-126.0
X104.0Y-128.0
X104.0Y-130.0
X104.0Y-132.0
X104.0Y-161.0
X105.0Y-31.0
X105.0Y-33.0
X106.0Y-124.0
X106.0Y-126.0
X106.0Y-128.0
X106.0Y-130.0
X106.0Y-132.0
X107.0Y-31.0
X108.0Y-124.0
X108.0Y-126.0
X108.0Y-128.0
X108.0Y-130.0
X108.0Y-132.0
X109.0Y-31.0
X110.0Y-124.0
X110.0Y-126.0
X110.0Y-128.0
X110.0Y-130.0
X110.0Y-132.0
X111.0Y-31.0
X111.0Y-33.0
X113.0Y-31.0
X113.0Y-33.0
X113.6Y-120.7
X113.6Y-125.62
X114.5Y-66.6
X114.5Y-102.6
X115.0Y-31.0
X115.0Y-33.0
X117.0Y-31.0
X117.0Y-33.0
X118.7Y-48.0
X119.0Y-31.0
X119.0Y-33.0
X119.7Y-120.6
X119.9Y-48.7
X119.9Y-66.8
X119.9Y-106.6
X120.3Y-115.52
X121.0Y-31.0
X121.0Y-33.0
X121.0Y-50.0
X121.0Y-52.0
X121.0Y-54.0
X121.0Y-56.0
X121.9Y-66.8
X121.9Y-108.7
X121.9Y-118.4
X121.9Y-120.7
X123.0Y-31.0
X123.0Y-33.0
X123.0Y-50.0
X123.0Y-52.0
X123.0Y-54.0
X123.0Y-56.0
X123.1Y-66.8
X123.1Y-110.2
X123.1Y-118.3
X123.1Y-120.9
X124.9Y-112.1
X124.9Y-118.2
X124.9Y-120.7
X124.91Y-78.05
X125.0Y-31.0
X125.0Y-33.0
X125.0Y-48.0
X125.0Y-50.0
X125.0Y-52.0
X125.0Y-54.0
X125.0Y-56.0
X125.0Y-140.0
X126.0Y-63.0
X126.0Y-65.0
X126.7Y-113.4
X126.7Y-118.2
X126.7Y-120.8
X126.74Y-78.48
X127.0Y-31.0
X127.0Y-33.0
X127.0Y-48.0
X127.0Y-50.0
X127.0Y-52.0
X127.0Y-54.0
X127.0Y-138.0
X127.0Y-140.0
X128.0Y-61.0
X128.0Y-63.0
X128.0Y-65.0
X128.2Y-37.5
X128.3Y-34.6
X129.0Y-31.0
X129.0Y-33.0
X129.0Y-48.0
X129.0Y-50.0
X129.0Y-124.0
X129.0Y-126.0
X129.0Y-128.0
X129.0Y-130.0
X129.0Y-132.0
X129.0Y-134.0
X129.0Y-136.0
X129.0Y-138.0
X129.0Y-140.0
X130.0Y-59.0
X130.0Y-61.0
X130.0Y-63.0
X130.0Y-65.0
X130.0Y-86.0
X130.0Y-88.0
X130.0Y-90.0
X130.8Y-38.2
X131.0Y-31.0
X131.0Y-33.0
X131.0Y-48.0
X131.0Y-50.0
X131.0Y-124.0
X131.0Y-126.0
X131.0Y-128.0
X131.0Y-130.0
X131.0Y-132.0
X131.0Y-134.0
X131.0Y-136.0
X131.0Y-138.0
X131.0Y-140.0
X131.5Y-119.4
X132.0Y-57.0
X132.0Y-59.0
X132.0Y-61.0
X132.0Y-63.0
X132.0Y-65.0
X132.0Y-86.0
X132.0Y-88.0
X132.0Y-90.0
X132.0Y-92.0
X133.0Y-48.0
X133.0Y-50.0
X133.0Y-124.0
X133.0Y-126.0
X133.0Y-128.0
X133.0Y-130.0
X133.0Y-132.0
X133.0Y-134.0
X133.0Y-136.0
X133.0Y-138.0
X133.0Y-140.0
X134.0Y-57.0
X134.0Y-59.0
X134.0Y-61.0
X134.0Y-63.0
X134.0Y-65.0
X134.0Y-86.0
X134.0Y-88.0
X134.0Y-90.0
X134.0Y-92.0
X134.0Y-94.0
X134.9Y-37.0
X135.0Y-48.0
X135.0Y-50.0
X135.0Y-124.0
X135.0Y-126.0
X135.0Y-128.0
X135.0Y-130.0
X135.0Y-132.0
X135.0Y-134.0
X135.0Y-136.0
X135.0Y-138.0
X135.0Y-140.0
X136.0Y-57.0
X136.0Y-59.0
X136.0Y-61.0
X136.0Y-63.0
X136.0Y-65.0
X136.0Y-86.0
X136.0Y-88.0
X136.0Y-90.0
X136.0Y-92.0
X136.0Y-94.0
X136.0Y-96.0
X136.2Y-144.9
X137.0Y-48.0
X137.0Y-50.0
X137.0Y-126.0
X137.0Y-128.0
X137.0Y-130.0
X137.0Y-132.0
X137.0Y-134.0
X137.0Y-136.0
X137.0Y-138.0
X137.0Y-140.0
X138.0Y-57.0
X138.0Y-59.0
X138.0Y-61.0
X138.0Y-63.0
X138.0Y-65.0
X138.0Y-86.0
X138.0Y-88.0
X138.0Y-90.0
X138.0Y-92.0
X138.0Y-94.0
X138.0Y-96.0
X138.0Y-151.0
X139.0Y-48.0
X139.0Y-50.0
X139.0Y-128.0
X139.0Y-130.0
X139.0Y-132.0
X139.0Y-134.0
X139.0Y-136.0
X139.0Y-138.0
X139.0Y-140.0
X140.0Y-57.0
X140.0Y-59.0
X140.0Y-61.0
X140.0Y-63.0
X140.0Y-65.0
X140.0Y-86.0
X140.0Y-88.0
X140.0Y-90.0
X140.0Y-92.0
X140.0Y-94.0
X140.0Y-96.0
X140.0Y-149.0
X140.0Y-151.0
X140.7Y-144.2
X141.0Y-48.0
X141.0Y-50.0
X141.0Y-130.0
X141.0Y-132.0
X141.0Y-134.0
X141.0Y-136.0
X141.0Y-138.0
X142.0Y-57.0
X142.0Y-59.0
X142.0Y-61.0
X142.0Y-63.0
X142.0Y-65.0
X142.0Y-86.0
X142.0Y-88.0
X142.0Y-90.0
X142.0Y-92.0
X142.0Y-94.0
X142.0Y-96.0
X142.0Y-115.9
X142.0Y-147.0
X142.0Y-149.0
X142.0Y-151.0
X143.0Y-48.0
X143.0Y-50.0
X143.0Y-132.0
X143.0Y-134.0
X143.0Y-136.0
X144.0Y-57.0
X144.0Y-59.0
X144.0Y-61.0
X144.0Y-63.0
X144.0Y-65.0
X144.0Y-117.0
X144.0Y-119.0
X144.0Y-145.0
X144.0Y-147.0
X144.0Y-149.0
X144.0Y-151.0
X145.0Y-134.0
X146.0Y-117.0
X146.0Y-119.0
X146.0Y-121.0
X146.0Y-143.0
X146.0Y-145.0
X146.0Y-147.0
X146.0Y-149.0
X146.0Y-151.0
X146.8Y-136.4
X148.0Y-117.0
X148.0Y-119.0
X148.0Y-121.0
X148.0Y-123.0
X148.0Y-143.0
X148.0Y-145.0
X148.0Y-147.0
X148.0Y-149.0
X148.0Y-151.0
X150.0Y-117.0
X150.0Y-119.0
X150.0Y-121.0
X150.0Y-123.0
X150.0Y-125.0
X150.0Y-143.0
X150.0Y-145.0
X150.0Y-147.0
X150.0Y-149.0
X150.0Y-151.0
X151.4Y-139.2
X151.7Y-129.7
X152.0Y-117.0
X152.0Y-119.0
X152.0Y-121.0
X152.0Y-123.0
X152.0Y-143.0
X152.0Y-145.0
X152.0Y-147.0
X152.0Y-149.0
X152.0Y-151.0
X154.0Y-117.0
X154.0Y-119.0
X154.0Y-121.0
X154.0Y-145.0
X154.0Y-147.0
X154.0Y-149.0
X154.0Y-151.0
X156.0Y-117.0
X156.0Y-119.0
X156.0Y-147.0
X156.0Y-149.0
X156.0Y-151.0
X156.1Y-114.8
X158.0Y-149.0
X158.0Y-151.0
X160.0Y-151.0
X160.1Y-119.2
X160.3Y-135.3
X166.2Y-36.316
X166.2Y-47.4
X166.2Y-68.9
X166.212Y-57.388
X166.3Y-108.3
X167.0Y-75.0
X167.0Y-77.0
X167.5Y-38.276
X167.5Y-47.6
X167.5Y-59.7
X167.5Y-70.0
X167.7Y-106.4
X168.0Y-30.0
X168.0Y-32.0
X168.0Y-34.0
X168.0Y-36.0
X169.0Y-50.0
X169.0Y-52.0
X169.0Y-54.0
X169.0Y-56.0
X169.0Y-58.0
X169.0Y-73.0
X169.0Y-75.0
X169.0Y-77.0
X170.0Y-32.0
X170.0Y-34.0
X170.0Y-36.0
X171.0Y-52.0
X171.0Y-54.0
X171.0Y-56.0
X171.0Y-58.0
X171.0Y-73.0
X171.0Y-75.0
X171.0Y-77.0
X176.4Y-31.4
X176.8Y-35.8
X176.8Y-74.7
X176.9Y-48.7
X177.0Y-55.6
X177.5Y-79.3
X178.4Y-71.0
X178.8Y-65.0
X178.8Y-69.1
X178.99Y-74.48
X180.6Y-49.9
X181.1Y-35.6
X181.3Y-55.5
X181.4Y-31.4
X186.8Y-158.1
X186.8Y-161.2
X187.9Y-139.4
X187.9Y-143.4
T2
X40.196Y-166.507
X42.736Y-166.507
X45.276Y-166.507
X47.816Y-166.507
X49.34Y-118.247
X50.356Y-166.507
X51.88Y-118.247
X52.896Y-166.507
X54.42Y-118.247
X55.436Y-166.507
X56.96Y-118.247
X57.976Y-166.507
X59.5Y-118.247
X60.516Y-166.507
X62.04Y-118.247
X63.056Y-166.507
X64.58Y-118.247
X66.26Y-82.97
X66.26Y-85.51
X66.26Y-88.05
X66.26Y-100.79
X66.26Y-103.33
X66.26Y-105.87
X67.12Y-118.247
X67.12Y-166.507
X69.66Y-166.507
X72.2Y-118.247
X72.2Y-166.507
X74.74Y-118.247
X74.74Y-166.507
X77.28Y-118.247
X77.28Y-166.507
X79.82Y-118.247
X79.82Y-166.507
X82.36Y-118.247
X82.36Y-166.507
X84.9Y-118.247
X84.9Y-166.507
X85.027Y-141.107
X85.027Y-143.647
X85.027Y-146.188
X87.44Y-118.247
X87.567Y-141.107
X87.567Y-143.647
X87.567Y-146.188
X89.98Y-118.247
X89.98Y-166.507
X92.52Y-166.507
X95.06Y-118.247
X95.06Y-166.507
X97.6Y-118.247
X97.6Y-166.507
X100.14Y-118.247
X100.14Y-166.507
X102.68Y-118.247
X102.68Y-166.507
X105.22Y-118.247
X105.22Y-166.507
X107.76Y-118.247
X107.76Y-166.507
X110.3Y-118.247
X112.84Y-118.247
X115.38Y-123.328
X115.38Y-125.867
X115.38Y-128.407
X115.38Y-130.947
X115.38Y-133.487
X115.38Y-136.028
X115.38Y-138.567
X115.38Y-141.107
X115.38Y-143.647
X115.38Y-146.188
X115.38Y-148.727
X115.38Y-151.267
X115.38Y-153.808
X115.38Y-156.347
X115.38Y-158.887
X115.38Y-161.427
X115.38Y-163.968
X115.38Y-166.507
X117.92Y-123.328
X117.92Y-125.867
X117.92Y-128.407
X117.92Y-130.947
X117.92Y-133.487
X117.92Y-136.028
X117.92Y-138.567
X117.92Y-141.107
X117.92Y-143.647
X117.92Y-146.188
X117.92Y-148.727
X117.92Y-151.267
X117.92Y-153.808
X117.92Y-156.347
X117.92Y-158.887
X117.92Y-161.427
X117.92Y-163.968
X117.92Y-166.507
X162.672Y-29.42
X162.672Y-31.96
X162.672Y-34.5
X162.672Y-37.04
X162.682Y-69.48
X162.682Y-72.02
X162.682Y-74.56
X162.682Y-77.1
X162.906Y-49.538
X162.906Y-52.078
X162.906Y-54.618
X162.906Y-57.158
X176.77Y-88.65
X176.77Y-91.19
X176.77Y-93.73
X176.77Y-96.27
X176.77Y-98.81
X176.77Y-101.35
X176.77Y-103.89
X176.78Y-142.66
X176.78Y-145.2
X176.78Y-147.74
X176.78Y-150.28
X176.78Y-152.82
X176.78Y-155.36
X176.78Y-157.9
X176.78Y-160.44
X176.78Y-162.98
X176.79Y-106.43
X176.79Y-108.97
X176.83Y-115.64
X176.83Y-118.18
X176.83Y-120.72
X176.83Y-123.26
X176.83Y-125.8
X176.83Y-128.34
X176.83Y-130.88
X176.83Y-133.42
X176.83Y-135.96
X183.872Y-26.88
X183.872Y-29.42
X183.872Y-31.96
X183.872Y-34.5
X183.872Y-37.04
X183.872Y-39.58
X183.882Y-66.94
X183.882Y-69.48
X183.882Y-72.02
X183.882Y-74.56
X183.882Y-77.1
X183.882Y-79.64
X184.106Y-46.998
X184.106Y-49.538
X184.106Y-52.078
X184.106Y-54.618
X184.106Y-57.158
X184.106Y-59.698
T3
X148.5Y-96.4
X162.7Y-86.9
X166.4Y-139.6
X167.6Y-91.8
X168.1Y-146.0
X168.4Y-112.4
X169.8Y-119.3
X183.8Y-149.7
X184.4Y-121.4
T4
X29.1Y-26.74
X29.1Y-31.74
X29.16Y-37.19
X29.16Y-42.19
X29.17Y-68.24
X29.17Y-73.24
X29.18Y-47.44
X29.18Y-52.44
X29.2Y-57.86
X29.2Y-62.86
X59.97Y-47.92
X59.97Y-52.92
X60.01Y-37.04
X60.01Y-42.04
X60.1Y-59.0
X60.1Y-64.0
X83.67Y-37.18
X83.67Y-42.18
X83.68Y-47.9
X83.68Y-52.9
X83.7Y-58.9
X83.7Y-63.9
X102.5Y-96.1
X102.5Y-101.1
X102.52Y-74.77
X102.52Y-79.77
X102.53Y-85.4
X102.53Y-90.4
X108.15Y-37.18
X108.15Y-42.18
X108.19Y-47.95
X108.19Y-52.95
X108.2Y-59.0
X108.2Y-64.0
T0
M30
