%FSLAX45Y45*%
G04 Gerber Fmt 4.5, Leading zero omitted, Abs format (unit mm)*
G04 Created by KiCad (PCBNEW (6.0.2)) date 2022-05-25 13:29:45*
%MOMM*%
%LPD*%
G01*
G04 APERTURE LIST*
%TA.AperFunction,Profile*%
%ADD10C,0.100000*%
%TD*%
%ADD11C,0.200000*%
%ADD12C,0.040000*%
%ADD13C,0.101600*%
%ADD14C,0.115000*%
%ADD15C,0.150000*%
G04 APERTURE END LIST*
D10*
X2000000Y-2000000D02*
X19000000Y-2000000D01*
X19000000Y-2000000D02*
X19000000Y-17500000D01*
X19000000Y-17500000D02*
X2000000Y-17500000D01*
X2000000Y-17500000D02*
X2000000Y-2000000D01*
D11*
D12*
X2250000Y-3190000D02*
X2290000Y-3230000D01*
X2290000Y-3190000D02*
X2250000Y-3230000D01*
X2250000Y-3970000D02*
X2290000Y-4010000D01*
X2290000Y-3970000D02*
X2250000Y-4010000D01*
X2780000Y-7880000D02*
X2820000Y-7920000D01*
X2820000Y-7880000D02*
X2780000Y-7920000D01*
X2780000Y-8080000D02*
X2820000Y-8120000D01*
X2820000Y-8080000D02*
X2780000Y-8120000D01*
X2780000Y-8280000D02*
X2820000Y-8320000D01*
X2820000Y-8280000D02*
X2780000Y-8320000D01*
X2780000Y-8480000D02*
X2820000Y-8520000D01*
X2820000Y-8480000D02*
X2780000Y-8520000D01*
X2780000Y-8680000D02*
X2820000Y-8720000D01*
X2820000Y-8680000D02*
X2780000Y-8720000D01*
X2780000Y-8880000D02*
X2820000Y-8920000D01*
X2820000Y-8880000D02*
X2780000Y-8920000D01*
X2780000Y-9080000D02*
X2820000Y-9120000D01*
X2820000Y-9080000D02*
X2780000Y-9120000D01*
X2780000Y-9680000D02*
X2820000Y-9720000D01*
X2820000Y-9680000D02*
X2780000Y-9720000D01*
X2780000Y-9880000D02*
X2820000Y-9920000D01*
X2820000Y-9880000D02*
X2780000Y-9920000D01*
X2780000Y-10080000D02*
X2820000Y-10120000D01*
X2820000Y-10080000D02*
X2780000Y-10120000D01*
X2780000Y-10280000D02*
X2820000Y-10320000D01*
X2820000Y-10280000D02*
X2780000Y-10320000D01*
X2780000Y-10480000D02*
X2820000Y-10520000D01*
X2820000Y-10480000D02*
X2780000Y-10520000D01*
X2780000Y-10680000D02*
X2820000Y-10720000D01*
X2820000Y-10680000D02*
X2780000Y-10720000D01*
X2780000Y-10880000D02*
X2820000Y-10920000D01*
X2820000Y-10880000D02*
X2780000Y-10920000D01*
X2980000Y-7880000D02*
X3020000Y-7920000D01*
X3020000Y-7880000D02*
X2980000Y-7920000D01*
X2980000Y-8080000D02*
X3020000Y-8120000D01*
X3020000Y-8080000D02*
X2980000Y-8120000D01*
X2980000Y-8280000D02*
X3020000Y-8320000D01*
X3020000Y-8280000D02*
X2980000Y-8320000D01*
X2980000Y-8480000D02*
X3020000Y-8520000D01*
X3020000Y-8480000D02*
X2980000Y-8520000D01*
X2980000Y-8680000D02*
X3020000Y-8720000D01*
X3020000Y-8680000D02*
X2980000Y-8720000D01*
X2980000Y-8880000D02*
X3020000Y-8920000D01*
X3020000Y-8880000D02*
X2980000Y-8920000D01*
X2980000Y-9080000D02*
X3020000Y-9120000D01*
X3020000Y-9080000D02*
X2980000Y-9120000D01*
X2980000Y-9680000D02*
X3020000Y-9720000D01*
X3020000Y-9680000D02*
X2980000Y-9720000D01*
X2980000Y-9880000D02*
X3020000Y-9920000D01*
X3020000Y-9880000D02*
X2980000Y-9920000D01*
X2980000Y-10080000D02*
X3020000Y-10120000D01*
X3020000Y-10080000D02*
X2980000Y-10120000D01*
X2980000Y-10280000D02*
X3020000Y-10320000D01*
X3020000Y-10280000D02*
X2980000Y-10320000D01*
X2980000Y-10480000D02*
X3020000Y-10520000D01*
X3020000Y-10480000D02*
X2980000Y-10520000D01*
X2980000Y-10680000D02*
X3020000Y-10720000D01*
X3020000Y-10680000D02*
X2980000Y-10720000D01*
X2980000Y-10880000D02*
X3020000Y-10920000D01*
X3020000Y-10880000D02*
X2980000Y-10920000D01*
X3180000Y-7880000D02*
X3220000Y-7920000D01*
X3220000Y-7880000D02*
X3180000Y-7920000D01*
X3180000Y-8080000D02*
X3220000Y-8120000D01*
X3220000Y-8080000D02*
X3180000Y-8120000D01*
X3180000Y-8280000D02*
X3220000Y-8320000D01*
X3220000Y-8280000D02*
X3180000Y-8320000D01*
X3180000Y-8480000D02*
X3220000Y-8520000D01*
X3220000Y-8480000D02*
X3180000Y-8520000D01*
X3180000Y-8680000D02*
X3220000Y-8720000D01*
X3220000Y-8680000D02*
X3180000Y-8720000D01*
X3180000Y-8880000D02*
X3220000Y-8920000D01*
X3220000Y-8880000D02*
X3180000Y-8920000D01*
X3180000Y-9080000D02*
X3220000Y-9120000D01*
X3220000Y-9080000D02*
X3180000Y-9120000D01*
X3180000Y-9680000D02*
X3220000Y-9720000D01*
X3220000Y-9680000D02*
X3180000Y-9720000D01*
X3180000Y-9880000D02*
X3220000Y-9920000D01*
X3220000Y-9880000D02*
X3180000Y-9920000D01*
X3180000Y-10080000D02*
X3220000Y-10120000D01*
X3220000Y-10080000D02*
X3180000Y-10120000D01*
X3180000Y-10280000D02*
X3220000Y-10320000D01*
X3220000Y-10280000D02*
X3180000Y-10320000D01*
X3180000Y-10480000D02*
X3220000Y-10520000D01*
X3220000Y-10480000D02*
X3180000Y-10520000D01*
X3180000Y-10680000D02*
X3220000Y-10720000D01*
X3220000Y-10680000D02*
X3180000Y-10720000D01*
X3180000Y-10880000D02*
X3220000Y-10920000D01*
X3220000Y-10880000D02*
X3180000Y-10920000D01*
X3380000Y-7880000D02*
X3420000Y-7920000D01*
X3420000Y-7880000D02*
X3380000Y-7920000D01*
X3380000Y-8080000D02*
X3420000Y-8120000D01*
X3420000Y-8080000D02*
X3380000Y-8120000D01*
X3380000Y-8280000D02*
X3420000Y-8320000D01*
X3420000Y-8280000D02*
X3380000Y-8320000D01*
X3380000Y-8480000D02*
X3420000Y-8520000D01*
X3420000Y-8480000D02*
X3380000Y-8520000D01*
X3380000Y-8680000D02*
X3420000Y-8720000D01*
X3420000Y-8680000D02*
X3380000Y-8720000D01*
X3380000Y-8880000D02*
X3420000Y-8920000D01*
X3420000Y-8880000D02*
X3380000Y-8920000D01*
X3380000Y-9080000D02*
X3420000Y-9120000D01*
X3420000Y-9080000D02*
X3380000Y-9120000D01*
X3380000Y-9680000D02*
X3420000Y-9720000D01*
X3420000Y-9680000D02*
X3380000Y-9720000D01*
X3380000Y-9880000D02*
X3420000Y-9920000D01*
X3420000Y-9880000D02*
X3380000Y-9920000D01*
X3380000Y-10080000D02*
X3420000Y-10120000D01*
X3420000Y-10080000D02*
X3380000Y-10120000D01*
X3380000Y-10280000D02*
X3420000Y-10320000D01*
X3420000Y-10280000D02*
X3380000Y-10320000D01*
X3380000Y-10480000D02*
X3420000Y-10520000D01*
X3420000Y-10480000D02*
X3380000Y-10520000D01*
X3380000Y-10680000D02*
X3420000Y-10720000D01*
X3420000Y-10680000D02*
X3380000Y-10720000D01*
X3380000Y-10880000D02*
X3420000Y-10920000D01*
X3420000Y-10880000D02*
X3380000Y-10920000D01*
X3453000Y-5658000D02*
X3493000Y-5698000D01*
X3493000Y-5658000D02*
X3453000Y-5698000D01*
X3580000Y-7880000D02*
X3620000Y-7920000D01*
X3620000Y-7880000D02*
X3580000Y-7920000D01*
X3580000Y-8080000D02*
X3620000Y-8120000D01*
X3620000Y-8080000D02*
X3580000Y-8120000D01*
X3580000Y-8280000D02*
X3620000Y-8320000D01*
X3620000Y-8280000D02*
X3580000Y-8320000D01*
X3580000Y-8480000D02*
X3620000Y-8520000D01*
X3620000Y-8480000D02*
X3580000Y-8520000D01*
X3580000Y-8680000D02*
X3620000Y-8720000D01*
X3620000Y-8680000D02*
X3580000Y-8720000D01*
X3580000Y-8880000D02*
X3620000Y-8920000D01*
X3620000Y-8880000D02*
X3580000Y-8920000D01*
X3580000Y-9080000D02*
X3620000Y-9120000D01*
X3620000Y-9080000D02*
X3580000Y-9120000D01*
X3580000Y-9680000D02*
X3620000Y-9720000D01*
X3620000Y-9680000D02*
X3580000Y-9720000D01*
X3580000Y-9880000D02*
X3620000Y-9920000D01*
X3620000Y-9880000D02*
X3580000Y-9920000D01*
X3580000Y-10080000D02*
X3620000Y-10120000D01*
X3620000Y-10080000D02*
X3580000Y-10120000D01*
X3580000Y-10280000D02*
X3620000Y-10320000D01*
X3620000Y-10280000D02*
X3580000Y-10320000D01*
X3580000Y-10480000D02*
X3620000Y-10520000D01*
X3620000Y-10480000D02*
X3580000Y-10520000D01*
X3580000Y-10680000D02*
X3620000Y-10720000D01*
X3620000Y-10680000D02*
X3580000Y-10720000D01*
X3580000Y-10880000D02*
X3620000Y-10920000D01*
X3620000Y-10880000D02*
X3580000Y-10920000D01*
X3880000Y-12580000D02*
X3920000Y-12620000D01*
X3920000Y-12580000D02*
X3880000Y-12620000D01*
X3880000Y-12780000D02*
X3920000Y-12820000D01*
X3920000Y-12780000D02*
X3880000Y-12820000D01*
X3980000Y-2280000D02*
X4020000Y-2320000D01*
X4020000Y-2280000D02*
X3980000Y-2320000D01*
X3980000Y-2480000D02*
X4020000Y-2520000D01*
X4020000Y-2480000D02*
X3980000Y-2520000D01*
X3980000Y-2680000D02*
X4020000Y-2720000D01*
X4020000Y-2680000D02*
X3980000Y-2720000D01*
X3980000Y-2880000D02*
X4020000Y-2920000D01*
X4020000Y-2880000D02*
X3980000Y-2920000D01*
X3980000Y-3080000D02*
X4020000Y-3120000D01*
X4020000Y-3080000D02*
X3980000Y-3120000D01*
X3980000Y-3280000D02*
X4020000Y-3320000D01*
X4020000Y-3280000D02*
X3980000Y-3320000D01*
X3980000Y-3480000D02*
X4020000Y-3520000D01*
X4020000Y-3480000D02*
X3980000Y-3520000D01*
X3980000Y-3680000D02*
X4020000Y-3720000D01*
X4020000Y-3680000D02*
X3980000Y-3720000D01*
X3980000Y-3880000D02*
X4020000Y-3920000D01*
X4020000Y-3880000D02*
X3980000Y-3920000D01*
X3980000Y-4080000D02*
X4020000Y-4120000D01*
X4020000Y-4080000D02*
X3980000Y-4120000D01*
X3980000Y-4280000D02*
X4020000Y-4320000D01*
X4020000Y-4280000D02*
X3980000Y-4320000D01*
X3980000Y-4480000D02*
X4020000Y-4520000D01*
X4020000Y-4480000D02*
X3980000Y-4520000D01*
X4080000Y-12580000D02*
X4120000Y-12620000D01*
X4120000Y-12580000D02*
X4080000Y-12620000D01*
X4080000Y-12780000D02*
X4120000Y-12820000D01*
X4120000Y-12780000D02*
X4080000Y-12820000D01*
X4080000Y-12980000D02*
X4120000Y-13020000D01*
X4120000Y-12980000D02*
X4080000Y-13020000D01*
X4179000Y-6384000D02*
X4219000Y-6424000D01*
X4219000Y-6384000D02*
X4179000Y-6424000D01*
X4180000Y-2280000D02*
X4220000Y-2320000D01*
X4220000Y-2280000D02*
X4180000Y-2320000D01*
X4180000Y-2480000D02*
X4220000Y-2520000D01*
X4220000Y-2480000D02*
X4180000Y-2520000D01*
X4180000Y-2680000D02*
X4220000Y-2720000D01*
X4220000Y-2680000D02*
X4180000Y-2720000D01*
X4180000Y-2880000D02*
X4220000Y-2920000D01*
X4220000Y-2880000D02*
X4180000Y-2920000D01*
X4180000Y-3080000D02*
X4220000Y-3120000D01*
X4220000Y-3080000D02*
X4180000Y-3120000D01*
X4180000Y-3280000D02*
X4220000Y-3320000D01*
X4220000Y-3280000D02*
X4180000Y-3320000D01*
X4180000Y-3480000D02*
X4220000Y-3520000D01*
X4220000Y-3480000D02*
X4180000Y-3520000D01*
X4180000Y-3680000D02*
X4220000Y-3720000D01*
X4220000Y-3680000D02*
X4180000Y-3720000D01*
X4180000Y-3880000D02*
X4220000Y-3920000D01*
X4220000Y-3880000D02*
X4180000Y-3920000D01*
X4180000Y-4080000D02*
X4220000Y-4120000D01*
X4220000Y-4080000D02*
X4180000Y-4120000D01*
X4180000Y-4280000D02*
X4220000Y-4320000D01*
X4220000Y-4280000D02*
X4180000Y-4320000D01*
X4180000Y-4480000D02*
X4220000Y-4520000D01*
X4220000Y-4480000D02*
X4180000Y-4520000D01*
X4180000Y-4680000D02*
X4220000Y-4720000D01*
X4220000Y-4680000D02*
X4180000Y-4720000D01*
X4280000Y-12580000D02*
X4320000Y-12620000D01*
X4320000Y-12580000D02*
X4280000Y-12620000D01*
X4280000Y-12780000D02*
X4320000Y-12820000D01*
X4320000Y-12780000D02*
X4280000Y-12820000D01*
X4280000Y-12980000D02*
X4320000Y-13020000D01*
X4320000Y-12980000D02*
X4280000Y-13020000D01*
X4280000Y-13180000D02*
X4320000Y-13220000D01*
X4320000Y-13180000D02*
X4280000Y-13220000D01*
X4380000Y-2280000D02*
X4420000Y-2320000D01*
X4420000Y-2280000D02*
X4380000Y-2320000D01*
X4380000Y-2480000D02*
X4420000Y-2520000D01*
X4420000Y-2480000D02*
X4380000Y-2520000D01*
X4380000Y-2680000D02*
X4420000Y-2720000D01*
X4420000Y-2680000D02*
X4380000Y-2720000D01*
X4380000Y-2880000D02*
X4420000Y-2920000D01*
X4420000Y-2880000D02*
X4380000Y-2920000D01*
X4380000Y-3080000D02*
X4420000Y-3120000D01*
X4420000Y-3080000D02*
X4380000Y-3120000D01*
X4380000Y-3280000D02*
X4420000Y-3320000D01*
X4420000Y-3280000D02*
X4380000Y-3320000D01*
X4380000Y-3480000D02*
X4420000Y-3520000D01*
X4420000Y-3480000D02*
X4380000Y-3520000D01*
X4380000Y-3680000D02*
X4420000Y-3720000D01*
X4420000Y-3680000D02*
X4380000Y-3720000D01*
X4380000Y-3880000D02*
X4420000Y-3920000D01*
X4420000Y-3880000D02*
X4380000Y-3920000D01*
X4380000Y-4080000D02*
X4420000Y-4120000D01*
X4420000Y-4080000D02*
X4380000Y-4120000D01*
X4380000Y-4280000D02*
X4420000Y-4320000D01*
X4420000Y-4280000D02*
X4380000Y-4320000D01*
X4380000Y-4480000D02*
X4420000Y-4520000D01*
X4420000Y-4480000D02*
X4380000Y-4520000D01*
X4380000Y-4680000D02*
X4420000Y-4720000D01*
X4420000Y-4680000D02*
X4380000Y-4720000D01*
X4380000Y-4880000D02*
X4420000Y-4920000D01*
X4420000Y-4880000D02*
X4380000Y-4920000D01*
X4480000Y-12580000D02*
X4520000Y-12620000D01*
X4520000Y-12580000D02*
X4480000Y-12620000D01*
X4480000Y-12780000D02*
X4520000Y-12820000D01*
X4520000Y-12780000D02*
X4480000Y-12820000D01*
X4480000Y-12980000D02*
X4520000Y-13020000D01*
X4520000Y-12980000D02*
X4480000Y-13020000D01*
X4480000Y-13180000D02*
X4520000Y-13220000D01*
X4520000Y-13180000D02*
X4480000Y-13220000D01*
X4480000Y-13380000D02*
X4520000Y-13420000D01*
X4520000Y-13380000D02*
X4480000Y-13420000D01*
X4514000Y-12123000D02*
X4554000Y-12163000D01*
X4554000Y-12123000D02*
X4514000Y-12163000D01*
X4580000Y-2280000D02*
X4620000Y-2320000D01*
X4620000Y-2280000D02*
X4580000Y-2320000D01*
X4580000Y-2480000D02*
X4620000Y-2520000D01*
X4620000Y-2480000D02*
X4580000Y-2520000D01*
X4580000Y-2680000D02*
X4620000Y-2720000D01*
X4620000Y-2680000D02*
X4580000Y-2720000D01*
X4600000Y-10100000D02*
X4640000Y-10140000D01*
X4640000Y-10100000D02*
X4600000Y-10140000D01*
X4680000Y-12580000D02*
X4720000Y-12620000D01*
X4720000Y-12580000D02*
X4680000Y-12620000D01*
X4680000Y-12780000D02*
X4720000Y-12820000D01*
X4720000Y-12780000D02*
X4680000Y-12820000D01*
X4680000Y-12980000D02*
X4720000Y-13020000D01*
X4720000Y-12980000D02*
X4680000Y-13020000D01*
X4680000Y-13180000D02*
X4720000Y-13220000D01*
X4720000Y-13180000D02*
X4680000Y-13220000D01*
X4680000Y-13380000D02*
X4720000Y-13420000D01*
X4720000Y-13380000D02*
X4680000Y-13420000D01*
X4680000Y-13580000D02*
X4720000Y-13620000D01*
X4720000Y-13580000D02*
X4680000Y-13620000D01*
X4780000Y-2280000D02*
X4820000Y-2320000D01*
X4820000Y-2280000D02*
X4780000Y-2320000D01*
X4780000Y-2480000D02*
X4820000Y-2520000D01*
X4820000Y-2480000D02*
X4780000Y-2520000D01*
X4880000Y-12580000D02*
X4920000Y-12620000D01*
X4920000Y-12580000D02*
X4880000Y-12620000D01*
X4880000Y-12780000D02*
X4920000Y-12820000D01*
X4920000Y-12780000D02*
X4880000Y-12820000D01*
X4880000Y-12980000D02*
X4920000Y-13020000D01*
X4920000Y-12980000D02*
X4880000Y-13020000D01*
X4880000Y-13180000D02*
X4920000Y-13220000D01*
X4920000Y-13180000D02*
X4880000Y-13220000D01*
X4880000Y-13380000D02*
X4920000Y-13420000D01*
X4920000Y-13380000D02*
X4880000Y-13420000D01*
X4880000Y-13580000D02*
X4920000Y-13620000D01*
X4920000Y-13580000D02*
X4880000Y-13620000D01*
X4880000Y-13780000D02*
X4920000Y-13820000D01*
X4920000Y-13780000D02*
X4880000Y-13820000D01*
X4980000Y-2280000D02*
X5020000Y-2320000D01*
X5020000Y-2280000D02*
X4980000Y-2320000D01*
X5000000Y-10200000D02*
X5040000Y-10240000D01*
X5040000Y-10200000D02*
X5000000Y-10240000D01*
X5080000Y-12780000D02*
X5120000Y-12820000D01*
X5120000Y-12780000D02*
X5080000Y-12820000D01*
X5080000Y-12980000D02*
X5120000Y-13020000D01*
X5120000Y-12980000D02*
X5080000Y-13020000D01*
X5080000Y-13180000D02*
X5120000Y-13220000D01*
X5120000Y-13180000D02*
X5080000Y-13220000D01*
X5080000Y-13380000D02*
X5120000Y-13420000D01*
X5120000Y-13380000D02*
X5080000Y-13420000D01*
X5080000Y-13580000D02*
X5120000Y-13620000D01*
X5120000Y-13580000D02*
X5080000Y-13620000D01*
X5080000Y-13780000D02*
X5120000Y-13820000D01*
X5120000Y-13780000D02*
X5080000Y-13820000D01*
X5080000Y-13980000D02*
X5120000Y-14020000D01*
X5120000Y-13980000D02*
X5080000Y-14020000D01*
X5080000Y-14180000D02*
X5120000Y-14220000D01*
X5120000Y-14180000D02*
X5080000Y-14220000D01*
X5080000Y-14380000D02*
X5120000Y-14420000D01*
X5120000Y-14380000D02*
X5080000Y-14420000D01*
X5080000Y-14580000D02*
X5120000Y-14620000D01*
X5120000Y-14580000D02*
X5080000Y-14620000D01*
X5180000Y-8380000D02*
X5220000Y-8420000D01*
X5220000Y-8380000D02*
X5180000Y-8420000D01*
X5180000Y-8680000D02*
X5220000Y-8720000D01*
X5220000Y-8680000D02*
X5180000Y-8720000D01*
X5280000Y-13180000D02*
X5320000Y-13220000D01*
X5320000Y-13180000D02*
X5280000Y-13220000D01*
X5280000Y-13380000D02*
X5320000Y-13420000D01*
X5320000Y-13380000D02*
X5280000Y-13420000D01*
X5280000Y-13580000D02*
X5320000Y-13620000D01*
X5320000Y-13580000D02*
X5280000Y-13620000D01*
X5280000Y-13780000D02*
X5320000Y-13820000D01*
X5320000Y-13780000D02*
X5280000Y-13820000D01*
X5280000Y-13980000D02*
X5320000Y-14020000D01*
X5320000Y-13980000D02*
X5280000Y-14020000D01*
X5280000Y-14180000D02*
X5320000Y-14220000D01*
X5320000Y-14180000D02*
X5280000Y-14220000D01*
X5280000Y-14380000D02*
X5320000Y-14420000D01*
X5320000Y-14380000D02*
X5280000Y-14420000D01*
X5280000Y-14580000D02*
X5320000Y-14620000D01*
X5320000Y-14580000D02*
X5280000Y-14620000D01*
X5380000Y-8380000D02*
X5420000Y-8420000D01*
X5420000Y-8380000D02*
X5380000Y-8420000D01*
X5380000Y-8680000D02*
X5420000Y-8720000D01*
X5420000Y-8680000D02*
X5380000Y-8720000D01*
X5480000Y-13380000D02*
X5520000Y-13420000D01*
X5520000Y-13380000D02*
X5480000Y-13420000D01*
X5480000Y-13580000D02*
X5520000Y-13620000D01*
X5520000Y-13580000D02*
X5480000Y-13620000D01*
X5480000Y-13780000D02*
X5520000Y-13820000D01*
X5520000Y-13780000D02*
X5480000Y-13820000D01*
X5480000Y-13980000D02*
X5520000Y-14020000D01*
X5520000Y-13980000D02*
X5480000Y-14020000D01*
X5480000Y-14180000D02*
X5520000Y-14220000D01*
X5520000Y-14180000D02*
X5480000Y-14220000D01*
X5480000Y-14380000D02*
X5520000Y-14420000D01*
X5520000Y-14380000D02*
X5480000Y-14420000D01*
X5480000Y-14580000D02*
X5520000Y-14620000D01*
X5520000Y-14580000D02*
X5480000Y-14620000D01*
X5580000Y-8380000D02*
X5620000Y-8420000D01*
X5620000Y-8380000D02*
X5580000Y-8420000D01*
X5580000Y-8680000D02*
X5620000Y-8720000D01*
X5620000Y-8680000D02*
X5580000Y-8720000D01*
X5580000Y-10180000D02*
X5620000Y-10220000D01*
X5620000Y-10180000D02*
X5580000Y-10220000D01*
X5580000Y-10380000D02*
X5620000Y-10420000D01*
X5620000Y-10380000D02*
X5580000Y-10420000D01*
X5680000Y-13580000D02*
X5720000Y-13620000D01*
X5720000Y-13580000D02*
X5680000Y-13620000D01*
X5680000Y-13780000D02*
X5720000Y-13820000D01*
X5720000Y-13780000D02*
X5680000Y-13820000D01*
X5680000Y-13980000D02*
X5720000Y-14020000D01*
X5720000Y-13980000D02*
X5680000Y-14020000D01*
X5680000Y-14180000D02*
X5720000Y-14220000D01*
X5720000Y-14180000D02*
X5680000Y-14220000D01*
X5680000Y-14380000D02*
X5720000Y-14420000D01*
X5720000Y-14380000D02*
X5680000Y-14420000D01*
X5680000Y-14580000D02*
X5720000Y-14620000D01*
X5720000Y-14580000D02*
X5680000Y-14620000D01*
X5727000Y-12123000D02*
X5767000Y-12163000D01*
X5767000Y-12123000D02*
X5727000Y-12163000D01*
X5780000Y-8380000D02*
X5820000Y-8420000D01*
X5820000Y-8380000D02*
X5780000Y-8420000D01*
X5780000Y-8680000D02*
X5820000Y-8720000D01*
X5820000Y-8680000D02*
X5780000Y-8720000D01*
X5780000Y-10180000D02*
X5820000Y-10220000D01*
X5820000Y-10180000D02*
X5780000Y-10220000D01*
X5780000Y-10380000D02*
X5820000Y-10420000D01*
X5820000Y-10380000D02*
X5780000Y-10420000D01*
X5880000Y-13780000D02*
X5920000Y-13820000D01*
X5920000Y-13780000D02*
X5880000Y-13820000D01*
X5880000Y-13980000D02*
X5920000Y-14020000D01*
X5920000Y-13980000D02*
X5880000Y-14020000D01*
X5880000Y-14180000D02*
X5920000Y-14220000D01*
X5920000Y-14180000D02*
X5880000Y-14220000D01*
X5880000Y-14380000D02*
X5920000Y-14420000D01*
X5920000Y-14380000D02*
X5880000Y-14420000D01*
X5880000Y-14580000D02*
X5920000Y-14620000D01*
X5920000Y-14580000D02*
X5880000Y-14620000D01*
X5930000Y-8420000D02*
X5970000Y-8460000D01*
X5970000Y-8420000D02*
X5930000Y-8460000D01*
X5930000Y-8650000D02*
X5970000Y-8690000D01*
X5970000Y-8650000D02*
X5930000Y-8690000D01*
X5930000Y-10190000D02*
X5970000Y-10230000D01*
X5970000Y-10190000D02*
X5930000Y-10230000D01*
X5930000Y-10420000D02*
X5970000Y-10460000D01*
X5970000Y-10420000D02*
X5930000Y-10460000D01*
X5980000Y-12580000D02*
X6020000Y-12620000D01*
X6020000Y-12580000D02*
X5980000Y-12620000D01*
X6080000Y-13980000D02*
X6120000Y-14020000D01*
X6120000Y-13980000D02*
X6080000Y-14020000D01*
X6080000Y-14180000D02*
X6120000Y-14220000D01*
X6120000Y-14180000D02*
X6080000Y-14220000D01*
X6080000Y-14380000D02*
X6120000Y-14420000D01*
X6120000Y-14380000D02*
X6080000Y-14420000D01*
X6080000Y-14580000D02*
X6120000Y-14620000D01*
X6120000Y-14580000D02*
X6080000Y-14620000D01*
X6090000Y-8462550D02*
X6130000Y-8502550D01*
X6130000Y-8462550D02*
X6090000Y-8502550D01*
X6090000Y-8660000D02*
X6130000Y-8700000D01*
X6130000Y-8660000D02*
X6090000Y-8700000D01*
X6090000Y-10198550D02*
X6130000Y-10238550D01*
X6130000Y-10198550D02*
X6090000Y-10238550D01*
X6090000Y-10410000D02*
X6130000Y-10450000D01*
X6130000Y-10410000D02*
X6090000Y-10450000D01*
X6180000Y-12580000D02*
X6220000Y-12620000D01*
X6220000Y-12580000D02*
X6180000Y-12620000D01*
X6180000Y-12780000D02*
X6220000Y-12820000D01*
X6220000Y-12780000D02*
X6180000Y-12820000D01*
X6280000Y-14180000D02*
X6320000Y-14220000D01*
X6320000Y-14180000D02*
X6280000Y-14220000D01*
X6280000Y-14380000D02*
X6320000Y-14420000D01*
X6320000Y-14380000D02*
X6280000Y-14420000D01*
X6280000Y-14580000D02*
X6320000Y-14620000D01*
X6320000Y-14580000D02*
X6280000Y-14620000D01*
X6380000Y-12580000D02*
X6420000Y-12620000D01*
X6420000Y-12580000D02*
X6380000Y-12620000D01*
X6380000Y-12780000D02*
X6420000Y-12820000D01*
X6420000Y-12780000D02*
X6380000Y-12820000D01*
X6380000Y-12980000D02*
X6420000Y-13020000D01*
X6420000Y-12980000D02*
X6380000Y-13020000D01*
X6480000Y-14380000D02*
X6520000Y-14420000D01*
X6520000Y-14380000D02*
X6480000Y-14420000D01*
X6480000Y-14580000D02*
X6520000Y-14620000D01*
X6520000Y-14580000D02*
X6480000Y-14620000D01*
X6580000Y-6980000D02*
X6620000Y-7020000D01*
X6620000Y-6980000D02*
X6580000Y-7020000D01*
X6580000Y-7180000D02*
X6620000Y-7220000D01*
X6620000Y-7180000D02*
X6580000Y-7220000D01*
X6580000Y-7380000D02*
X6620000Y-7420000D01*
X6620000Y-7380000D02*
X6580000Y-7420000D01*
X6580000Y-12580000D02*
X6620000Y-12620000D01*
X6620000Y-12580000D02*
X6580000Y-12620000D01*
X6580000Y-12780000D02*
X6620000Y-12820000D01*
X6620000Y-12780000D02*
X6580000Y-12820000D01*
X6580000Y-12980000D02*
X6620000Y-13020000D01*
X6620000Y-12980000D02*
X6580000Y-13020000D01*
X6580000Y-13180000D02*
X6620000Y-13220000D01*
X6620000Y-13180000D02*
X6580000Y-13220000D01*
X6650000Y-2940000D02*
X6690000Y-2980000D01*
X6690000Y-2940000D02*
X6650000Y-2980000D01*
X6680000Y-14580000D02*
X6720000Y-14620000D01*
X6720000Y-14580000D02*
X6680000Y-14620000D01*
X6780000Y-6980000D02*
X6820000Y-7020000D01*
X6820000Y-6980000D02*
X6780000Y-7020000D01*
X6780000Y-7180000D02*
X6820000Y-7220000D01*
X6820000Y-7180000D02*
X6780000Y-7220000D01*
X6780000Y-7380000D02*
X6820000Y-7420000D01*
X6820000Y-7380000D02*
X6780000Y-7420000D01*
X6780000Y-12580000D02*
X6820000Y-12620000D01*
X6820000Y-12580000D02*
X6780000Y-12620000D01*
X6780000Y-12780000D02*
X6820000Y-12820000D01*
X6820000Y-12780000D02*
X6780000Y-12820000D01*
X6780000Y-12980000D02*
X6820000Y-13020000D01*
X6820000Y-12980000D02*
X6780000Y-13020000D01*
X6780000Y-13180000D02*
X6820000Y-13220000D01*
X6820000Y-13180000D02*
X6780000Y-13220000D01*
X6967550Y-10200000D02*
X7007550Y-10240000D01*
X7007550Y-10200000D02*
X6967550Y-10240000D01*
X6980000Y-6980000D02*
X7020000Y-7020000D01*
X7020000Y-6980000D02*
X6980000Y-7020000D01*
X6980000Y-7180000D02*
X7020000Y-7220000D01*
X7020000Y-7180000D02*
X6980000Y-7220000D01*
X6980000Y-7380000D02*
X7020000Y-7420000D01*
X7020000Y-7380000D02*
X6980000Y-7420000D01*
X6980000Y-12580000D02*
X7020000Y-12620000D01*
X7020000Y-12580000D02*
X6980000Y-12620000D01*
X6980000Y-12780000D02*
X7020000Y-12820000D01*
X7020000Y-12780000D02*
X6980000Y-12820000D01*
X6980000Y-12980000D02*
X7020000Y-13020000D01*
X7020000Y-12980000D02*
X6980000Y-13020000D01*
X6980000Y-13180000D02*
X7020000Y-13220000D01*
X7020000Y-13180000D02*
X6980000Y-13220000D01*
X7180000Y-6980000D02*
X7220000Y-7020000D01*
X7220000Y-6980000D02*
X7180000Y-7020000D01*
X7180000Y-7180000D02*
X7220000Y-7220000D01*
X7220000Y-7180000D02*
X7180000Y-7220000D01*
X7180000Y-7380000D02*
X7220000Y-7420000D01*
X7220000Y-7380000D02*
X7180000Y-7420000D01*
X7180000Y-12580000D02*
X7220000Y-12620000D01*
X7220000Y-12580000D02*
X7180000Y-12620000D01*
X7180000Y-12780000D02*
X7220000Y-12820000D01*
X7220000Y-12780000D02*
X7180000Y-12820000D01*
X7180000Y-12980000D02*
X7220000Y-13020000D01*
X7220000Y-12980000D02*
X7180000Y-13020000D01*
X7180000Y-13180000D02*
X7220000Y-13220000D01*
X7220000Y-13180000D02*
X7180000Y-13220000D01*
X7240000Y-10220000D02*
X7280000Y-10260000D01*
X7280000Y-10220000D02*
X7240000Y-10260000D01*
X7280000Y-10580000D02*
X7320000Y-10620000D01*
X7320000Y-10580000D02*
X7280000Y-10620000D01*
X7280000Y-10780000D02*
X7320000Y-10820000D01*
X7320000Y-10780000D02*
X7280000Y-10820000D01*
X7280000Y-10980000D02*
X7320000Y-11020000D01*
X7320000Y-10980000D02*
X7280000Y-11020000D01*
X7280000Y-11180000D02*
X7320000Y-11220000D01*
X7320000Y-11180000D02*
X7280000Y-11220000D01*
X7280000Y-11380000D02*
X7320000Y-11420000D01*
X7320000Y-11380000D02*
X7280000Y-11420000D01*
X7310000Y-12260000D02*
X7350000Y-12300000D01*
X7350000Y-12260000D02*
X7310000Y-12300000D01*
X7380000Y-6980000D02*
X7420000Y-7020000D01*
X7420000Y-6980000D02*
X7380000Y-7020000D01*
X7380000Y-7180000D02*
X7420000Y-7220000D01*
X7420000Y-7180000D02*
X7380000Y-7220000D01*
X7380000Y-7380000D02*
X7420000Y-7420000D01*
X7420000Y-7380000D02*
X7380000Y-7420000D01*
X7380000Y-7780000D02*
X7420000Y-7820000D01*
X7420000Y-7780000D02*
X7380000Y-7820000D01*
X7380000Y-7980000D02*
X7420000Y-8020000D01*
X7420000Y-7980000D02*
X7380000Y-8020000D01*
X7380000Y-8180000D02*
X7420000Y-8220000D01*
X7420000Y-8180000D02*
X7380000Y-8220000D01*
X7380000Y-8480000D02*
X7420000Y-8520000D01*
X7420000Y-8480000D02*
X7380000Y-8520000D01*
X7380000Y-8680000D02*
X7420000Y-8720000D01*
X7420000Y-8680000D02*
X7380000Y-8720000D01*
X7380000Y-8880000D02*
X7420000Y-8920000D01*
X7420000Y-8880000D02*
X7380000Y-8920000D01*
X7380000Y-12580000D02*
X7420000Y-12620000D01*
X7420000Y-12580000D02*
X7380000Y-12620000D01*
X7380000Y-12780000D02*
X7420000Y-12820000D01*
X7420000Y-12780000D02*
X7380000Y-12820000D01*
X7380000Y-12980000D02*
X7420000Y-13020000D01*
X7420000Y-12980000D02*
X7380000Y-13020000D01*
X7380000Y-13180000D02*
X7420000Y-13220000D01*
X7420000Y-13180000D02*
X7380000Y-13220000D01*
X7480000Y-10580000D02*
X7520000Y-10620000D01*
X7520000Y-10580000D02*
X7480000Y-10620000D01*
X7480000Y-10780000D02*
X7520000Y-10820000D01*
X7520000Y-10780000D02*
X7480000Y-10820000D01*
X7480000Y-10980000D02*
X7520000Y-11020000D01*
X7520000Y-10980000D02*
X7480000Y-11020000D01*
X7480000Y-11180000D02*
X7520000Y-11220000D01*
X7520000Y-11180000D02*
X7480000Y-11220000D01*
X7480000Y-11380000D02*
X7520000Y-11420000D01*
X7520000Y-11380000D02*
X7480000Y-11420000D01*
X7580000Y-6980000D02*
X7620000Y-7020000D01*
X7620000Y-6980000D02*
X7580000Y-7020000D01*
X7580000Y-7180000D02*
X7620000Y-7220000D01*
X7620000Y-7180000D02*
X7580000Y-7220000D01*
X7580000Y-7380000D02*
X7620000Y-7420000D01*
X7620000Y-7380000D02*
X7580000Y-7420000D01*
X7580000Y-7780000D02*
X7620000Y-7820000D01*
X7620000Y-7780000D02*
X7580000Y-7820000D01*
X7580000Y-7980000D02*
X7620000Y-8020000D01*
X7620000Y-7980000D02*
X7580000Y-8020000D01*
X7580000Y-8180000D02*
X7620000Y-8220000D01*
X7620000Y-8180000D02*
X7580000Y-8220000D01*
X7580000Y-8480000D02*
X7620000Y-8520000D01*
X7620000Y-8480000D02*
X7580000Y-8520000D01*
X7580000Y-8680000D02*
X7620000Y-8720000D01*
X7620000Y-8680000D02*
X7580000Y-8720000D01*
X7580000Y-8880000D02*
X7620000Y-8920000D01*
X7620000Y-8880000D02*
X7580000Y-8920000D01*
X7580000Y-9180000D02*
X7620000Y-9220000D01*
X7620000Y-9180000D02*
X7580000Y-9220000D01*
X7580000Y-12780000D02*
X7620000Y-12820000D01*
X7620000Y-12780000D02*
X7580000Y-12820000D01*
X7580000Y-12980000D02*
X7620000Y-13020000D01*
X7620000Y-12980000D02*
X7580000Y-13020000D01*
X7580000Y-13180000D02*
X7620000Y-13220000D01*
X7620000Y-13180000D02*
X7580000Y-13220000D01*
X7590000Y-12260000D02*
X7630000Y-12300000D01*
X7630000Y-12260000D02*
X7590000Y-12300000D01*
X7680000Y-10580000D02*
X7720000Y-10620000D01*
X7720000Y-10580000D02*
X7680000Y-10620000D01*
X7680000Y-10780000D02*
X7720000Y-10820000D01*
X7720000Y-10780000D02*
X7680000Y-10820000D01*
X7680000Y-10980000D02*
X7720000Y-11020000D01*
X7720000Y-10980000D02*
X7680000Y-11020000D01*
X7680000Y-11180000D02*
X7720000Y-11220000D01*
X7720000Y-11180000D02*
X7680000Y-11220000D01*
X7680000Y-11380000D02*
X7720000Y-11420000D01*
X7720000Y-11380000D02*
X7680000Y-11420000D01*
X7780000Y-6980000D02*
X7820000Y-7020000D01*
X7820000Y-6980000D02*
X7780000Y-7020000D01*
X7780000Y-7180000D02*
X7820000Y-7220000D01*
X7820000Y-7180000D02*
X7780000Y-7220000D01*
X7780000Y-7380000D02*
X7820000Y-7420000D01*
X7820000Y-7380000D02*
X7780000Y-7420000D01*
X7780000Y-7780000D02*
X7820000Y-7820000D01*
X7820000Y-7780000D02*
X7780000Y-7820000D01*
X7780000Y-7980000D02*
X7820000Y-8020000D01*
X7820000Y-7980000D02*
X7780000Y-8020000D01*
X7780000Y-8180000D02*
X7820000Y-8220000D01*
X7820000Y-8180000D02*
X7780000Y-8220000D01*
X7780000Y-8480000D02*
X7820000Y-8520000D01*
X7820000Y-8480000D02*
X7780000Y-8520000D01*
X7780000Y-8680000D02*
X7820000Y-8720000D01*
X7820000Y-8680000D02*
X7780000Y-8720000D01*
X7780000Y-8880000D02*
X7820000Y-8920000D01*
X7820000Y-8880000D02*
X7780000Y-8920000D01*
X7780000Y-9180000D02*
X7820000Y-9220000D01*
X7820000Y-9180000D02*
X7780000Y-9220000D01*
X7780000Y-9380000D02*
X7820000Y-9420000D01*
X7820000Y-9380000D02*
X7780000Y-9420000D01*
X7780000Y-12980000D02*
X7820000Y-13020000D01*
X7820000Y-12980000D02*
X7780000Y-13020000D01*
X7780000Y-13180000D02*
X7820000Y-13220000D01*
X7820000Y-13180000D02*
X7780000Y-13220000D01*
X7880000Y-10780000D02*
X7920000Y-10820000D01*
X7920000Y-10780000D02*
X7880000Y-10820000D01*
X7880000Y-10980000D02*
X7920000Y-11020000D01*
X7920000Y-10980000D02*
X7880000Y-11020000D01*
X7880000Y-11180000D02*
X7920000Y-11220000D01*
X7920000Y-11180000D02*
X7880000Y-11220000D01*
X7880000Y-11380000D02*
X7920000Y-11420000D01*
X7920000Y-11380000D02*
X7880000Y-11420000D01*
X7980000Y-6980000D02*
X8020000Y-7020000D01*
X8020000Y-6980000D02*
X7980000Y-7020000D01*
X7980000Y-7180000D02*
X8020000Y-7220000D01*
X8020000Y-7180000D02*
X7980000Y-7220000D01*
X7980000Y-7380000D02*
X8020000Y-7420000D01*
X8020000Y-7380000D02*
X7980000Y-7420000D01*
X7980000Y-7780000D02*
X8020000Y-7820000D01*
X8020000Y-7780000D02*
X7980000Y-7820000D01*
X7980000Y-7980000D02*
X8020000Y-8020000D01*
X8020000Y-7980000D02*
X7980000Y-8020000D01*
X7980000Y-8180000D02*
X8020000Y-8220000D01*
X8020000Y-8180000D02*
X7980000Y-8220000D01*
X7980000Y-8480000D02*
X8020000Y-8520000D01*
X8020000Y-8480000D02*
X7980000Y-8520000D01*
X7980000Y-8680000D02*
X8020000Y-8720000D01*
X8020000Y-8680000D02*
X7980000Y-8720000D01*
X7980000Y-8880000D02*
X8020000Y-8920000D01*
X8020000Y-8880000D02*
X7980000Y-8920000D01*
X7980000Y-9180000D02*
X8020000Y-9220000D01*
X8020000Y-9180000D02*
X7980000Y-9220000D01*
X7980000Y-9380000D02*
X8020000Y-9420000D01*
X8020000Y-9380000D02*
X7980000Y-9420000D01*
X7980000Y-9580000D02*
X8020000Y-9620000D01*
X8020000Y-9580000D02*
X7980000Y-9620000D01*
X7980000Y-13180000D02*
X8020000Y-13220000D01*
X8020000Y-13180000D02*
X7980000Y-13220000D01*
X8080000Y-10980000D02*
X8120000Y-11020000D01*
X8120000Y-10980000D02*
X8080000Y-11020000D01*
X8080000Y-11180000D02*
X8120000Y-11220000D01*
X8120000Y-11180000D02*
X8080000Y-11220000D01*
X8080000Y-11380000D02*
X8120000Y-11420000D01*
X8120000Y-11380000D02*
X8080000Y-11420000D01*
X8080000Y-12580000D02*
X8120000Y-12620000D01*
X8120000Y-12580000D02*
X8080000Y-12620000D01*
X8180000Y-6980000D02*
X8220000Y-7020000D01*
X8220000Y-6980000D02*
X8180000Y-7020000D01*
X8180000Y-7180000D02*
X8220000Y-7220000D01*
X8220000Y-7180000D02*
X8180000Y-7220000D01*
X8180000Y-7380000D02*
X8220000Y-7420000D01*
X8220000Y-7380000D02*
X8180000Y-7420000D01*
X8180000Y-7780000D02*
X8220000Y-7820000D01*
X8220000Y-7780000D02*
X8180000Y-7820000D01*
X8180000Y-7980000D02*
X8220000Y-8020000D01*
X8220000Y-7980000D02*
X8180000Y-8020000D01*
X8180000Y-8180000D02*
X8220000Y-8220000D01*
X8220000Y-8180000D02*
X8180000Y-8220000D01*
X8180000Y-8480000D02*
X8220000Y-8520000D01*
X8220000Y-8480000D02*
X8180000Y-8520000D01*
X8180000Y-8680000D02*
X8220000Y-8720000D01*
X8220000Y-8680000D02*
X8180000Y-8720000D01*
X8180000Y-8880000D02*
X8220000Y-8920000D01*
X8220000Y-8880000D02*
X8180000Y-8920000D01*
X8180000Y-9180000D02*
X8220000Y-9220000D01*
X8220000Y-9180000D02*
X8180000Y-9220000D01*
X8180000Y-9380000D02*
X8220000Y-9420000D01*
X8220000Y-9380000D02*
X8180000Y-9420000D01*
X8180000Y-9580000D02*
X8220000Y-9620000D01*
X8220000Y-9580000D02*
X8180000Y-9620000D01*
X8180000Y-9780000D02*
X8220000Y-9820000D01*
X8220000Y-9780000D02*
X8180000Y-9820000D01*
X8280000Y-11180000D02*
X8320000Y-11220000D01*
X8320000Y-11180000D02*
X8280000Y-11220000D01*
X8280000Y-11380000D02*
X8320000Y-11420000D01*
X8320000Y-11380000D02*
X8280000Y-11420000D01*
X8280000Y-12580000D02*
X8320000Y-12620000D01*
X8320000Y-12580000D02*
X8280000Y-12620000D01*
X8280000Y-12780000D02*
X8320000Y-12820000D01*
X8320000Y-12780000D02*
X8280000Y-12820000D01*
X8380000Y-6980000D02*
X8420000Y-7020000D01*
X8420000Y-6980000D02*
X8380000Y-7020000D01*
X8380000Y-7180000D02*
X8420000Y-7220000D01*
X8420000Y-7180000D02*
X8380000Y-7220000D01*
X8380000Y-7380000D02*
X8420000Y-7420000D01*
X8420000Y-7380000D02*
X8380000Y-7420000D01*
X8380000Y-7780000D02*
X8420000Y-7820000D01*
X8420000Y-7780000D02*
X8380000Y-7820000D01*
X8380000Y-7980000D02*
X8420000Y-8020000D01*
X8420000Y-7980000D02*
X8380000Y-8020000D01*
X8380000Y-8180000D02*
X8420000Y-8220000D01*
X8420000Y-8180000D02*
X8380000Y-8220000D01*
X8380000Y-8480000D02*
X8420000Y-8520000D01*
X8420000Y-8480000D02*
X8380000Y-8520000D01*
X8380000Y-8680000D02*
X8420000Y-8720000D01*
X8420000Y-8680000D02*
X8380000Y-8720000D01*
X8380000Y-8880000D02*
X8420000Y-8920000D01*
X8420000Y-8880000D02*
X8380000Y-8920000D01*
X8380000Y-9180000D02*
X8420000Y-9220000D01*
X8420000Y-9180000D02*
X8380000Y-9220000D01*
X8380000Y-9380000D02*
X8420000Y-9420000D01*
X8420000Y-9380000D02*
X8380000Y-9420000D01*
X8380000Y-9580000D02*
X8420000Y-9620000D01*
X8420000Y-9580000D02*
X8380000Y-9620000D01*
X8380000Y-9780000D02*
X8420000Y-9820000D01*
X8420000Y-9780000D02*
X8380000Y-9820000D01*
X8380000Y-9980000D02*
X8420000Y-10020000D01*
X8420000Y-9980000D02*
X8380000Y-10020000D01*
X8380000Y-15680000D02*
X8420000Y-15720000D01*
X8420000Y-15680000D02*
X8380000Y-15720000D01*
X8380000Y-15880000D02*
X8420000Y-15920000D01*
X8420000Y-15880000D02*
X8380000Y-15920000D01*
X8380000Y-16080000D02*
X8420000Y-16120000D01*
X8420000Y-16080000D02*
X8380000Y-16120000D01*
X8480000Y-11380000D02*
X8520000Y-11420000D01*
X8520000Y-11380000D02*
X8480000Y-11420000D01*
X8480000Y-12580000D02*
X8520000Y-12620000D01*
X8520000Y-12580000D02*
X8480000Y-12620000D01*
X8480000Y-12780000D02*
X8520000Y-12820000D01*
X8520000Y-12780000D02*
X8480000Y-12820000D01*
X8480000Y-12980000D02*
X8520000Y-13020000D01*
X8520000Y-12980000D02*
X8480000Y-13020000D01*
X8580000Y-7780000D02*
X8620000Y-7820000D01*
X8620000Y-7780000D02*
X8580000Y-7820000D01*
X8580000Y-7980000D02*
X8620000Y-8020000D01*
X8620000Y-7980000D02*
X8580000Y-8020000D01*
X8580000Y-8180000D02*
X8620000Y-8220000D01*
X8620000Y-8180000D02*
X8580000Y-8220000D01*
X8580000Y-8480000D02*
X8620000Y-8520000D01*
X8620000Y-8480000D02*
X8580000Y-8520000D01*
X8580000Y-8680000D02*
X8620000Y-8720000D01*
X8620000Y-8680000D02*
X8580000Y-8720000D01*
X8580000Y-8880000D02*
X8620000Y-8920000D01*
X8620000Y-8880000D02*
X8580000Y-8920000D01*
X8580000Y-9180000D02*
X8620000Y-9220000D01*
X8620000Y-9180000D02*
X8580000Y-9220000D01*
X8580000Y-9380000D02*
X8620000Y-9420000D01*
X8620000Y-9380000D02*
X8580000Y-9420000D01*
X8580000Y-9580000D02*
X8620000Y-9620000D01*
X8620000Y-9580000D02*
X8580000Y-9620000D01*
X8580000Y-9780000D02*
X8620000Y-9820000D01*
X8620000Y-9780000D02*
X8580000Y-9820000D01*
X8580000Y-9980000D02*
X8620000Y-10020000D01*
X8620000Y-9980000D02*
X8580000Y-10020000D01*
X8580000Y-15680000D02*
X8620000Y-15720000D01*
X8620000Y-15680000D02*
X8580000Y-15720000D01*
X8580000Y-15880000D02*
X8620000Y-15920000D01*
X8620000Y-15880000D02*
X8580000Y-15920000D01*
X8580000Y-16080000D02*
X8620000Y-16120000D01*
X8620000Y-16080000D02*
X8580000Y-16120000D01*
X8680000Y-3080000D02*
X8720000Y-3120000D01*
X8720000Y-3080000D02*
X8680000Y-3120000D01*
X8680000Y-3280000D02*
X8720000Y-3320000D01*
X8720000Y-3280000D02*
X8680000Y-3320000D01*
X8680000Y-12580000D02*
X8720000Y-12620000D01*
X8720000Y-12580000D02*
X8680000Y-12620000D01*
X8680000Y-12780000D02*
X8720000Y-12820000D01*
X8720000Y-12780000D02*
X8680000Y-12820000D01*
X8680000Y-12980000D02*
X8720000Y-13020000D01*
X8720000Y-12980000D02*
X8680000Y-13020000D01*
X8680000Y-13180000D02*
X8720000Y-13220000D01*
X8720000Y-13180000D02*
X8680000Y-13220000D01*
X8780000Y-7780000D02*
X8820000Y-7820000D01*
X8820000Y-7780000D02*
X8780000Y-7820000D01*
X8780000Y-7980000D02*
X8820000Y-8020000D01*
X8820000Y-7980000D02*
X8780000Y-8020000D01*
X8780000Y-8180000D02*
X8820000Y-8220000D01*
X8820000Y-8180000D02*
X8780000Y-8220000D01*
X8780000Y-8480000D02*
X8820000Y-8520000D01*
X8820000Y-8480000D02*
X8780000Y-8520000D01*
X8780000Y-8680000D02*
X8820000Y-8720000D01*
X8820000Y-8680000D02*
X8780000Y-8720000D01*
X8780000Y-8880000D02*
X8820000Y-8920000D01*
X8820000Y-8880000D02*
X8780000Y-8920000D01*
X8780000Y-9180000D02*
X8820000Y-9220000D01*
X8820000Y-9180000D02*
X8780000Y-9220000D01*
X8780000Y-9380000D02*
X8820000Y-9420000D01*
X8820000Y-9380000D02*
X8780000Y-9420000D01*
X8780000Y-9580000D02*
X8820000Y-9620000D01*
X8820000Y-9580000D02*
X8780000Y-9620000D01*
X8780000Y-9780000D02*
X8820000Y-9820000D01*
X8820000Y-9780000D02*
X8780000Y-9820000D01*
X8780000Y-9980000D02*
X8820000Y-10020000D01*
X8820000Y-9980000D02*
X8780000Y-10020000D01*
X8780000Y-15680000D02*
X8820000Y-15720000D01*
X8820000Y-15680000D02*
X8780000Y-15720000D01*
X8780000Y-15880000D02*
X8820000Y-15920000D01*
X8820000Y-15880000D02*
X8780000Y-15920000D01*
X8780000Y-16080000D02*
X8820000Y-16120000D01*
X8820000Y-16080000D02*
X8780000Y-16120000D01*
X8880000Y-3080000D02*
X8920000Y-3120000D01*
X8920000Y-3080000D02*
X8880000Y-3120000D01*
X8880000Y-3280000D02*
X8920000Y-3320000D01*
X8920000Y-3280000D02*
X8880000Y-3320000D01*
X8880000Y-12580000D02*
X8920000Y-12620000D01*
X8920000Y-12580000D02*
X8880000Y-12620000D01*
X8880000Y-12780000D02*
X8920000Y-12820000D01*
X8920000Y-12780000D02*
X8880000Y-12820000D01*
X8880000Y-12980000D02*
X8920000Y-13020000D01*
X8920000Y-12980000D02*
X8880000Y-13020000D01*
X8880000Y-13180000D02*
X8920000Y-13220000D01*
X8920000Y-13180000D02*
X8880000Y-13220000D01*
X8980000Y-7780000D02*
X9020000Y-7820000D01*
X9020000Y-7780000D02*
X8980000Y-7820000D01*
X8980000Y-7980000D02*
X9020000Y-8020000D01*
X9020000Y-7980000D02*
X8980000Y-8020000D01*
X8980000Y-8180000D02*
X9020000Y-8220000D01*
X9020000Y-8180000D02*
X8980000Y-8220000D01*
X8980000Y-8480000D02*
X9020000Y-8520000D01*
X9020000Y-8480000D02*
X8980000Y-8520000D01*
X8980000Y-8680000D02*
X9020000Y-8720000D01*
X9020000Y-8680000D02*
X8980000Y-8720000D01*
X8980000Y-8880000D02*
X9020000Y-8920000D01*
X9020000Y-8880000D02*
X8980000Y-8920000D01*
X8980000Y-9180000D02*
X9020000Y-9220000D01*
X9020000Y-9180000D02*
X8980000Y-9220000D01*
X8980000Y-9380000D02*
X9020000Y-9420000D01*
X9020000Y-9380000D02*
X8980000Y-9420000D01*
X8980000Y-9580000D02*
X9020000Y-9620000D01*
X9020000Y-9580000D02*
X8980000Y-9620000D01*
X8980000Y-9780000D02*
X9020000Y-9820000D01*
X9020000Y-9780000D02*
X8980000Y-9820000D01*
X8980000Y-9980000D02*
X9020000Y-10020000D01*
X9020000Y-9980000D02*
X8980000Y-10020000D01*
X8980000Y-15680000D02*
X9020000Y-15720000D01*
X9020000Y-15680000D02*
X8980000Y-15720000D01*
X8980000Y-15880000D02*
X9020000Y-15920000D01*
X9020000Y-15880000D02*
X8980000Y-15920000D01*
X8980000Y-16080000D02*
X9020000Y-16120000D01*
X9020000Y-16080000D02*
X8980000Y-16120000D01*
X9030000Y-2920000D02*
X9070000Y-2960000D01*
X9070000Y-2920000D02*
X9030000Y-2960000D01*
X9080000Y-3080000D02*
X9120000Y-3120000D01*
X9120000Y-3080000D02*
X9080000Y-3120000D01*
X9080000Y-3280000D02*
X9120000Y-3320000D01*
X9120000Y-3280000D02*
X9080000Y-3320000D01*
X9080000Y-12580000D02*
X9120000Y-12620000D01*
X9120000Y-12580000D02*
X9080000Y-12620000D01*
X9080000Y-12780000D02*
X9120000Y-12820000D01*
X9120000Y-12780000D02*
X9080000Y-12820000D01*
X9080000Y-12980000D02*
X9120000Y-13020000D01*
X9120000Y-12980000D02*
X9080000Y-13020000D01*
X9080000Y-13180000D02*
X9120000Y-13220000D01*
X9120000Y-13180000D02*
X9080000Y-13220000D01*
X9180000Y-15680000D02*
X9220000Y-15720000D01*
X9220000Y-15680000D02*
X9180000Y-15720000D01*
X9180000Y-15880000D02*
X9220000Y-15920000D01*
X9220000Y-15880000D02*
X9180000Y-15920000D01*
X9180000Y-16080000D02*
X9220000Y-16120000D01*
X9220000Y-16080000D02*
X9180000Y-16120000D01*
X9190000Y-11300000D02*
X9230000Y-11340000D01*
X9230000Y-11300000D02*
X9190000Y-11340000D01*
X9280000Y-3080000D02*
X9320000Y-3120000D01*
X9320000Y-3080000D02*
X9280000Y-3120000D01*
X9280000Y-3280000D02*
X9320000Y-3320000D01*
X9320000Y-3280000D02*
X9280000Y-3320000D01*
X9280000Y-12580000D02*
X9320000Y-12620000D01*
X9320000Y-12580000D02*
X9280000Y-12620000D01*
X9280000Y-12780000D02*
X9320000Y-12820000D01*
X9320000Y-12780000D02*
X9280000Y-12820000D01*
X9280000Y-12980000D02*
X9320000Y-13020000D01*
X9320000Y-12980000D02*
X9280000Y-13020000D01*
X9280000Y-13180000D02*
X9320000Y-13220000D01*
X9320000Y-13180000D02*
X9280000Y-13220000D01*
X9380000Y-15680000D02*
X9420000Y-15720000D01*
X9420000Y-15680000D02*
X9380000Y-15720000D01*
X9380000Y-15880000D02*
X9420000Y-15920000D01*
X9420000Y-15880000D02*
X9380000Y-15920000D01*
X9380000Y-16080000D02*
X9420000Y-16120000D01*
X9420000Y-16080000D02*
X9380000Y-16120000D01*
X9440000Y-12350000D02*
X9480000Y-12390000D01*
X9480000Y-12350000D02*
X9440000Y-12390000D01*
X9480000Y-3080000D02*
X9520000Y-3120000D01*
X9520000Y-3080000D02*
X9480000Y-3120000D01*
X9480000Y-3280000D02*
X9520000Y-3320000D01*
X9520000Y-3280000D02*
X9480000Y-3320000D01*
X9580000Y-12040000D02*
X9620000Y-12080000D01*
X9620000Y-12040000D02*
X9580000Y-12080000D01*
X9580000Y-15680000D02*
X9620000Y-15720000D01*
X9620000Y-15680000D02*
X9580000Y-15720000D01*
X9580000Y-15880000D02*
X9620000Y-15920000D01*
X9620000Y-15880000D02*
X9580000Y-15920000D01*
X9580000Y-16080000D02*
X9620000Y-16120000D01*
X9620000Y-16080000D02*
X9580000Y-16120000D01*
X9636000Y-12287000D02*
X9676000Y-12327000D01*
X9676000Y-12287000D02*
X9636000Y-12327000D01*
X9680000Y-3080000D02*
X9720000Y-3120000D01*
X9720000Y-3080000D02*
X9680000Y-3120000D01*
X9680000Y-3280000D02*
X9720000Y-3320000D01*
X9720000Y-3280000D02*
X9680000Y-3320000D01*
X9780000Y-15680000D02*
X9820000Y-15720000D01*
X9820000Y-15680000D02*
X9780000Y-15720000D01*
X9780000Y-15880000D02*
X9820000Y-15920000D01*
X9820000Y-15880000D02*
X9780000Y-15920000D01*
X9780000Y-16080000D02*
X9820000Y-16120000D01*
X9820000Y-16080000D02*
X9780000Y-16120000D01*
X9880000Y-3080000D02*
X9920000Y-3120000D01*
X9920000Y-3080000D02*
X9880000Y-3120000D01*
X9880000Y-3280000D02*
X9920000Y-3320000D01*
X9920000Y-3280000D02*
X9880000Y-3320000D01*
X9980000Y-12380000D02*
X10020000Y-12420000D01*
X10020000Y-12380000D02*
X9980000Y-12420000D01*
X9980000Y-12580000D02*
X10020000Y-12620000D01*
X10020000Y-12580000D02*
X9980000Y-12620000D01*
X9980000Y-12780000D02*
X10020000Y-12820000D01*
X10020000Y-12780000D02*
X9980000Y-12820000D01*
X9980000Y-12980000D02*
X10020000Y-13020000D01*
X10020000Y-12980000D02*
X9980000Y-13020000D01*
X9980000Y-13180000D02*
X10020000Y-13220000D01*
X10020000Y-13180000D02*
X9980000Y-13220000D01*
X9980000Y-15680000D02*
X10020000Y-15720000D01*
X10020000Y-15680000D02*
X9980000Y-15720000D01*
X9980000Y-15880000D02*
X10020000Y-15920000D01*
X10020000Y-15880000D02*
X9980000Y-15920000D01*
X9980000Y-16080000D02*
X10020000Y-16120000D01*
X10020000Y-16080000D02*
X9980000Y-16120000D01*
X10080000Y-3080000D02*
X10120000Y-3120000D01*
X10120000Y-3080000D02*
X10080000Y-3120000D01*
X10080000Y-3280000D02*
X10120000Y-3320000D01*
X10120000Y-3280000D02*
X10080000Y-3320000D01*
X10180000Y-12380000D02*
X10220000Y-12420000D01*
X10220000Y-12380000D02*
X10180000Y-12420000D01*
X10180000Y-12580000D02*
X10220000Y-12620000D01*
X10220000Y-12580000D02*
X10180000Y-12620000D01*
X10180000Y-12780000D02*
X10220000Y-12820000D01*
X10220000Y-12780000D02*
X10180000Y-12820000D01*
X10180000Y-12980000D02*
X10220000Y-13020000D01*
X10220000Y-12980000D02*
X10180000Y-13020000D01*
X10180000Y-13180000D02*
X10220000Y-13220000D01*
X10220000Y-13180000D02*
X10180000Y-13220000D01*
X10180000Y-15880000D02*
X10220000Y-15920000D01*
X10220000Y-15880000D02*
X10180000Y-15920000D01*
X10180000Y-16080000D02*
X10220000Y-16120000D01*
X10220000Y-16080000D02*
X10180000Y-16120000D01*
X10280000Y-3080000D02*
X10320000Y-3120000D01*
X10320000Y-3080000D02*
X10280000Y-3120000D01*
X10280000Y-3280000D02*
X10320000Y-3320000D01*
X10320000Y-3280000D02*
X10280000Y-3320000D01*
X10380000Y-12380000D02*
X10420000Y-12420000D01*
X10420000Y-12380000D02*
X10380000Y-12420000D01*
X10380000Y-12580000D02*
X10420000Y-12620000D01*
X10420000Y-12580000D02*
X10380000Y-12620000D01*
X10380000Y-12780000D02*
X10420000Y-12820000D01*
X10420000Y-12780000D02*
X10380000Y-12820000D01*
X10380000Y-12980000D02*
X10420000Y-13020000D01*
X10420000Y-12980000D02*
X10380000Y-13020000D01*
X10380000Y-13180000D02*
X10420000Y-13220000D01*
X10420000Y-13180000D02*
X10380000Y-13220000D01*
X10380000Y-16080000D02*
X10420000Y-16120000D01*
X10420000Y-16080000D02*
X10380000Y-16120000D01*
X10480000Y-3080000D02*
X10520000Y-3120000D01*
X10520000Y-3080000D02*
X10480000Y-3120000D01*
X10480000Y-3280000D02*
X10520000Y-3320000D01*
X10520000Y-3280000D02*
X10480000Y-3320000D01*
X10580000Y-12380000D02*
X10620000Y-12420000D01*
X10620000Y-12380000D02*
X10580000Y-12420000D01*
X10580000Y-12580000D02*
X10620000Y-12620000D01*
X10620000Y-12580000D02*
X10580000Y-12620000D01*
X10580000Y-12780000D02*
X10620000Y-12820000D01*
X10620000Y-12780000D02*
X10580000Y-12820000D01*
X10580000Y-12980000D02*
X10620000Y-13020000D01*
X10620000Y-12980000D02*
X10580000Y-13020000D01*
X10580000Y-13180000D02*
X10620000Y-13220000D01*
X10620000Y-13180000D02*
X10580000Y-13220000D01*
X10680000Y-3080000D02*
X10720000Y-3120000D01*
X10720000Y-3080000D02*
X10680000Y-3120000D01*
X10780000Y-12380000D02*
X10820000Y-12420000D01*
X10820000Y-12380000D02*
X10780000Y-12420000D01*
X10780000Y-12580000D02*
X10820000Y-12620000D01*
X10820000Y-12580000D02*
X10780000Y-12620000D01*
X10780000Y-12780000D02*
X10820000Y-12820000D01*
X10820000Y-12780000D02*
X10780000Y-12820000D01*
X10780000Y-12980000D02*
X10820000Y-13020000D01*
X10820000Y-12980000D02*
X10780000Y-13020000D01*
X10780000Y-13180000D02*
X10820000Y-13220000D01*
X10820000Y-13180000D02*
X10780000Y-13220000D01*
X10880000Y-3080000D02*
X10920000Y-3120000D01*
X10920000Y-3080000D02*
X10880000Y-3120000D01*
X10980000Y-12380000D02*
X11020000Y-12420000D01*
X11020000Y-12380000D02*
X10980000Y-12420000D01*
X10980000Y-12580000D02*
X11020000Y-12620000D01*
X11020000Y-12580000D02*
X10980000Y-12620000D01*
X10980000Y-12780000D02*
X11020000Y-12820000D01*
X11020000Y-12780000D02*
X10980000Y-12820000D01*
X10980000Y-12980000D02*
X11020000Y-13020000D01*
X11020000Y-12980000D02*
X10980000Y-13020000D01*
X10980000Y-13180000D02*
X11020000Y-13220000D01*
X11020000Y-13180000D02*
X10980000Y-13220000D01*
X11080000Y-3080000D02*
X11120000Y-3120000D01*
X11120000Y-3080000D02*
X11080000Y-3120000D01*
X11080000Y-3280000D02*
X11120000Y-3320000D01*
X11120000Y-3280000D02*
X11080000Y-3320000D01*
X11280000Y-3080000D02*
X11320000Y-3120000D01*
X11320000Y-3080000D02*
X11280000Y-3120000D01*
X11280000Y-3280000D02*
X11320000Y-3320000D01*
X11320000Y-3280000D02*
X11280000Y-3320000D01*
X11340000Y-12050000D02*
X11380000Y-12090000D01*
X11380000Y-12050000D02*
X11340000Y-12090000D01*
X11340000Y-12542000D02*
X11380000Y-12582000D01*
X11380000Y-12542000D02*
X11340000Y-12582000D01*
X11430000Y-6640000D02*
X11470000Y-6680000D01*
X11470000Y-6640000D02*
X11430000Y-6680000D01*
X11430000Y-10240000D02*
X11470000Y-10280000D01*
X11470000Y-10240000D02*
X11430000Y-10280000D01*
X11480000Y-3080000D02*
X11520000Y-3120000D01*
X11520000Y-3080000D02*
X11480000Y-3120000D01*
X11480000Y-3280000D02*
X11520000Y-3320000D01*
X11520000Y-3280000D02*
X11480000Y-3320000D01*
X11680000Y-3080000D02*
X11720000Y-3120000D01*
X11720000Y-3080000D02*
X11680000Y-3120000D01*
X11680000Y-3280000D02*
X11720000Y-3320000D01*
X11720000Y-3280000D02*
X11680000Y-3320000D01*
X11850000Y-4780000D02*
X11890000Y-4820000D01*
X11890000Y-4780000D02*
X11850000Y-4820000D01*
X11880000Y-3080000D02*
X11920000Y-3120000D01*
X11920000Y-3080000D02*
X11880000Y-3120000D01*
X11880000Y-3280000D02*
X11920000Y-3320000D01*
X11920000Y-3280000D02*
X11880000Y-3320000D01*
X11950000Y-12040000D02*
X11990000Y-12080000D01*
X11990000Y-12040000D02*
X11950000Y-12080000D01*
X11970000Y-4850000D02*
X12010000Y-4890000D01*
X12010000Y-4850000D02*
X11970000Y-4890000D01*
X11970000Y-6660000D02*
X12010000Y-6700000D01*
X12010000Y-6660000D02*
X11970000Y-6700000D01*
X11970000Y-10640000D02*
X12010000Y-10680000D01*
X12010000Y-10640000D02*
X11970000Y-10680000D01*
X12010000Y-11532000D02*
X12050000Y-11572000D01*
X12050000Y-11532000D02*
X12010000Y-11572000D01*
X12080000Y-3080000D02*
X12120000Y-3120000D01*
X12120000Y-3080000D02*
X12080000Y-3120000D01*
X12080000Y-3280000D02*
X12120000Y-3320000D01*
X12120000Y-3280000D02*
X12080000Y-3320000D01*
X12080000Y-4980000D02*
X12120000Y-5020000D01*
X12120000Y-4980000D02*
X12080000Y-5020000D01*
X12080000Y-5180000D02*
X12120000Y-5220000D01*
X12120000Y-5180000D02*
X12080000Y-5220000D01*
X12080000Y-5380000D02*
X12120000Y-5420000D01*
X12120000Y-5380000D02*
X12080000Y-5420000D01*
X12080000Y-5580000D02*
X12120000Y-5620000D01*
X12120000Y-5580000D02*
X12080000Y-5620000D01*
X12170000Y-6660000D02*
X12210000Y-6700000D01*
X12210000Y-6660000D02*
X12170000Y-6700000D01*
X12170000Y-10850000D02*
X12210000Y-10890000D01*
X12210000Y-10850000D02*
X12170000Y-10890000D01*
X12170000Y-11820000D02*
X12210000Y-11860000D01*
X12210000Y-11820000D02*
X12170000Y-11860000D01*
X12170000Y-12050000D02*
X12210000Y-12090000D01*
X12210000Y-12050000D02*
X12170000Y-12090000D01*
X12280000Y-3080000D02*
X12320000Y-3120000D01*
X12320000Y-3080000D02*
X12280000Y-3120000D01*
X12280000Y-3280000D02*
X12320000Y-3320000D01*
X12320000Y-3280000D02*
X12280000Y-3320000D01*
X12280000Y-4980000D02*
X12320000Y-5020000D01*
X12320000Y-4980000D02*
X12280000Y-5020000D01*
X12280000Y-5180000D02*
X12320000Y-5220000D01*
X12320000Y-5180000D02*
X12280000Y-5220000D01*
X12280000Y-5380000D02*
X12320000Y-5420000D01*
X12320000Y-5380000D02*
X12280000Y-5420000D01*
X12280000Y-5580000D02*
X12320000Y-5620000D01*
X12320000Y-5580000D02*
X12280000Y-5620000D01*
X12290000Y-6660000D02*
X12330000Y-6700000D01*
X12330000Y-6660000D02*
X12290000Y-6700000D01*
X12290000Y-11000000D02*
X12330000Y-11040000D01*
X12330000Y-11000000D02*
X12290000Y-11040000D01*
X12290000Y-11810000D02*
X12330000Y-11850000D01*
X12330000Y-11810000D02*
X12290000Y-11850000D01*
X12290000Y-12070000D02*
X12330000Y-12110000D01*
X12330000Y-12070000D02*
X12290000Y-12110000D01*
X12470000Y-11190000D02*
X12510000Y-11230000D01*
X12510000Y-11190000D02*
X12470000Y-11230000D01*
X12470000Y-11800000D02*
X12510000Y-11840000D01*
X12510000Y-11800000D02*
X12470000Y-11840000D01*
X12470000Y-12050000D02*
X12510000Y-12090000D01*
X12510000Y-12050000D02*
X12470000Y-12090000D01*
X12471000Y-7785000D02*
X12511000Y-7825000D01*
X12511000Y-7785000D02*
X12471000Y-7825000D01*
X12480000Y-3080000D02*
X12520000Y-3120000D01*
X12520000Y-3080000D02*
X12480000Y-3120000D01*
X12480000Y-3280000D02*
X12520000Y-3320000D01*
X12520000Y-3280000D02*
X12480000Y-3320000D01*
X12480000Y-4780000D02*
X12520000Y-4820000D01*
X12520000Y-4780000D02*
X12480000Y-4820000D01*
X12480000Y-4980000D02*
X12520000Y-5020000D01*
X12520000Y-4980000D02*
X12480000Y-5020000D01*
X12480000Y-5180000D02*
X12520000Y-5220000D01*
X12520000Y-5180000D02*
X12480000Y-5220000D01*
X12480000Y-5380000D02*
X12520000Y-5420000D01*
X12520000Y-5380000D02*
X12480000Y-5420000D01*
X12480000Y-5580000D02*
X12520000Y-5620000D01*
X12520000Y-5580000D02*
X12480000Y-5620000D01*
X12480000Y-13980000D02*
X12520000Y-14020000D01*
X12520000Y-13980000D02*
X12480000Y-14020000D01*
X12580000Y-6280000D02*
X12620000Y-6320000D01*
X12620000Y-6280000D02*
X12580000Y-6320000D01*
X12580000Y-6480000D02*
X12620000Y-6520000D01*
X12620000Y-6480000D02*
X12580000Y-6520000D01*
X12650000Y-11320000D02*
X12690000Y-11360000D01*
X12690000Y-11320000D02*
X12650000Y-11360000D01*
X12650000Y-11800000D02*
X12690000Y-11840000D01*
X12690000Y-11800000D02*
X12650000Y-11840000D01*
X12650000Y-12060000D02*
X12690000Y-12100000D01*
X12690000Y-12060000D02*
X12650000Y-12100000D01*
X12654000Y-7828000D02*
X12694000Y-7868000D01*
X12694000Y-7828000D02*
X12654000Y-7868000D01*
X12680000Y-3080000D02*
X12720000Y-3120000D01*
X12720000Y-3080000D02*
X12680000Y-3120000D01*
X12680000Y-3280000D02*
X12720000Y-3320000D01*
X12720000Y-3280000D02*
X12680000Y-3320000D01*
X12680000Y-4780000D02*
X12720000Y-4820000D01*
X12720000Y-4780000D02*
X12680000Y-4820000D01*
X12680000Y-4980000D02*
X12720000Y-5020000D01*
X12720000Y-4980000D02*
X12680000Y-5020000D01*
X12680000Y-5180000D02*
X12720000Y-5220000D01*
X12720000Y-5180000D02*
X12680000Y-5220000D01*
X12680000Y-5380000D02*
X12720000Y-5420000D01*
X12720000Y-5380000D02*
X12680000Y-5420000D01*
X12680000Y-13780000D02*
X12720000Y-13820000D01*
X12720000Y-13780000D02*
X12680000Y-13820000D01*
X12680000Y-13980000D02*
X12720000Y-14020000D01*
X12720000Y-13980000D02*
X12680000Y-14020000D01*
X12780000Y-6080000D02*
X12820000Y-6120000D01*
X12820000Y-6080000D02*
X12780000Y-6120000D01*
X12780000Y-6280000D02*
X12820000Y-6320000D01*
X12820000Y-6280000D02*
X12780000Y-6320000D01*
X12780000Y-6480000D02*
X12820000Y-6520000D01*
X12820000Y-6480000D02*
X12780000Y-6520000D01*
X12800000Y-3730000D02*
X12840000Y-3770000D01*
X12840000Y-3730000D02*
X12800000Y-3770000D01*
X12810000Y-3440000D02*
X12850000Y-3480000D01*
X12850000Y-3440000D02*
X12810000Y-3480000D01*
X12880000Y-3080000D02*
X12920000Y-3120000D01*
X12920000Y-3080000D02*
X12880000Y-3120000D01*
X12880000Y-3280000D02*
X12920000Y-3320000D01*
X12920000Y-3280000D02*
X12880000Y-3320000D01*
X12880000Y-4780000D02*
X12920000Y-4820000D01*
X12920000Y-4780000D02*
X12880000Y-4820000D01*
X12880000Y-4980000D02*
X12920000Y-5020000D01*
X12920000Y-4980000D02*
X12880000Y-5020000D01*
X12880000Y-12380000D02*
X12920000Y-12420000D01*
X12920000Y-12380000D02*
X12880000Y-12420000D01*
X12880000Y-12580000D02*
X12920000Y-12620000D01*
X12920000Y-12580000D02*
X12880000Y-12620000D01*
X12880000Y-12780000D02*
X12920000Y-12820000D01*
X12920000Y-12780000D02*
X12880000Y-12820000D01*
X12880000Y-12980000D02*
X12920000Y-13020000D01*
X12920000Y-12980000D02*
X12880000Y-13020000D01*
X12880000Y-13180000D02*
X12920000Y-13220000D01*
X12920000Y-13180000D02*
X12880000Y-13220000D01*
X12880000Y-13380000D02*
X12920000Y-13420000D01*
X12920000Y-13380000D02*
X12880000Y-13420000D01*
X12880000Y-13580000D02*
X12920000Y-13620000D01*
X12920000Y-13580000D02*
X12880000Y-13620000D01*
X12880000Y-13780000D02*
X12920000Y-13820000D01*
X12920000Y-13780000D02*
X12880000Y-13820000D01*
X12880000Y-13980000D02*
X12920000Y-14020000D01*
X12920000Y-13980000D02*
X12880000Y-14020000D01*
X12980000Y-5880000D02*
X13020000Y-5920000D01*
X13020000Y-5880000D02*
X12980000Y-5920000D01*
X12980000Y-6080000D02*
X13020000Y-6120000D01*
X13020000Y-6080000D02*
X12980000Y-6120000D01*
X12980000Y-6280000D02*
X13020000Y-6320000D01*
X13020000Y-6280000D02*
X12980000Y-6320000D01*
X12980000Y-6480000D02*
X13020000Y-6520000D01*
X13020000Y-6480000D02*
X12980000Y-6520000D01*
X12980000Y-8580000D02*
X13020000Y-8620000D01*
X13020000Y-8580000D02*
X12980000Y-8620000D01*
X12980000Y-8780000D02*
X13020000Y-8820000D01*
X13020000Y-8780000D02*
X12980000Y-8820000D01*
X12980000Y-8980000D02*
X13020000Y-9020000D01*
X13020000Y-8980000D02*
X12980000Y-9020000D01*
X13060000Y-3800000D02*
X13100000Y-3840000D01*
X13100000Y-3800000D02*
X13060000Y-3840000D01*
X13080000Y-3080000D02*
X13120000Y-3120000D01*
X13120000Y-3080000D02*
X13080000Y-3120000D01*
X13080000Y-3280000D02*
X13120000Y-3320000D01*
X13120000Y-3280000D02*
X13080000Y-3320000D01*
X13080000Y-4780000D02*
X13120000Y-4820000D01*
X13120000Y-4780000D02*
X13080000Y-4820000D01*
X13080000Y-4980000D02*
X13120000Y-5020000D01*
X13120000Y-4980000D02*
X13080000Y-5020000D01*
X13080000Y-12380000D02*
X13120000Y-12420000D01*
X13120000Y-12380000D02*
X13080000Y-12420000D01*
X13080000Y-12580000D02*
X13120000Y-12620000D01*
X13120000Y-12580000D02*
X13080000Y-12620000D01*
X13080000Y-12780000D02*
X13120000Y-12820000D01*
X13120000Y-12780000D02*
X13080000Y-12820000D01*
X13080000Y-12980000D02*
X13120000Y-13020000D01*
X13120000Y-12980000D02*
X13080000Y-13020000D01*
X13080000Y-13180000D02*
X13120000Y-13220000D01*
X13120000Y-13180000D02*
X13080000Y-13220000D01*
X13080000Y-13380000D02*
X13120000Y-13420000D01*
X13120000Y-13380000D02*
X13080000Y-13420000D01*
X13080000Y-13580000D02*
X13120000Y-13620000D01*
X13120000Y-13580000D02*
X13080000Y-13620000D01*
X13080000Y-13780000D02*
X13120000Y-13820000D01*
X13120000Y-13780000D02*
X13080000Y-13820000D01*
X13080000Y-13980000D02*
X13120000Y-14020000D01*
X13120000Y-13980000D02*
X13080000Y-14020000D01*
X13130000Y-11920000D02*
X13170000Y-11960000D01*
X13170000Y-11920000D02*
X13130000Y-11960000D01*
X13180000Y-5680000D02*
X13220000Y-5720000D01*
X13220000Y-5680000D02*
X13180000Y-5720000D01*
X13180000Y-5880000D02*
X13220000Y-5920000D01*
X13220000Y-5880000D02*
X13180000Y-5920000D01*
X13180000Y-6080000D02*
X13220000Y-6120000D01*
X13220000Y-6080000D02*
X13180000Y-6120000D01*
X13180000Y-6280000D02*
X13220000Y-6320000D01*
X13220000Y-6280000D02*
X13180000Y-6320000D01*
X13180000Y-6480000D02*
X13220000Y-6520000D01*
X13220000Y-6480000D02*
X13180000Y-6520000D01*
X13180000Y-8580000D02*
X13220000Y-8620000D01*
X13220000Y-8580000D02*
X13180000Y-8620000D01*
X13180000Y-8780000D02*
X13220000Y-8820000D01*
X13220000Y-8780000D02*
X13180000Y-8820000D01*
X13180000Y-8980000D02*
X13220000Y-9020000D01*
X13220000Y-8980000D02*
X13180000Y-9020000D01*
X13180000Y-9180000D02*
X13220000Y-9220000D01*
X13220000Y-9180000D02*
X13180000Y-9220000D01*
X13280000Y-4780000D02*
X13320000Y-4820000D01*
X13320000Y-4780000D02*
X13280000Y-4820000D01*
X13280000Y-4980000D02*
X13320000Y-5020000D01*
X13320000Y-4980000D02*
X13280000Y-5020000D01*
X13280000Y-12380000D02*
X13320000Y-12420000D01*
X13320000Y-12380000D02*
X13280000Y-12420000D01*
X13280000Y-12580000D02*
X13320000Y-12620000D01*
X13320000Y-12580000D02*
X13280000Y-12620000D01*
X13280000Y-12780000D02*
X13320000Y-12820000D01*
X13320000Y-12780000D02*
X13280000Y-12820000D01*
X13280000Y-12980000D02*
X13320000Y-13020000D01*
X13320000Y-12980000D02*
X13280000Y-13020000D01*
X13280000Y-13180000D02*
X13320000Y-13220000D01*
X13320000Y-13180000D02*
X13280000Y-13220000D01*
X13280000Y-13380000D02*
X13320000Y-13420000D01*
X13320000Y-13380000D02*
X13280000Y-13420000D01*
X13280000Y-13580000D02*
X13320000Y-13620000D01*
X13320000Y-13580000D02*
X13280000Y-13620000D01*
X13280000Y-13780000D02*
X13320000Y-13820000D01*
X13320000Y-13780000D02*
X13280000Y-13820000D01*
X13280000Y-13980000D02*
X13320000Y-14020000D01*
X13320000Y-13980000D02*
X13280000Y-14020000D01*
X13380000Y-5680000D02*
X13420000Y-5720000D01*
X13420000Y-5680000D02*
X13380000Y-5720000D01*
X13380000Y-5880000D02*
X13420000Y-5920000D01*
X13420000Y-5880000D02*
X13380000Y-5920000D01*
X13380000Y-6080000D02*
X13420000Y-6120000D01*
X13420000Y-6080000D02*
X13380000Y-6120000D01*
X13380000Y-6280000D02*
X13420000Y-6320000D01*
X13420000Y-6280000D02*
X13380000Y-6320000D01*
X13380000Y-6480000D02*
X13420000Y-6520000D01*
X13420000Y-6480000D02*
X13380000Y-6520000D01*
X13380000Y-8580000D02*
X13420000Y-8620000D01*
X13420000Y-8580000D02*
X13380000Y-8620000D01*
X13380000Y-8780000D02*
X13420000Y-8820000D01*
X13420000Y-8780000D02*
X13380000Y-8820000D01*
X13380000Y-8980000D02*
X13420000Y-9020000D01*
X13420000Y-8980000D02*
X13380000Y-9020000D01*
X13380000Y-9180000D02*
X13420000Y-9220000D01*
X13420000Y-9180000D02*
X13380000Y-9220000D01*
X13380000Y-9380000D02*
X13420000Y-9420000D01*
X13420000Y-9380000D02*
X13380000Y-9420000D01*
X13470000Y-3680000D02*
X13510000Y-3720000D01*
X13510000Y-3680000D02*
X13470000Y-3720000D01*
X13480000Y-4780000D02*
X13520000Y-4820000D01*
X13520000Y-4780000D02*
X13480000Y-4820000D01*
X13480000Y-4980000D02*
X13520000Y-5020000D01*
X13520000Y-4980000D02*
X13480000Y-5020000D01*
X13480000Y-12380000D02*
X13520000Y-12420000D01*
X13520000Y-12380000D02*
X13480000Y-12420000D01*
X13480000Y-12580000D02*
X13520000Y-12620000D01*
X13520000Y-12580000D02*
X13480000Y-12620000D01*
X13480000Y-12780000D02*
X13520000Y-12820000D01*
X13520000Y-12780000D02*
X13480000Y-12820000D01*
X13480000Y-12980000D02*
X13520000Y-13020000D01*
X13520000Y-12980000D02*
X13480000Y-13020000D01*
X13480000Y-13180000D02*
X13520000Y-13220000D01*
X13520000Y-13180000D02*
X13480000Y-13220000D01*
X13480000Y-13380000D02*
X13520000Y-13420000D01*
X13520000Y-13380000D02*
X13480000Y-13420000D01*
X13480000Y-13580000D02*
X13520000Y-13620000D01*
X13520000Y-13580000D02*
X13480000Y-13620000D01*
X13480000Y-13780000D02*
X13520000Y-13820000D01*
X13520000Y-13780000D02*
X13480000Y-13820000D01*
X13480000Y-13980000D02*
X13520000Y-14020000D01*
X13520000Y-13980000D02*
X13480000Y-14020000D01*
X13580000Y-5680000D02*
X13620000Y-5720000D01*
X13620000Y-5680000D02*
X13580000Y-5720000D01*
X13580000Y-5880000D02*
X13620000Y-5920000D01*
X13620000Y-5880000D02*
X13580000Y-5920000D01*
X13580000Y-6080000D02*
X13620000Y-6120000D01*
X13620000Y-6080000D02*
X13580000Y-6120000D01*
X13580000Y-6280000D02*
X13620000Y-6320000D01*
X13620000Y-6280000D02*
X13580000Y-6320000D01*
X13580000Y-6480000D02*
X13620000Y-6520000D01*
X13620000Y-6480000D02*
X13580000Y-6520000D01*
X13580000Y-8580000D02*
X13620000Y-8620000D01*
X13620000Y-8580000D02*
X13580000Y-8620000D01*
X13580000Y-8780000D02*
X13620000Y-8820000D01*
X13620000Y-8780000D02*
X13580000Y-8820000D01*
X13580000Y-8980000D02*
X13620000Y-9020000D01*
X13620000Y-8980000D02*
X13580000Y-9020000D01*
X13580000Y-9180000D02*
X13620000Y-9220000D01*
X13620000Y-9180000D02*
X13580000Y-9220000D01*
X13580000Y-9380000D02*
X13620000Y-9420000D01*
X13620000Y-9380000D02*
X13580000Y-9420000D01*
X13580000Y-9580000D02*
X13620000Y-9620000D01*
X13620000Y-9580000D02*
X13580000Y-9620000D01*
X13600000Y-14470000D02*
X13640000Y-14510000D01*
X13640000Y-14470000D02*
X13600000Y-14510000D01*
X13680000Y-4780000D02*
X13720000Y-4820000D01*
X13720000Y-4780000D02*
X13680000Y-4820000D01*
X13680000Y-4980000D02*
X13720000Y-5020000D01*
X13720000Y-4980000D02*
X13680000Y-5020000D01*
X13680000Y-12580000D02*
X13720000Y-12620000D01*
X13720000Y-12580000D02*
X13680000Y-12620000D01*
X13680000Y-12780000D02*
X13720000Y-12820000D01*
X13720000Y-12780000D02*
X13680000Y-12820000D01*
X13680000Y-12980000D02*
X13720000Y-13020000D01*
X13720000Y-12980000D02*
X13680000Y-13020000D01*
X13680000Y-13180000D02*
X13720000Y-13220000D01*
X13720000Y-13180000D02*
X13680000Y-13220000D01*
X13680000Y-13380000D02*
X13720000Y-13420000D01*
X13720000Y-13380000D02*
X13680000Y-13420000D01*
X13680000Y-13580000D02*
X13720000Y-13620000D01*
X13720000Y-13580000D02*
X13680000Y-13620000D01*
X13680000Y-13780000D02*
X13720000Y-13820000D01*
X13720000Y-13780000D02*
X13680000Y-13820000D01*
X13680000Y-13980000D02*
X13720000Y-14020000D01*
X13720000Y-13980000D02*
X13680000Y-14020000D01*
X13780000Y-5680000D02*
X13820000Y-5720000D01*
X13820000Y-5680000D02*
X13780000Y-5720000D01*
X13780000Y-5880000D02*
X13820000Y-5920000D01*
X13820000Y-5880000D02*
X13780000Y-5920000D01*
X13780000Y-6080000D02*
X13820000Y-6120000D01*
X13820000Y-6080000D02*
X13780000Y-6120000D01*
X13780000Y-6280000D02*
X13820000Y-6320000D01*
X13820000Y-6280000D02*
X13780000Y-6320000D01*
X13780000Y-6480000D02*
X13820000Y-6520000D01*
X13820000Y-6480000D02*
X13780000Y-6520000D01*
X13780000Y-8580000D02*
X13820000Y-8620000D01*
X13820000Y-8580000D02*
X13780000Y-8620000D01*
X13780000Y-8780000D02*
X13820000Y-8820000D01*
X13820000Y-8780000D02*
X13780000Y-8820000D01*
X13780000Y-8980000D02*
X13820000Y-9020000D01*
X13820000Y-8980000D02*
X13780000Y-9020000D01*
X13780000Y-9180000D02*
X13820000Y-9220000D01*
X13820000Y-9180000D02*
X13780000Y-9220000D01*
X13780000Y-9380000D02*
X13820000Y-9420000D01*
X13820000Y-9380000D02*
X13780000Y-9420000D01*
X13780000Y-9580000D02*
X13820000Y-9620000D01*
X13820000Y-9580000D02*
X13780000Y-9620000D01*
X13780000Y-15080000D02*
X13820000Y-15120000D01*
X13820000Y-15080000D02*
X13780000Y-15120000D01*
X13880000Y-4780000D02*
X13920000Y-4820000D01*
X13920000Y-4780000D02*
X13880000Y-4820000D01*
X13880000Y-4980000D02*
X13920000Y-5020000D01*
X13920000Y-4980000D02*
X13880000Y-5020000D01*
X13880000Y-12780000D02*
X13920000Y-12820000D01*
X13920000Y-12780000D02*
X13880000Y-12820000D01*
X13880000Y-12980000D02*
X13920000Y-13020000D01*
X13920000Y-12980000D02*
X13880000Y-13020000D01*
X13880000Y-13180000D02*
X13920000Y-13220000D01*
X13920000Y-13180000D02*
X13880000Y-13220000D01*
X13880000Y-13380000D02*
X13920000Y-13420000D01*
X13920000Y-13380000D02*
X13880000Y-13420000D01*
X13880000Y-13580000D02*
X13920000Y-13620000D01*
X13920000Y-13580000D02*
X13880000Y-13620000D01*
X13880000Y-13780000D02*
X13920000Y-13820000D01*
X13920000Y-13780000D02*
X13880000Y-13820000D01*
X13880000Y-13980000D02*
X13920000Y-14020000D01*
X13920000Y-13980000D02*
X13880000Y-14020000D01*
X13980000Y-5680000D02*
X14020000Y-5720000D01*
X14020000Y-5680000D02*
X13980000Y-5720000D01*
X13980000Y-5880000D02*
X14020000Y-5920000D01*
X14020000Y-5880000D02*
X13980000Y-5920000D01*
X13980000Y-6080000D02*
X14020000Y-6120000D01*
X14020000Y-6080000D02*
X13980000Y-6120000D01*
X13980000Y-6280000D02*
X14020000Y-6320000D01*
X14020000Y-6280000D02*
X13980000Y-6320000D01*
X13980000Y-6480000D02*
X14020000Y-6520000D01*
X14020000Y-6480000D02*
X13980000Y-6520000D01*
X13980000Y-8580000D02*
X14020000Y-8620000D01*
X14020000Y-8580000D02*
X13980000Y-8620000D01*
X13980000Y-8780000D02*
X14020000Y-8820000D01*
X14020000Y-8780000D02*
X13980000Y-8820000D01*
X13980000Y-8980000D02*
X14020000Y-9020000D01*
X14020000Y-8980000D02*
X13980000Y-9020000D01*
X13980000Y-9180000D02*
X14020000Y-9220000D01*
X14020000Y-9180000D02*
X13980000Y-9220000D01*
X13980000Y-9380000D02*
X14020000Y-9420000D01*
X14020000Y-9380000D02*
X13980000Y-9420000D01*
X13980000Y-9580000D02*
X14020000Y-9620000D01*
X14020000Y-9580000D02*
X13980000Y-9620000D01*
X13980000Y-14880000D02*
X14020000Y-14920000D01*
X14020000Y-14880000D02*
X13980000Y-14920000D01*
X13980000Y-15080000D02*
X14020000Y-15120000D01*
X14020000Y-15080000D02*
X13980000Y-15120000D01*
X14050000Y-14400000D02*
X14090000Y-14440000D01*
X14090000Y-14400000D02*
X14050000Y-14440000D01*
X14080000Y-4780000D02*
X14120000Y-4820000D01*
X14120000Y-4780000D02*
X14080000Y-4820000D01*
X14080000Y-4980000D02*
X14120000Y-5020000D01*
X14120000Y-4980000D02*
X14080000Y-5020000D01*
X14080000Y-12980000D02*
X14120000Y-13020000D01*
X14120000Y-12980000D02*
X14080000Y-13020000D01*
X14080000Y-13180000D02*
X14120000Y-13220000D01*
X14120000Y-13180000D02*
X14080000Y-13220000D01*
X14080000Y-13380000D02*
X14120000Y-13420000D01*
X14120000Y-13380000D02*
X14080000Y-13420000D01*
X14080000Y-13580000D02*
X14120000Y-13620000D01*
X14120000Y-13580000D02*
X14080000Y-13620000D01*
X14080000Y-13780000D02*
X14120000Y-13820000D01*
X14120000Y-13780000D02*
X14080000Y-13820000D01*
X14180000Y-5680000D02*
X14220000Y-5720000D01*
X14220000Y-5680000D02*
X14180000Y-5720000D01*
X14180000Y-5880000D02*
X14220000Y-5920000D01*
X14220000Y-5880000D02*
X14180000Y-5920000D01*
X14180000Y-6080000D02*
X14220000Y-6120000D01*
X14220000Y-6080000D02*
X14180000Y-6120000D01*
X14180000Y-6280000D02*
X14220000Y-6320000D01*
X14220000Y-6280000D02*
X14180000Y-6320000D01*
X14180000Y-6480000D02*
X14220000Y-6520000D01*
X14220000Y-6480000D02*
X14180000Y-6520000D01*
X14180000Y-8580000D02*
X14220000Y-8620000D01*
X14220000Y-8580000D02*
X14180000Y-8620000D01*
X14180000Y-8780000D02*
X14220000Y-8820000D01*
X14220000Y-8780000D02*
X14180000Y-8820000D01*
X14180000Y-8980000D02*
X14220000Y-9020000D01*
X14220000Y-8980000D02*
X14180000Y-9020000D01*
X14180000Y-9180000D02*
X14220000Y-9220000D01*
X14220000Y-9180000D02*
X14180000Y-9220000D01*
X14180000Y-9380000D02*
X14220000Y-9420000D01*
X14220000Y-9380000D02*
X14180000Y-9420000D01*
X14180000Y-9580000D02*
X14220000Y-9620000D01*
X14220000Y-9580000D02*
X14180000Y-9620000D01*
X14180000Y-11570000D02*
X14220000Y-11610000D01*
X14220000Y-11570000D02*
X14180000Y-11610000D01*
X14180000Y-14680000D02*
X14220000Y-14720000D01*
X14220000Y-14680000D02*
X14180000Y-14720000D01*
X14180000Y-14880000D02*
X14220000Y-14920000D01*
X14220000Y-14880000D02*
X14180000Y-14920000D01*
X14180000Y-15080000D02*
X14220000Y-15120000D01*
X14220000Y-15080000D02*
X14180000Y-15120000D01*
X14280000Y-4780000D02*
X14320000Y-4820000D01*
X14320000Y-4780000D02*
X14280000Y-4820000D01*
X14280000Y-4980000D02*
X14320000Y-5020000D01*
X14320000Y-4980000D02*
X14280000Y-5020000D01*
X14280000Y-13180000D02*
X14320000Y-13220000D01*
X14320000Y-13180000D02*
X14280000Y-13220000D01*
X14280000Y-13380000D02*
X14320000Y-13420000D01*
X14320000Y-13380000D02*
X14280000Y-13420000D01*
X14280000Y-13580000D02*
X14320000Y-13620000D01*
X14320000Y-13580000D02*
X14280000Y-13620000D01*
X14380000Y-5680000D02*
X14420000Y-5720000D01*
X14420000Y-5680000D02*
X14380000Y-5720000D01*
X14380000Y-5880000D02*
X14420000Y-5920000D01*
X14420000Y-5880000D02*
X14380000Y-5920000D01*
X14380000Y-6080000D02*
X14420000Y-6120000D01*
X14420000Y-6080000D02*
X14380000Y-6120000D01*
X14380000Y-6280000D02*
X14420000Y-6320000D01*
X14420000Y-6280000D02*
X14380000Y-6320000D01*
X14380000Y-6480000D02*
X14420000Y-6520000D01*
X14420000Y-6480000D02*
X14380000Y-6520000D01*
X14380000Y-11680000D02*
X14420000Y-11720000D01*
X14420000Y-11680000D02*
X14380000Y-11720000D01*
X14380000Y-11880000D02*
X14420000Y-11920000D01*
X14420000Y-11880000D02*
X14380000Y-11920000D01*
X14380000Y-14480000D02*
X14420000Y-14520000D01*
X14420000Y-14480000D02*
X14380000Y-14520000D01*
X14380000Y-14680000D02*
X14420000Y-14720000D01*
X14420000Y-14680000D02*
X14380000Y-14720000D01*
X14380000Y-14880000D02*
X14420000Y-14920000D01*
X14420000Y-14880000D02*
X14380000Y-14920000D01*
X14380000Y-15080000D02*
X14420000Y-15120000D01*
X14420000Y-15080000D02*
X14380000Y-15120000D01*
X14480000Y-13380000D02*
X14520000Y-13420000D01*
X14520000Y-13380000D02*
X14480000Y-13420000D01*
X14580000Y-11680000D02*
X14620000Y-11720000D01*
X14620000Y-11680000D02*
X14580000Y-11720000D01*
X14580000Y-11880000D02*
X14620000Y-11920000D01*
X14620000Y-11880000D02*
X14580000Y-11920000D01*
X14580000Y-12080000D02*
X14620000Y-12120000D01*
X14620000Y-12080000D02*
X14580000Y-12120000D01*
X14580000Y-14280000D02*
X14620000Y-14320000D01*
X14620000Y-14280000D02*
X14580000Y-14320000D01*
X14580000Y-14480000D02*
X14620000Y-14520000D01*
X14620000Y-14480000D02*
X14580000Y-14520000D01*
X14580000Y-14680000D02*
X14620000Y-14720000D01*
X14620000Y-14680000D02*
X14580000Y-14720000D01*
X14580000Y-14880000D02*
X14620000Y-14920000D01*
X14620000Y-14880000D02*
X14580000Y-14920000D01*
X14580000Y-15080000D02*
X14620000Y-15120000D01*
X14620000Y-15080000D02*
X14580000Y-15120000D01*
X14660000Y-13620000D02*
X14700000Y-13660000D01*
X14700000Y-13620000D02*
X14660000Y-13660000D01*
X14780000Y-11680000D02*
X14820000Y-11720000D01*
X14820000Y-11680000D02*
X14780000Y-11720000D01*
X14780000Y-11880000D02*
X14820000Y-11920000D01*
X14820000Y-11880000D02*
X14780000Y-11920000D01*
X14780000Y-12080000D02*
X14820000Y-12120000D01*
X14820000Y-12080000D02*
X14780000Y-12120000D01*
X14780000Y-12280000D02*
X14820000Y-12320000D01*
X14820000Y-12280000D02*
X14780000Y-12320000D01*
X14780000Y-14280000D02*
X14820000Y-14320000D01*
X14820000Y-14280000D02*
X14780000Y-14320000D01*
X14780000Y-14480000D02*
X14820000Y-14520000D01*
X14820000Y-14480000D02*
X14780000Y-14520000D01*
X14780000Y-14680000D02*
X14820000Y-14720000D01*
X14820000Y-14680000D02*
X14780000Y-14720000D01*
X14780000Y-14880000D02*
X14820000Y-14920000D01*
X14820000Y-14880000D02*
X14780000Y-14920000D01*
X14780000Y-15080000D02*
X14820000Y-15120000D01*
X14820000Y-15080000D02*
X14780000Y-15120000D01*
X14980000Y-11680000D02*
X15020000Y-11720000D01*
X15020000Y-11680000D02*
X14980000Y-11720000D01*
X14980000Y-11880000D02*
X15020000Y-11920000D01*
X15020000Y-11880000D02*
X14980000Y-11920000D01*
X14980000Y-12080000D02*
X15020000Y-12120000D01*
X15020000Y-12080000D02*
X14980000Y-12120000D01*
X14980000Y-12280000D02*
X15020000Y-12320000D01*
X15020000Y-12280000D02*
X14980000Y-12320000D01*
X14980000Y-12480000D02*
X15020000Y-12520000D01*
X15020000Y-12480000D02*
X14980000Y-12520000D01*
X14980000Y-14280000D02*
X15020000Y-14320000D01*
X15020000Y-14280000D02*
X14980000Y-14320000D01*
X14980000Y-14480000D02*
X15020000Y-14520000D01*
X15020000Y-14480000D02*
X14980000Y-14520000D01*
X14980000Y-14680000D02*
X15020000Y-14720000D01*
X15020000Y-14680000D02*
X14980000Y-14720000D01*
X14980000Y-14880000D02*
X15020000Y-14920000D01*
X15020000Y-14880000D02*
X14980000Y-14920000D01*
X14980000Y-15080000D02*
X15020000Y-15120000D01*
X15020000Y-15080000D02*
X14980000Y-15120000D01*
X15120000Y-13900000D02*
X15160000Y-13940000D01*
X15160000Y-13900000D02*
X15120000Y-13940000D01*
X15150000Y-12950000D02*
X15190000Y-12990000D01*
X15190000Y-12950000D02*
X15150000Y-12990000D01*
X15180000Y-11680000D02*
X15220000Y-11720000D01*
X15220000Y-11680000D02*
X15180000Y-11720000D01*
X15180000Y-11880000D02*
X15220000Y-11920000D01*
X15220000Y-11880000D02*
X15180000Y-11920000D01*
X15180000Y-12080000D02*
X15220000Y-12120000D01*
X15220000Y-12080000D02*
X15180000Y-12120000D01*
X15180000Y-12280000D02*
X15220000Y-12320000D01*
X15220000Y-12280000D02*
X15180000Y-12320000D01*
X15180000Y-14280000D02*
X15220000Y-14320000D01*
X15220000Y-14280000D02*
X15180000Y-14320000D01*
X15180000Y-14480000D02*
X15220000Y-14520000D01*
X15220000Y-14480000D02*
X15180000Y-14520000D01*
X15180000Y-14680000D02*
X15220000Y-14720000D01*
X15220000Y-14680000D02*
X15180000Y-14720000D01*
X15180000Y-14880000D02*
X15220000Y-14920000D01*
X15220000Y-14880000D02*
X15180000Y-14920000D01*
X15180000Y-15080000D02*
X15220000Y-15120000D01*
X15220000Y-15080000D02*
X15180000Y-15120000D01*
X15380000Y-11680000D02*
X15420000Y-11720000D01*
X15420000Y-11680000D02*
X15380000Y-11720000D01*
X15380000Y-11880000D02*
X15420000Y-11920000D01*
X15420000Y-11880000D02*
X15380000Y-11920000D01*
X15380000Y-12080000D02*
X15420000Y-12120000D01*
X15420000Y-12080000D02*
X15380000Y-12120000D01*
X15380000Y-14480000D02*
X15420000Y-14520000D01*
X15420000Y-14480000D02*
X15380000Y-14520000D01*
X15380000Y-14680000D02*
X15420000Y-14720000D01*
X15420000Y-14680000D02*
X15380000Y-14720000D01*
X15380000Y-14880000D02*
X15420000Y-14920000D01*
X15420000Y-14880000D02*
X15380000Y-14920000D01*
X15380000Y-15080000D02*
X15420000Y-15120000D01*
X15420000Y-15080000D02*
X15380000Y-15120000D01*
X15580000Y-11680000D02*
X15620000Y-11720000D01*
X15620000Y-11680000D02*
X15580000Y-11720000D01*
X15580000Y-11880000D02*
X15620000Y-11920000D01*
X15620000Y-11880000D02*
X15580000Y-11920000D01*
X15580000Y-14680000D02*
X15620000Y-14720000D01*
X15620000Y-14680000D02*
X15580000Y-14720000D01*
X15580000Y-14880000D02*
X15620000Y-14920000D01*
X15620000Y-14880000D02*
X15580000Y-14920000D01*
X15580000Y-15080000D02*
X15620000Y-15120000D01*
X15620000Y-15080000D02*
X15580000Y-15120000D01*
X15590000Y-11460000D02*
X15630000Y-11500000D01*
X15630000Y-11460000D02*
X15590000Y-11500000D01*
X15780000Y-14880000D02*
X15820000Y-14920000D01*
X15820000Y-14880000D02*
X15780000Y-14920000D01*
X15780000Y-15080000D02*
X15820000Y-15120000D01*
X15820000Y-15080000D02*
X15780000Y-15120000D01*
X15980000Y-15080000D02*
X16020000Y-15120000D01*
X16020000Y-15080000D02*
X15980000Y-15120000D01*
X15990000Y-11900000D02*
X16030000Y-11940000D01*
X16030000Y-11900000D02*
X15990000Y-11940000D01*
X16010000Y-13510000D02*
X16050000Y-13550000D01*
X16050000Y-13510000D02*
X16010000Y-13550000D01*
X16600000Y-3611550D02*
X16640000Y-3651550D01*
X16640000Y-3611550D02*
X16600000Y-3651550D01*
X16600000Y-4720000D02*
X16640000Y-4760000D01*
X16640000Y-4720000D02*
X16600000Y-4760000D01*
X16600000Y-6870000D02*
X16640000Y-6910000D01*
X16640000Y-6870000D02*
X16600000Y-6910000D01*
X16601230Y-5718770D02*
X16641230Y-5758770D01*
X16641230Y-5718770D02*
X16601230Y-5758770D01*
X16610000Y-10810000D02*
X16650000Y-10850000D01*
X16650000Y-10810000D02*
X16610000Y-10850000D01*
X16680000Y-7480000D02*
X16720000Y-7520000D01*
X16720000Y-7480000D02*
X16680000Y-7520000D01*
X16680000Y-7680000D02*
X16720000Y-7720000D01*
X16720000Y-7680000D02*
X16680000Y-7720000D01*
X16730000Y-3807550D02*
X16770000Y-3847550D01*
X16770000Y-3807550D02*
X16730000Y-3847550D01*
X16730000Y-4740000D02*
X16770000Y-4780000D01*
X16770000Y-4740000D02*
X16730000Y-4780000D01*
X16730000Y-5950000D02*
X16770000Y-5990000D01*
X16770000Y-5950000D02*
X16730000Y-5990000D01*
X16730000Y-6980000D02*
X16770000Y-7020000D01*
X16770000Y-6980000D02*
X16730000Y-7020000D01*
X16750000Y-10620000D02*
X16790000Y-10660000D01*
X16790000Y-10620000D02*
X16750000Y-10660000D01*
X16780000Y-2980000D02*
X16820000Y-3020000D01*
X16820000Y-2980000D02*
X16780000Y-3020000D01*
X16780000Y-3180000D02*
X16820000Y-3220000D01*
X16820000Y-3180000D02*
X16780000Y-3220000D01*
X16780000Y-3380000D02*
X16820000Y-3420000D01*
X16820000Y-3380000D02*
X16780000Y-3420000D01*
X16780000Y-3580000D02*
X16820000Y-3620000D01*
X16820000Y-3580000D02*
X16780000Y-3620000D01*
X16880000Y-4980000D02*
X16920000Y-5020000D01*
X16920000Y-4980000D02*
X16880000Y-5020000D01*
X16880000Y-5180000D02*
X16920000Y-5220000D01*
X16920000Y-5180000D02*
X16880000Y-5220000D01*
X16880000Y-5380000D02*
X16920000Y-5420000D01*
X16920000Y-5380000D02*
X16880000Y-5420000D01*
X16880000Y-5580000D02*
X16920000Y-5620000D01*
X16920000Y-5580000D02*
X16880000Y-5620000D01*
X16880000Y-5780000D02*
X16920000Y-5820000D01*
X16920000Y-5780000D02*
X16880000Y-5820000D01*
X16880000Y-7280000D02*
X16920000Y-7320000D01*
X16920000Y-7280000D02*
X16880000Y-7320000D01*
X16880000Y-7480000D02*
X16920000Y-7520000D01*
X16920000Y-7480000D02*
X16880000Y-7520000D01*
X16880000Y-7680000D02*
X16920000Y-7720000D01*
X16920000Y-7680000D02*
X16880000Y-7720000D01*
X16980000Y-3180000D02*
X17020000Y-3220000D01*
X17020000Y-3180000D02*
X16980000Y-3220000D01*
X16980000Y-3380000D02*
X17020000Y-3420000D01*
X17020000Y-3380000D02*
X16980000Y-3420000D01*
X16980000Y-3580000D02*
X17020000Y-3620000D01*
X17020000Y-3580000D02*
X16980000Y-3620000D01*
X17080000Y-5180000D02*
X17120000Y-5220000D01*
X17120000Y-5180000D02*
X17080000Y-5220000D01*
X17080000Y-5380000D02*
X17120000Y-5420000D01*
X17120000Y-5380000D02*
X17080000Y-5420000D01*
X17080000Y-5580000D02*
X17120000Y-5620000D01*
X17120000Y-5580000D02*
X17080000Y-5620000D01*
X17080000Y-5780000D02*
X17120000Y-5820000D01*
X17120000Y-5780000D02*
X17080000Y-5820000D01*
X17080000Y-7280000D02*
X17120000Y-7320000D01*
X17120000Y-7280000D02*
X17080000Y-7320000D01*
X17080000Y-7480000D02*
X17120000Y-7520000D01*
X17120000Y-7480000D02*
X17080000Y-7520000D01*
X17080000Y-7680000D02*
X17120000Y-7720000D01*
X17120000Y-7680000D02*
X17080000Y-7720000D01*
X17620000Y-3120000D02*
X17660000Y-3160000D01*
X17660000Y-3120000D02*
X17620000Y-3160000D01*
X17660000Y-3560000D02*
X17700000Y-3600000D01*
X17700000Y-3560000D02*
X17660000Y-3600000D01*
X17660000Y-7450000D02*
X17700000Y-7490000D01*
X17700000Y-7450000D02*
X17660000Y-7490000D01*
X17670000Y-4850000D02*
X17710000Y-4890000D01*
X17710000Y-4850000D02*
X17670000Y-4890000D01*
X17680000Y-5540000D02*
X17720000Y-5580000D01*
X17720000Y-5540000D02*
X17680000Y-5580000D01*
X17730000Y-7910000D02*
X17770000Y-7950000D01*
X17770000Y-7910000D02*
X17730000Y-7950000D01*
X17820000Y-7080000D02*
X17860000Y-7120000D01*
X17860000Y-7080000D02*
X17820000Y-7120000D01*
X17860000Y-6480000D02*
X17900000Y-6520000D01*
X17900000Y-6480000D02*
X17860000Y-6520000D01*
X17860000Y-6890000D02*
X17900000Y-6930000D01*
X17900000Y-6890000D02*
X17860000Y-6930000D01*
X17879000Y-7428000D02*
X17919000Y-7468000D01*
X17919000Y-7428000D02*
X17879000Y-7468000D01*
X18040000Y-4970000D02*
X18080000Y-5010000D01*
X18080000Y-4970000D02*
X18040000Y-5010000D01*
X18090000Y-3540000D02*
X18130000Y-3580000D01*
X18130000Y-3540000D02*
X18090000Y-3580000D01*
X18110000Y-5530000D02*
X18150000Y-5570000D01*
X18150000Y-5530000D02*
X18110000Y-5570000D01*
X18120000Y-3120000D02*
X18160000Y-3160000D01*
X18160000Y-3120000D02*
X18120000Y-3160000D01*
X18660000Y-15790000D02*
X18700000Y-15830000D01*
X18700000Y-15790000D02*
X18660000Y-15830000D01*
X18660000Y-16100000D02*
X18700000Y-16140000D01*
X18700000Y-16100000D02*
X18660000Y-16140000D01*
X18770000Y-13920000D02*
X18810000Y-13960000D01*
X18810000Y-13920000D02*
X18770000Y-13960000D01*
X18770000Y-14320000D02*
X18810000Y-14360000D01*
X18810000Y-14320000D02*
X18770000Y-14360000D01*
D13*
X4070400Y-16650750D02*
G75*
G03*
X4070400Y-16650750I-50800J0D01*
G01*
X4324400Y-16650750D02*
G75*
G03*
X4324400Y-16650750I-50800J0D01*
G01*
X4578400Y-16650750D02*
G75*
G03*
X4578400Y-16650750I-50800J0D01*
G01*
X4832400Y-16650750D02*
G75*
G03*
X4832400Y-16650750I-50800J0D01*
G01*
X4984800Y-11824750D02*
G75*
G03*
X4984800Y-11824750I-50800J0D01*
G01*
X5086400Y-16650750D02*
G75*
G03*
X5086400Y-16650750I-50800J0D01*
G01*
X5238800Y-11824750D02*
G75*
G03*
X5238800Y-11824750I-50800J0D01*
G01*
X5340400Y-16650750D02*
G75*
G03*
X5340400Y-16650750I-50800J0D01*
G01*
X5492800Y-11824750D02*
G75*
G03*
X5492800Y-11824750I-50800J0D01*
G01*
X5594400Y-16650750D02*
G75*
G03*
X5594400Y-16650750I-50800J0D01*
G01*
X5746800Y-11824750D02*
G75*
G03*
X5746800Y-11824750I-50800J0D01*
G01*
X5848400Y-16650750D02*
G75*
G03*
X5848400Y-16650750I-50800J0D01*
G01*
X6000800Y-11824750D02*
G75*
G03*
X6000800Y-11824750I-50800J0D01*
G01*
X6102400Y-16650750D02*
G75*
G03*
X6102400Y-16650750I-50800J0D01*
G01*
X6254800Y-11824750D02*
G75*
G03*
X6254800Y-11824750I-50800J0D01*
G01*
X6356400Y-16650750D02*
G75*
G03*
X6356400Y-16650750I-50800J0D01*
G01*
X6508800Y-11824750D02*
G75*
G03*
X6508800Y-11824750I-50800J0D01*
G01*
X6676800Y-8297000D02*
G75*
G03*
X6676800Y-8297000I-50800J0D01*
G01*
X6676800Y-8551000D02*
G75*
G03*
X6676800Y-8551000I-50800J0D01*
G01*
X6676800Y-8805000D02*
G75*
G03*
X6676800Y-8805000I-50800J0D01*
G01*
X6676800Y-10079000D02*
G75*
G03*
X6676800Y-10079000I-50800J0D01*
G01*
X6676800Y-10333000D02*
G75*
G03*
X6676800Y-10333000I-50800J0D01*
G01*
X6676800Y-10587000D02*
G75*
G03*
X6676800Y-10587000I-50800J0D01*
G01*
X6762800Y-11824750D02*
G75*
G03*
X6762800Y-11824750I-50800J0D01*
G01*
X6762800Y-16650750D02*
G75*
G03*
X6762800Y-16650750I-50800J0D01*
G01*
X7016800Y-16650750D02*
G75*
G03*
X7016800Y-16650750I-50800J0D01*
G01*
X7270800Y-11824750D02*
G75*
G03*
X7270800Y-11824750I-50800J0D01*
G01*
X7270800Y-16650750D02*
G75*
G03*
X7270800Y-16650750I-50800J0D01*
G01*
X7524800Y-11824750D02*
G75*
G03*
X7524800Y-11824750I-50800J0D01*
G01*
X7524800Y-16650750D02*
G75*
G03*
X7524800Y-16650750I-50800J0D01*
G01*
X7778800Y-11824750D02*
G75*
G03*
X7778800Y-11824750I-50800J0D01*
G01*
X7778800Y-16650750D02*
G75*
G03*
X7778800Y-16650750I-50800J0D01*
G01*
X8032800Y-11824750D02*
G75*
G03*
X8032800Y-11824750I-50800J0D01*
G01*
X8032800Y-16650750D02*
G75*
G03*
X8032800Y-16650750I-50800J0D01*
G01*
X8286800Y-11824750D02*
G75*
G03*
X8286800Y-11824750I-50800J0D01*
G01*
X8286800Y-16650750D02*
G75*
G03*
X8286800Y-16650750I-50800J0D01*
G01*
X8540800Y-11824750D02*
G75*
G03*
X8540800Y-11824750I-50800J0D01*
G01*
X8540800Y-16650750D02*
G75*
G03*
X8540800Y-16650750I-50800J0D01*
G01*
X8553500Y-14110750D02*
G75*
G03*
X8553500Y-14110750I-50800J0D01*
G01*
X8553500Y-14364750D02*
G75*
G03*
X8553500Y-14364750I-50800J0D01*
G01*
X8553500Y-14618750D02*
G75*
G03*
X8553500Y-14618750I-50800J0D01*
G01*
X8794800Y-11824750D02*
G75*
G03*
X8794800Y-11824750I-50800J0D01*
G01*
X8807500Y-14110750D02*
G75*
G03*
X8807500Y-14110750I-50800J0D01*
G01*
X8807500Y-14364750D02*
G75*
G03*
X8807500Y-14364750I-50800J0D01*
G01*
X8807500Y-14618750D02*
G75*
G03*
X8807500Y-14618750I-50800J0D01*
G01*
X9048800Y-11824750D02*
G75*
G03*
X9048800Y-11824750I-50800J0D01*
G01*
X9048800Y-16650750D02*
G75*
G03*
X9048800Y-16650750I-50800J0D01*
G01*
X9302800Y-16650750D02*
G75*
G03*
X9302800Y-16650750I-50800J0D01*
G01*
X9556800Y-11824750D02*
G75*
G03*
X9556800Y-11824750I-50800J0D01*
G01*
X9556800Y-16650750D02*
G75*
G03*
X9556800Y-16650750I-50800J0D01*
G01*
X9810800Y-11824750D02*
G75*
G03*
X9810800Y-11824750I-50800J0D01*
G01*
X9810800Y-16650750D02*
G75*
G03*
X9810800Y-16650750I-50800J0D01*
G01*
X10064800Y-11824750D02*
G75*
G03*
X10064800Y-11824750I-50800J0D01*
G01*
X10064800Y-16650750D02*
G75*
G03*
X10064800Y-16650750I-50800J0D01*
G01*
X10318800Y-11824750D02*
G75*
G03*
X10318800Y-11824750I-50800J0D01*
G01*
X10318800Y-16650750D02*
G75*
G03*
X10318800Y-16650750I-50800J0D01*
G01*
X10572800Y-11824750D02*
G75*
G03*
X10572800Y-11824750I-50800J0D01*
G01*
X10572800Y-16650750D02*
G75*
G03*
X10572800Y-16650750I-50800J0D01*
G01*
X10826800Y-11824750D02*
G75*
G03*
X10826800Y-11824750I-50800J0D01*
G01*
X10826800Y-16650750D02*
G75*
G03*
X10826800Y-16650750I-50800J0D01*
G01*
X11080800Y-11824750D02*
G75*
G03*
X11080800Y-11824750I-50800J0D01*
G01*
X11334800Y-11824750D02*
G75*
G03*
X11334800Y-11824750I-50800J0D01*
G01*
X11588800Y-12332750D02*
G75*
G03*
X11588800Y-12332750I-50800J0D01*
G01*
X11588800Y-12586750D02*
G75*
G03*
X11588800Y-12586750I-50800J0D01*
G01*
X11588800Y-12840750D02*
G75*
G03*
X11588800Y-12840750I-50800J0D01*
G01*
X11588800Y-13094750D02*
G75*
G03*
X11588800Y-13094750I-50800J0D01*
G01*
X11588800Y-13348750D02*
G75*
G03*
X11588800Y-13348750I-50800J0D01*
G01*
X11588800Y-13602750D02*
G75*
G03*
X11588800Y-13602750I-50800J0D01*
G01*
X11588800Y-13856750D02*
G75*
G03*
X11588800Y-13856750I-50800J0D01*
G01*
X11588800Y-14110750D02*
G75*
G03*
X11588800Y-14110750I-50800J0D01*
G01*
X11588800Y-14364750D02*
G75*
G03*
X11588800Y-14364750I-50800J0D01*
G01*
X11588800Y-14618750D02*
G75*
G03*
X11588800Y-14618750I-50800J0D01*
G01*
X11588800Y-14872750D02*
G75*
G03*
X11588800Y-14872750I-50800J0D01*
G01*
X11588800Y-15126750D02*
G75*
G03*
X11588800Y-15126750I-50800J0D01*
G01*
X11588800Y-15380750D02*
G75*
G03*
X11588800Y-15380750I-50800J0D01*
G01*
X11588800Y-15634750D02*
G75*
G03*
X11588800Y-15634750I-50800J0D01*
G01*
X11588800Y-15888750D02*
G75*
G03*
X11588800Y-15888750I-50800J0D01*
G01*
X11588800Y-16142750D02*
G75*
G03*
X11588800Y-16142750I-50800J0D01*
G01*
X11588800Y-16396750D02*
G75*
G03*
X11588800Y-16396750I-50800J0D01*
G01*
X11588800Y-16650750D02*
G75*
G03*
X11588800Y-16650750I-50800J0D01*
G01*
X11842800Y-12332750D02*
G75*
G03*
X11842800Y-12332750I-50800J0D01*
G01*
X11842800Y-12586750D02*
G75*
G03*
X11842800Y-12586750I-50800J0D01*
G01*
X11842800Y-12840750D02*
G75*
G03*
X11842800Y-12840750I-50800J0D01*
G01*
X11842800Y-13094750D02*
G75*
G03*
X11842800Y-13094750I-50800J0D01*
G01*
X11842800Y-13348750D02*
G75*
G03*
X11842800Y-13348750I-50800J0D01*
G01*
X11842800Y-13602750D02*
G75*
G03*
X11842800Y-13602750I-50800J0D01*
G01*
X11842800Y-13856750D02*
G75*
G03*
X11842800Y-13856750I-50800J0D01*
G01*
X11842800Y-14110750D02*
G75*
G03*
X11842800Y-14110750I-50800J0D01*
G01*
X11842800Y-14364750D02*
G75*
G03*
X11842800Y-14364750I-50800J0D01*
G01*
X11842800Y-14618750D02*
G75*
G03*
X11842800Y-14618750I-50800J0D01*
G01*
X11842800Y-14872750D02*
G75*
G03*
X11842800Y-14872750I-50800J0D01*
G01*
X11842800Y-15126750D02*
G75*
G03*
X11842800Y-15126750I-50800J0D01*
G01*
X11842800Y-15380750D02*
G75*
G03*
X11842800Y-15380750I-50800J0D01*
G01*
X11842800Y-15634750D02*
G75*
G03*
X11842800Y-15634750I-50800J0D01*
G01*
X11842800Y-15888750D02*
G75*
G03*
X11842800Y-15888750I-50800J0D01*
G01*
X11842800Y-16142750D02*
G75*
G03*
X11842800Y-16142750I-50800J0D01*
G01*
X11842800Y-16396750D02*
G75*
G03*
X11842800Y-16396750I-50800J0D01*
G01*
X11842800Y-16650750D02*
G75*
G03*
X11842800Y-16650750I-50800J0D01*
G01*
X16318000Y-2942000D02*
G75*
G03*
X16318000Y-2942000I-50800J0D01*
G01*
X16318000Y-3196000D02*
G75*
G03*
X16318000Y-3196000I-50800J0D01*
G01*
X16318000Y-3450000D02*
G75*
G03*
X16318000Y-3450000I-50800J0D01*
G01*
X16318000Y-3704000D02*
G75*
G03*
X16318000Y-3704000I-50800J0D01*
G01*
X16319000Y-6948000D02*
G75*
G03*
X16319000Y-6948000I-50800J0D01*
G01*
X16319000Y-7202000D02*
G75*
G03*
X16319000Y-7202000I-50800J0D01*
G01*
X16319000Y-7456000D02*
G75*
G03*
X16319000Y-7456000I-50800J0D01*
G01*
X16319000Y-7710000D02*
G75*
G03*
X16319000Y-7710000I-50800J0D01*
G01*
X16341400Y-4953800D02*
G75*
G03*
X16341400Y-4953800I-50800J0D01*
G01*
X16341400Y-5207800D02*
G75*
G03*
X16341400Y-5207800I-50800J0D01*
G01*
X16341400Y-5461800D02*
G75*
G03*
X16341400Y-5461800I-50800J0D01*
G01*
X16341400Y-5715800D02*
G75*
G03*
X16341400Y-5715800I-50800J0D01*
G01*
X17727800Y-8865000D02*
G75*
G03*
X17727800Y-8865000I-50800J0D01*
G01*
X17727800Y-9119000D02*
G75*
G03*
X17727800Y-9119000I-50800J0D01*
G01*
X17727800Y-9373000D02*
G75*
G03*
X17727800Y-9373000I-50800J0D01*
G01*
X17727800Y-9627000D02*
G75*
G03*
X17727800Y-9627000I-50800J0D01*
G01*
X17727800Y-9881000D02*
G75*
G03*
X17727800Y-9881000I-50800J0D01*
G01*
X17727800Y-10135000D02*
G75*
G03*
X17727800Y-10135000I-50800J0D01*
G01*
X17727800Y-10389000D02*
G75*
G03*
X17727800Y-10389000I-50800J0D01*
G01*
X17728800Y-14266000D02*
G75*
G03*
X17728800Y-14266000I-50800J0D01*
G01*
X17728800Y-14520000D02*
G75*
G03*
X17728800Y-14520000I-50800J0D01*
G01*
X17728800Y-14774000D02*
G75*
G03*
X17728800Y-14774000I-50800J0D01*
G01*
X17728800Y-15028000D02*
G75*
G03*
X17728800Y-15028000I-50800J0D01*
G01*
X17728800Y-15282000D02*
G75*
G03*
X17728800Y-15282000I-50800J0D01*
G01*
X17728800Y-15536000D02*
G75*
G03*
X17728800Y-15536000I-50800J0D01*
G01*
X17728800Y-15790000D02*
G75*
G03*
X17728800Y-15790000I-50800J0D01*
G01*
X17728800Y-16044000D02*
G75*
G03*
X17728800Y-16044000I-50800J0D01*
G01*
X17728800Y-16298000D02*
G75*
G03*
X17728800Y-16298000I-50800J0D01*
G01*
X17729800Y-10643000D02*
G75*
G03*
X17729800Y-10643000I-50800J0D01*
G01*
X17729800Y-10897000D02*
G75*
G03*
X17729800Y-10897000I-50800J0D01*
G01*
X17733800Y-11564000D02*
G75*
G03*
X17733800Y-11564000I-50800J0D01*
G01*
X17733800Y-11818000D02*
G75*
G03*
X17733800Y-11818000I-50800J0D01*
G01*
X17733800Y-12072000D02*
G75*
G03*
X17733800Y-12072000I-50800J0D01*
G01*
X17733800Y-12326000D02*
G75*
G03*
X17733800Y-12326000I-50800J0D01*
G01*
X17733800Y-12580000D02*
G75*
G03*
X17733800Y-12580000I-50800J0D01*
G01*
X17733800Y-12834000D02*
G75*
G03*
X17733800Y-12834000I-50800J0D01*
G01*
X17733800Y-13088000D02*
G75*
G03*
X17733800Y-13088000I-50800J0D01*
G01*
X17733800Y-13342000D02*
G75*
G03*
X17733800Y-13342000I-50800J0D01*
G01*
X17733800Y-13596000D02*
G75*
G03*
X17733800Y-13596000I-50800J0D01*
G01*
X18438000Y-2688000D02*
G75*
G03*
X18438000Y-2688000I-50800J0D01*
G01*
X18438000Y-2942000D02*
G75*
G03*
X18438000Y-2942000I-50800J0D01*
G01*
X18438000Y-3196000D02*
G75*
G03*
X18438000Y-3196000I-50800J0D01*
G01*
X18438000Y-3450000D02*
G75*
G03*
X18438000Y-3450000I-50800J0D01*
G01*
X18438000Y-3704000D02*
G75*
G03*
X18438000Y-3704000I-50800J0D01*
G01*
X18438000Y-3958000D02*
G75*
G03*
X18438000Y-3958000I-50800J0D01*
G01*
X18439000Y-6694000D02*
G75*
G03*
X18439000Y-6694000I-50800J0D01*
G01*
X18439000Y-6948000D02*
G75*
G03*
X18439000Y-6948000I-50800J0D01*
G01*
X18439000Y-7202000D02*
G75*
G03*
X18439000Y-7202000I-50800J0D01*
G01*
X18439000Y-7456000D02*
G75*
G03*
X18439000Y-7456000I-50800J0D01*
G01*
X18439000Y-7710000D02*
G75*
G03*
X18439000Y-7710000I-50800J0D01*
G01*
X18439000Y-7964000D02*
G75*
G03*
X18439000Y-7964000I-50800J0D01*
G01*
X18461400Y-4699800D02*
G75*
G03*
X18461400Y-4699800I-50800J0D01*
G01*
X18461400Y-4953800D02*
G75*
G03*
X18461400Y-4953800I-50800J0D01*
G01*
X18461400Y-5207800D02*
G75*
G03*
X18461400Y-5207800I-50800J0D01*
G01*
X18461400Y-5461800D02*
G75*
G03*
X18461400Y-5461800I-50800J0D01*
G01*
X18461400Y-5715800D02*
G75*
G03*
X18461400Y-5715800I-50800J0D01*
G01*
X18461400Y-5969800D02*
G75*
G03*
X18461400Y-5969800I-50800J0D01*
G01*
D14*
X14850000Y-9582500D02*
X14850000Y-9697500D01*
X14792500Y-9640000D02*
X14907500Y-9640000D01*
X16270000Y-8632500D02*
X16270000Y-8747500D01*
X16212500Y-8690000D02*
X16327500Y-8690000D01*
X16640000Y-13902500D02*
X16640000Y-14017500D01*
X16582500Y-13960000D02*
X16697500Y-13960000D01*
X16760000Y-9122500D02*
X16760000Y-9237500D01*
X16702500Y-9180000D02*
X16817500Y-9180000D01*
X16810000Y-14542500D02*
X16810000Y-14657500D01*
X16752500Y-14600000D02*
X16867500Y-14600000D01*
X16840000Y-11182500D02*
X16840000Y-11297500D01*
X16782500Y-11240000D02*
X16897500Y-11240000D01*
X16980000Y-11872500D02*
X16980000Y-11987500D01*
X16922500Y-11930000D02*
X17037500Y-11930000D01*
X18380000Y-14912500D02*
X18380000Y-15027500D01*
X18322500Y-14970000D02*
X18437500Y-14970000D01*
X18440000Y-12082500D02*
X18440000Y-12197500D01*
X18382500Y-12140000D02*
X18497500Y-12140000D01*
D15*
X2963033Y-2727034D02*
X2963033Y-2620967D01*
X2856966Y-2620967D01*
X2856966Y-2727034D01*
X2963033Y-2727034D01*
X2963033Y-3227033D02*
X2963033Y-3120966D01*
X2856966Y-3120966D01*
X2856966Y-3227033D01*
X2963033Y-3227033D01*
X2969033Y-3772033D02*
X2969033Y-3665966D01*
X2862966Y-3665966D01*
X2862966Y-3772033D01*
X2969033Y-3772033D01*
X2969033Y-4272034D02*
X2969033Y-4165966D01*
X2862966Y-4165966D01*
X2862966Y-4272034D01*
X2969033Y-4272034D01*
X2970033Y-6877033D02*
X2970033Y-6770966D01*
X2863966Y-6770966D01*
X2863966Y-6877033D01*
X2970033Y-6877033D01*
X2970033Y-7377033D02*
X2970033Y-7270966D01*
X2863966Y-7270966D01*
X2863966Y-7377033D01*
X2970033Y-7377033D01*
X2971033Y-4797034D02*
X2971033Y-4690967D01*
X2864966Y-4690967D01*
X2864966Y-4797034D01*
X2971033Y-4797034D01*
X2971033Y-5297034D02*
X2971033Y-5190967D01*
X2864966Y-5190967D01*
X2864966Y-5297034D01*
X2971033Y-5297034D01*
X2973033Y-5839033D02*
X2973033Y-5732966D01*
X2866966Y-5732966D01*
X2866966Y-5839033D01*
X2973033Y-5839033D01*
X2973033Y-6339033D02*
X2973033Y-6232966D01*
X2866966Y-6232966D01*
X2866966Y-6339033D01*
X2973033Y-6339033D01*
X6050033Y-4845034D02*
X6050033Y-4738967D01*
X5943966Y-4738967D01*
X5943966Y-4845034D01*
X6050033Y-4845034D01*
X6050033Y-5345034D02*
X6050033Y-5238967D01*
X5943966Y-5238967D01*
X5943966Y-5345034D01*
X6050033Y-5345034D01*
X6054033Y-3757033D02*
X6054033Y-3650966D01*
X5947966Y-3650966D01*
X5947966Y-3757033D01*
X6054033Y-3757033D01*
X6054033Y-4257034D02*
X6054033Y-4150966D01*
X5947966Y-4150966D01*
X5947966Y-4257034D01*
X6054033Y-4257034D01*
X6063033Y-5953033D02*
X6063033Y-5846966D01*
X5956966Y-5846966D01*
X5956966Y-5953033D01*
X6063033Y-5953033D01*
X6063033Y-6453033D02*
X6063033Y-6346966D01*
X5956966Y-6346966D01*
X5956966Y-6453033D01*
X6063033Y-6453033D01*
X8420034Y-3771033D02*
X8420034Y-3664966D01*
X8313966Y-3664966D01*
X8313966Y-3771033D01*
X8420034Y-3771033D01*
X8420034Y-4271034D02*
X8420034Y-4164966D01*
X8313966Y-4164966D01*
X8313966Y-4271034D01*
X8420034Y-4271034D01*
X8421034Y-4843034D02*
X8421034Y-4736967D01*
X8314966Y-4736967D01*
X8314966Y-4843034D01*
X8421034Y-4843034D01*
X8421034Y-5343034D02*
X8421034Y-5236967D01*
X8314966Y-5236967D01*
X8314966Y-5343034D01*
X8421034Y-5343034D01*
X8423034Y-5943033D02*
X8423034Y-5836966D01*
X8316966Y-5836966D01*
X8316966Y-5943033D01*
X8423034Y-5943033D01*
X8423034Y-6443033D02*
X8423034Y-6336966D01*
X8316966Y-6336966D01*
X8316966Y-6443033D01*
X8423034Y-6443033D01*
X10303034Y-9663034D02*
X10303034Y-9556967D01*
X10196967Y-9556967D01*
X10196967Y-9663034D01*
X10303034Y-9663034D01*
X10303034Y-10163034D02*
X10303034Y-10056967D01*
X10196967Y-10056967D01*
X10196967Y-10163034D01*
X10303034Y-10163034D01*
X10305034Y-7530033D02*
X10305034Y-7423966D01*
X10198967Y-7423966D01*
X10198967Y-7530033D01*
X10305034Y-7530033D01*
X10305034Y-8030033D02*
X10305034Y-7923966D01*
X10198967Y-7923966D01*
X10198967Y-8030033D01*
X10305034Y-8030033D01*
X10306034Y-8593034D02*
X10306034Y-8486967D01*
X10199967Y-8486967D01*
X10199967Y-8593034D01*
X10306034Y-8593034D01*
X10306034Y-9093034D02*
X10306034Y-8986967D01*
X10199967Y-8986967D01*
X10199967Y-9093034D01*
X10306034Y-9093034D01*
X10868034Y-3771033D02*
X10868034Y-3664966D01*
X10761967Y-3664966D01*
X10761967Y-3771033D01*
X10868034Y-3771033D01*
X10868034Y-4271034D02*
X10868034Y-4164966D01*
X10761967Y-4164966D01*
X10761967Y-4271034D01*
X10868034Y-4271034D01*
X10872034Y-4848034D02*
X10872034Y-4741967D01*
X10765967Y-4741967D01*
X10765967Y-4848034D01*
X10872034Y-4848034D01*
X10872034Y-5348034D02*
X10872034Y-5241967D01*
X10765967Y-5241967D01*
X10765967Y-5348034D01*
X10872034Y-5348034D01*
X10873034Y-5953033D02*
X10873034Y-5846966D01*
X10766967Y-5846966D01*
X10766967Y-5953033D01*
X10873034Y-5953033D01*
X10873034Y-6453033D02*
X10873034Y-6346966D01*
X10766967Y-6346966D01*
X10766967Y-6453033D01*
X10873034Y-6453033D01*
D11*
X2252619Y-17815476D02*
X2252619Y-17615476D01*
X2300238Y-17615476D01*
X2328810Y-17625000D01*
X2347857Y-17644048D01*
X2357381Y-17663095D01*
X2366905Y-17701190D01*
X2366905Y-17729762D01*
X2357381Y-17767857D01*
X2347857Y-17786905D01*
X2328810Y-17805952D01*
X2300238Y-17815476D01*
X2252619Y-17815476D01*
X2452619Y-17815476D02*
X2452619Y-17682143D01*
X2452619Y-17720238D02*
X2462143Y-17701190D01*
X2471667Y-17691667D01*
X2490714Y-17682143D01*
X2509762Y-17682143D01*
X2576429Y-17815476D02*
X2576429Y-17682143D01*
X2576429Y-17615476D02*
X2566905Y-17625000D01*
X2576429Y-17634524D01*
X2585952Y-17625000D01*
X2576429Y-17615476D01*
X2576429Y-17634524D01*
X2700238Y-17815476D02*
X2681190Y-17805952D01*
X2671667Y-17786905D01*
X2671667Y-17615476D01*
X2805000Y-17815476D02*
X2785952Y-17805952D01*
X2776429Y-17786905D01*
X2776429Y-17615476D01*
X3033571Y-17815476D02*
X3033571Y-17615476D01*
X3100238Y-17758333D01*
X3166905Y-17615476D01*
X3166905Y-17815476D01*
X3347857Y-17815476D02*
X3347857Y-17710714D01*
X3338333Y-17691667D01*
X3319286Y-17682143D01*
X3281190Y-17682143D01*
X3262143Y-17691667D01*
X3347857Y-17805952D02*
X3328809Y-17815476D01*
X3281190Y-17815476D01*
X3262143Y-17805952D01*
X3252619Y-17786905D01*
X3252619Y-17767857D01*
X3262143Y-17748810D01*
X3281190Y-17739286D01*
X3328809Y-17739286D01*
X3347857Y-17729762D01*
X3443095Y-17682143D02*
X3443095Y-17882143D01*
X3443095Y-17691667D02*
X3462143Y-17682143D01*
X3500238Y-17682143D01*
X3519286Y-17691667D01*
X3528809Y-17701190D01*
X3538333Y-17720238D01*
X3538333Y-17777381D01*
X3528809Y-17796429D01*
X3519286Y-17805952D01*
X3500238Y-17815476D01*
X3462143Y-17815476D01*
X3443095Y-17805952D01*
X3624048Y-17796429D02*
X3633571Y-17805952D01*
X3624048Y-17815476D01*
X3614524Y-17805952D01*
X3624048Y-17796429D01*
X3624048Y-17815476D01*
X3624048Y-17691667D02*
X3633571Y-17701190D01*
X3624048Y-17710714D01*
X3614524Y-17701190D01*
X3624048Y-17691667D01*
X3624048Y-17710714D01*
D12*
X1955000Y-18125000D02*
X1995000Y-18165000D01*
X1995000Y-18125000D02*
X1955000Y-18165000D01*
D11*
X2290714Y-18035476D02*
X2309762Y-18035476D01*
X2328810Y-18045000D01*
X2338333Y-18054524D01*
X2347857Y-18073571D01*
X2357381Y-18111667D01*
X2357381Y-18159286D01*
X2347857Y-18197381D01*
X2338333Y-18216429D01*
X2328810Y-18225952D01*
X2309762Y-18235476D01*
X2290714Y-18235476D01*
X2271667Y-18225952D01*
X2262143Y-18216429D01*
X2252619Y-18197381D01*
X2243095Y-18159286D01*
X2243095Y-18111667D01*
X2252619Y-18073571D01*
X2262143Y-18054524D01*
X2271667Y-18045000D01*
X2290714Y-18035476D01*
X2443095Y-18216429D02*
X2452619Y-18225952D01*
X2443095Y-18235476D01*
X2433571Y-18225952D01*
X2443095Y-18216429D01*
X2443095Y-18235476D01*
X2624048Y-18102143D02*
X2624048Y-18235476D01*
X2576429Y-18025952D02*
X2528810Y-18168810D01*
X2652619Y-18168810D01*
X2766905Y-18035476D02*
X2785952Y-18035476D01*
X2805000Y-18045000D01*
X2814524Y-18054524D01*
X2824048Y-18073571D01*
X2833571Y-18111667D01*
X2833571Y-18159286D01*
X2824048Y-18197381D01*
X2814524Y-18216429D01*
X2805000Y-18225952D01*
X2785952Y-18235476D01*
X2766905Y-18235476D01*
X2747857Y-18225952D01*
X2738333Y-18216429D01*
X2728810Y-18197381D01*
X2719286Y-18159286D01*
X2719286Y-18111667D01*
X2728810Y-18073571D01*
X2738333Y-18054524D01*
X2747857Y-18045000D01*
X2766905Y-18035476D01*
X2957381Y-18035476D02*
X2976428Y-18035476D01*
X2995476Y-18045000D01*
X3005000Y-18054524D01*
X3014524Y-18073571D01*
X3024048Y-18111667D01*
X3024048Y-18159286D01*
X3014524Y-18197381D01*
X3005000Y-18216429D01*
X2995476Y-18225952D01*
X2976428Y-18235476D01*
X2957381Y-18235476D01*
X2938333Y-18225952D01*
X2928809Y-18216429D01*
X2919286Y-18197381D01*
X2909762Y-18159286D01*
X2909762Y-18111667D01*
X2919286Y-18073571D01*
X2928809Y-18054524D01*
X2938333Y-18045000D01*
X2957381Y-18035476D01*
X3109762Y-18235476D02*
X3109762Y-18102143D01*
X3109762Y-18121190D02*
X3119286Y-18111667D01*
X3138333Y-18102143D01*
X3166905Y-18102143D01*
X3185952Y-18111667D01*
X3195476Y-18130714D01*
X3195476Y-18235476D01*
X3195476Y-18130714D02*
X3205000Y-18111667D01*
X3224048Y-18102143D01*
X3252619Y-18102143D01*
X3271667Y-18111667D01*
X3281190Y-18130714D01*
X3281190Y-18235476D01*
X3376428Y-18235476D02*
X3376428Y-18102143D01*
X3376428Y-18121190D02*
X3385952Y-18111667D01*
X3405000Y-18102143D01*
X3433571Y-18102143D01*
X3452619Y-18111667D01*
X3462143Y-18130714D01*
X3462143Y-18235476D01*
X3462143Y-18130714D02*
X3471667Y-18111667D01*
X3490714Y-18102143D01*
X3519286Y-18102143D01*
X3538333Y-18111667D01*
X3547857Y-18130714D01*
X3547857Y-18235476D01*
X3938333Y-18025952D02*
X3766905Y-18283095D01*
X4195476Y-18035476D02*
X4214524Y-18035476D01*
X4233571Y-18045000D01*
X4243095Y-18054524D01*
X4252619Y-18073571D01*
X4262143Y-18111667D01*
X4262143Y-18159286D01*
X4252619Y-18197381D01*
X4243095Y-18216429D01*
X4233571Y-18225952D01*
X4214524Y-18235476D01*
X4195476Y-18235476D01*
X4176428Y-18225952D01*
X4166905Y-18216429D01*
X4157381Y-18197381D01*
X4147857Y-18159286D01*
X4147857Y-18111667D01*
X4157381Y-18073571D01*
X4166905Y-18054524D01*
X4176428Y-18045000D01*
X4195476Y-18035476D01*
X4347857Y-18216429D02*
X4357381Y-18225952D01*
X4347857Y-18235476D01*
X4338333Y-18225952D01*
X4347857Y-18216429D01*
X4347857Y-18235476D01*
X4481190Y-18035476D02*
X4500238Y-18035476D01*
X4519286Y-18045000D01*
X4528810Y-18054524D01*
X4538333Y-18073571D01*
X4547857Y-18111667D01*
X4547857Y-18159286D01*
X4538333Y-18197381D01*
X4528810Y-18216429D01*
X4519286Y-18225952D01*
X4500238Y-18235476D01*
X4481190Y-18235476D01*
X4462143Y-18225952D01*
X4452619Y-18216429D01*
X4443095Y-18197381D01*
X4433571Y-18159286D01*
X4433571Y-18111667D01*
X4443095Y-18073571D01*
X4452619Y-18054524D01*
X4462143Y-18045000D01*
X4481190Y-18035476D01*
X4738333Y-18235476D02*
X4624048Y-18235476D01*
X4681190Y-18235476D02*
X4681190Y-18035476D01*
X4662143Y-18064048D01*
X4643095Y-18083095D01*
X4624048Y-18092619D01*
X4919286Y-18035476D02*
X4824048Y-18035476D01*
X4814524Y-18130714D01*
X4824048Y-18121190D01*
X4843095Y-18111667D01*
X4890714Y-18111667D01*
X4909762Y-18121190D01*
X4919286Y-18130714D01*
X4928810Y-18149762D01*
X4928810Y-18197381D01*
X4919286Y-18216429D01*
X4909762Y-18225952D01*
X4890714Y-18235476D01*
X4843095Y-18235476D01*
X4824048Y-18225952D01*
X4814524Y-18216429D01*
X4995476Y-18035476D02*
X5128810Y-18035476D01*
X5043095Y-18235476D01*
X5195476Y-18035476D02*
X5195476Y-18073571D01*
X5271667Y-18035476D02*
X5271667Y-18073571D01*
X5566905Y-18311667D02*
X5557381Y-18302143D01*
X5538333Y-18273571D01*
X5528810Y-18254524D01*
X5519286Y-18225952D01*
X5509762Y-18178333D01*
X5509762Y-18140238D01*
X5519286Y-18092619D01*
X5528810Y-18064048D01*
X5538333Y-18045000D01*
X5557381Y-18016429D01*
X5566905Y-18006905D01*
X5671667Y-18121190D02*
X5652619Y-18111667D01*
X5643095Y-18102143D01*
X5633571Y-18083095D01*
X5633571Y-18073571D01*
X5643095Y-18054524D01*
X5652619Y-18045000D01*
X5671667Y-18035476D01*
X5709762Y-18035476D01*
X5728809Y-18045000D01*
X5738333Y-18054524D01*
X5747857Y-18073571D01*
X5747857Y-18083095D01*
X5738333Y-18102143D01*
X5728809Y-18111667D01*
X5709762Y-18121190D01*
X5671667Y-18121190D01*
X5652619Y-18130714D01*
X5643095Y-18140238D01*
X5633571Y-18159286D01*
X5633571Y-18197381D01*
X5643095Y-18216429D01*
X5652619Y-18225952D01*
X5671667Y-18235476D01*
X5709762Y-18235476D01*
X5728809Y-18225952D01*
X5738333Y-18216429D01*
X5747857Y-18197381D01*
X5747857Y-18159286D01*
X5738333Y-18140238D01*
X5728809Y-18130714D01*
X5709762Y-18121190D01*
X5928809Y-18035476D02*
X5833571Y-18035476D01*
X5824048Y-18130714D01*
X5833571Y-18121190D01*
X5852619Y-18111667D01*
X5900238Y-18111667D01*
X5919286Y-18121190D01*
X5928809Y-18130714D01*
X5938333Y-18149762D01*
X5938333Y-18197381D01*
X5928809Y-18216429D01*
X5919286Y-18225952D01*
X5900238Y-18235476D01*
X5852619Y-18235476D01*
X5833571Y-18225952D01*
X5824048Y-18216429D01*
X6109762Y-18102143D02*
X6109762Y-18235476D01*
X6062143Y-18025952D02*
X6014524Y-18168810D01*
X6138333Y-18168810D01*
X6366905Y-18235476D02*
X6366905Y-18035476D01*
X6452619Y-18235476D02*
X6452619Y-18130714D01*
X6443095Y-18111667D01*
X6424048Y-18102143D01*
X6395476Y-18102143D01*
X6376428Y-18111667D01*
X6366905Y-18121190D01*
X6576428Y-18235476D02*
X6557381Y-18225952D01*
X6547857Y-18216429D01*
X6538333Y-18197381D01*
X6538333Y-18140238D01*
X6547857Y-18121190D01*
X6557381Y-18111667D01*
X6576428Y-18102143D01*
X6605000Y-18102143D01*
X6624048Y-18111667D01*
X6633571Y-18121190D01*
X6643095Y-18140238D01*
X6643095Y-18197381D01*
X6633571Y-18216429D01*
X6624048Y-18225952D01*
X6605000Y-18235476D01*
X6576428Y-18235476D01*
X6757381Y-18235476D02*
X6738333Y-18225952D01*
X6728809Y-18206905D01*
X6728809Y-18035476D01*
X6909762Y-18225952D02*
X6890714Y-18235476D01*
X6852619Y-18235476D01*
X6833571Y-18225952D01*
X6824048Y-18206905D01*
X6824048Y-18130714D01*
X6833571Y-18111667D01*
X6852619Y-18102143D01*
X6890714Y-18102143D01*
X6909762Y-18111667D01*
X6919286Y-18130714D01*
X6919286Y-18149762D01*
X6824048Y-18168810D01*
X6995476Y-18225952D02*
X7014524Y-18235476D01*
X7052619Y-18235476D01*
X7071667Y-18225952D01*
X7081190Y-18206905D01*
X7081190Y-18197381D01*
X7071667Y-18178333D01*
X7052619Y-18168810D01*
X7024048Y-18168810D01*
X7005000Y-18159286D01*
X6995476Y-18140238D01*
X6995476Y-18130714D01*
X7005000Y-18111667D01*
X7024048Y-18102143D01*
X7052619Y-18102143D01*
X7071667Y-18111667D01*
X7147857Y-18311667D02*
X7157381Y-18302143D01*
X7176428Y-18273571D01*
X7185952Y-18254524D01*
X7195476Y-18225952D01*
X7205000Y-18178333D01*
X7205000Y-18140238D01*
X7195476Y-18092619D01*
X7185952Y-18064048D01*
X7176428Y-18045000D01*
X7157381Y-18016429D01*
X7147857Y-18006905D01*
D13*
X1995000Y-18409000D02*
G75*
G03*
X1995000Y-18409000I-50800J0D01*
G01*
D11*
X2357381Y-18499476D02*
X2243095Y-18499476D01*
X2300238Y-18499476D02*
X2300238Y-18299476D01*
X2281190Y-18328048D01*
X2262143Y-18347095D01*
X2243095Y-18356619D01*
X2443095Y-18480429D02*
X2452619Y-18489952D01*
X2443095Y-18499476D01*
X2433571Y-18489952D01*
X2443095Y-18480429D01*
X2443095Y-18499476D01*
X2576429Y-18299476D02*
X2595476Y-18299476D01*
X2614524Y-18309000D01*
X2624048Y-18318524D01*
X2633571Y-18337571D01*
X2643095Y-18375667D01*
X2643095Y-18423286D01*
X2633571Y-18461381D01*
X2624048Y-18480429D01*
X2614524Y-18489952D01*
X2595476Y-18499476D01*
X2576429Y-18499476D01*
X2557381Y-18489952D01*
X2547857Y-18480429D01*
X2538333Y-18461381D01*
X2528810Y-18423286D01*
X2528810Y-18375667D01*
X2538333Y-18337571D01*
X2547857Y-18318524D01*
X2557381Y-18309000D01*
X2576429Y-18299476D01*
X2833571Y-18499476D02*
X2719286Y-18499476D01*
X2776429Y-18499476D02*
X2776429Y-18299476D01*
X2757381Y-18328048D01*
X2738333Y-18347095D01*
X2719286Y-18356619D01*
X3005000Y-18299476D02*
X2966905Y-18299476D01*
X2947857Y-18309000D01*
X2938333Y-18318524D01*
X2919286Y-18347095D01*
X2909762Y-18385190D01*
X2909762Y-18461381D01*
X2919286Y-18480429D01*
X2928809Y-18489952D01*
X2947857Y-18499476D01*
X2985952Y-18499476D01*
X3005000Y-18489952D01*
X3014524Y-18480429D01*
X3024048Y-18461381D01*
X3024048Y-18413762D01*
X3014524Y-18394714D01*
X3005000Y-18385190D01*
X2985952Y-18375667D01*
X2947857Y-18375667D01*
X2928809Y-18385190D01*
X2919286Y-18394714D01*
X2909762Y-18413762D01*
X3109762Y-18499476D02*
X3109762Y-18366143D01*
X3109762Y-18385190D02*
X3119286Y-18375667D01*
X3138333Y-18366143D01*
X3166905Y-18366143D01*
X3185952Y-18375667D01*
X3195476Y-18394714D01*
X3195476Y-18499476D01*
X3195476Y-18394714D02*
X3205000Y-18375667D01*
X3224048Y-18366143D01*
X3252619Y-18366143D01*
X3271667Y-18375667D01*
X3281190Y-18394714D01*
X3281190Y-18499476D01*
X3376428Y-18499476D02*
X3376428Y-18366143D01*
X3376428Y-18385190D02*
X3385952Y-18375667D01*
X3405000Y-18366143D01*
X3433571Y-18366143D01*
X3452619Y-18375667D01*
X3462143Y-18394714D01*
X3462143Y-18499476D01*
X3462143Y-18394714D02*
X3471667Y-18375667D01*
X3490714Y-18366143D01*
X3519286Y-18366143D01*
X3538333Y-18375667D01*
X3547857Y-18394714D01*
X3547857Y-18499476D01*
X3938333Y-18289952D02*
X3766905Y-18547095D01*
X4195476Y-18299476D02*
X4214524Y-18299476D01*
X4233571Y-18309000D01*
X4243095Y-18318524D01*
X4252619Y-18337571D01*
X4262143Y-18375667D01*
X4262143Y-18423286D01*
X4252619Y-18461381D01*
X4243095Y-18480429D01*
X4233571Y-18489952D01*
X4214524Y-18499476D01*
X4195476Y-18499476D01*
X4176428Y-18489952D01*
X4166905Y-18480429D01*
X4157381Y-18461381D01*
X4147857Y-18423286D01*
X4147857Y-18375667D01*
X4157381Y-18337571D01*
X4166905Y-18318524D01*
X4176428Y-18309000D01*
X4195476Y-18299476D01*
X4347857Y-18480429D02*
X4357381Y-18489952D01*
X4347857Y-18499476D01*
X4338333Y-18489952D01*
X4347857Y-18480429D01*
X4347857Y-18499476D01*
X4481190Y-18299476D02*
X4500238Y-18299476D01*
X4519286Y-18309000D01*
X4528810Y-18318524D01*
X4538333Y-18337571D01*
X4547857Y-18375667D01*
X4547857Y-18423286D01*
X4538333Y-18461381D01*
X4528810Y-18480429D01*
X4519286Y-18489952D01*
X4500238Y-18499476D01*
X4481190Y-18499476D01*
X4462143Y-18489952D01*
X4452619Y-18480429D01*
X4443095Y-18461381D01*
X4433571Y-18423286D01*
X4433571Y-18375667D01*
X4443095Y-18337571D01*
X4452619Y-18318524D01*
X4462143Y-18309000D01*
X4481190Y-18299476D01*
X4719286Y-18366143D02*
X4719286Y-18499476D01*
X4671667Y-18289952D02*
X4624048Y-18432810D01*
X4747857Y-18432810D01*
X4862143Y-18299476D02*
X4881190Y-18299476D01*
X4900238Y-18309000D01*
X4909762Y-18318524D01*
X4919286Y-18337571D01*
X4928810Y-18375667D01*
X4928810Y-18423286D01*
X4919286Y-18461381D01*
X4909762Y-18480429D01*
X4900238Y-18489952D01*
X4881190Y-18499476D01*
X4862143Y-18499476D01*
X4843095Y-18489952D01*
X4833571Y-18480429D01*
X4824048Y-18461381D01*
X4814524Y-18423286D01*
X4814524Y-18375667D01*
X4824048Y-18337571D01*
X4833571Y-18318524D01*
X4843095Y-18309000D01*
X4862143Y-18299476D01*
X5052619Y-18299476D02*
X5071667Y-18299476D01*
X5090714Y-18309000D01*
X5100238Y-18318524D01*
X5109762Y-18337571D01*
X5119286Y-18375667D01*
X5119286Y-18423286D01*
X5109762Y-18461381D01*
X5100238Y-18480429D01*
X5090714Y-18489952D01*
X5071667Y-18499476D01*
X5052619Y-18499476D01*
X5033571Y-18489952D01*
X5024048Y-18480429D01*
X5014524Y-18461381D01*
X5005000Y-18423286D01*
X5005000Y-18375667D01*
X5014524Y-18337571D01*
X5024048Y-18318524D01*
X5033571Y-18309000D01*
X5052619Y-18299476D01*
X5195476Y-18299476D02*
X5195476Y-18337571D01*
X5271667Y-18299476D02*
X5271667Y-18337571D01*
X5566905Y-18575667D02*
X5557381Y-18566143D01*
X5538333Y-18537571D01*
X5528810Y-18518524D01*
X5519286Y-18489952D01*
X5509762Y-18442333D01*
X5509762Y-18404238D01*
X5519286Y-18356619D01*
X5528810Y-18328048D01*
X5538333Y-18309000D01*
X5557381Y-18280429D01*
X5566905Y-18270905D01*
X5747857Y-18499476D02*
X5633571Y-18499476D01*
X5690714Y-18499476D02*
X5690714Y-18299476D01*
X5671667Y-18328048D01*
X5652619Y-18347095D01*
X5633571Y-18356619D01*
X5928809Y-18299476D02*
X5833571Y-18299476D01*
X5824048Y-18394714D01*
X5833571Y-18385190D01*
X5852619Y-18375667D01*
X5900238Y-18375667D01*
X5919286Y-18385190D01*
X5928809Y-18394714D01*
X5938333Y-18413762D01*
X5938333Y-18461381D01*
X5928809Y-18480429D01*
X5919286Y-18489952D01*
X5900238Y-18499476D01*
X5852619Y-18499476D01*
X5833571Y-18489952D01*
X5824048Y-18480429D01*
X6119286Y-18299476D02*
X6024048Y-18299476D01*
X6014524Y-18394714D01*
X6024048Y-18385190D01*
X6043095Y-18375667D01*
X6090714Y-18375667D01*
X6109762Y-18385190D01*
X6119286Y-18394714D01*
X6128809Y-18413762D01*
X6128809Y-18461381D01*
X6119286Y-18480429D01*
X6109762Y-18489952D01*
X6090714Y-18499476D01*
X6043095Y-18499476D01*
X6024048Y-18489952D01*
X6014524Y-18480429D01*
X6366905Y-18499476D02*
X6366905Y-18299476D01*
X6452619Y-18499476D02*
X6452619Y-18394714D01*
X6443095Y-18375667D01*
X6424048Y-18366143D01*
X6395476Y-18366143D01*
X6376428Y-18375667D01*
X6366905Y-18385190D01*
X6576428Y-18499476D02*
X6557381Y-18489952D01*
X6547857Y-18480429D01*
X6538333Y-18461381D01*
X6538333Y-18404238D01*
X6547857Y-18385190D01*
X6557381Y-18375667D01*
X6576428Y-18366143D01*
X6605000Y-18366143D01*
X6624048Y-18375667D01*
X6633571Y-18385190D01*
X6643095Y-18404238D01*
X6643095Y-18461381D01*
X6633571Y-18480429D01*
X6624048Y-18489952D01*
X6605000Y-18499476D01*
X6576428Y-18499476D01*
X6757381Y-18499476D02*
X6738333Y-18489952D01*
X6728809Y-18470905D01*
X6728809Y-18299476D01*
X6909762Y-18489952D02*
X6890714Y-18499476D01*
X6852619Y-18499476D01*
X6833571Y-18489952D01*
X6824048Y-18470905D01*
X6824048Y-18394714D01*
X6833571Y-18375667D01*
X6852619Y-18366143D01*
X6890714Y-18366143D01*
X6909762Y-18375667D01*
X6919286Y-18394714D01*
X6919286Y-18413762D01*
X6824048Y-18432810D01*
X6995476Y-18489952D02*
X7014524Y-18499476D01*
X7052619Y-18499476D01*
X7071667Y-18489952D01*
X7081190Y-18470905D01*
X7081190Y-18461381D01*
X7071667Y-18442333D01*
X7052619Y-18432810D01*
X7024048Y-18432810D01*
X7005000Y-18423286D01*
X6995476Y-18404238D01*
X6995476Y-18394714D01*
X7005000Y-18375667D01*
X7024048Y-18366143D01*
X7052619Y-18366143D01*
X7071667Y-18375667D01*
X7147857Y-18575667D02*
X7157381Y-18566143D01*
X7176428Y-18537571D01*
X7185952Y-18518524D01*
X7195476Y-18489952D01*
X7205000Y-18442333D01*
X7205000Y-18404238D01*
X7195476Y-18356619D01*
X7185952Y-18328048D01*
X7176428Y-18309000D01*
X7157381Y-18280429D01*
X7147857Y-18270905D01*
D14*
X1937500Y-18615500D02*
X1937500Y-18730500D01*
X1880000Y-18673000D02*
X1995000Y-18673000D01*
D11*
X2357381Y-18763476D02*
X2243095Y-18763476D01*
X2300238Y-18763476D02*
X2300238Y-18563476D01*
X2281190Y-18592048D01*
X2262143Y-18611095D01*
X2243095Y-18620619D01*
X2443095Y-18744429D02*
X2452619Y-18753952D01*
X2443095Y-18763476D01*
X2433571Y-18753952D01*
X2443095Y-18744429D01*
X2443095Y-18763476D01*
X2643095Y-18763476D02*
X2528810Y-18763476D01*
X2585952Y-18763476D02*
X2585952Y-18563476D01*
X2566905Y-18592048D01*
X2547857Y-18611095D01*
X2528810Y-18620619D01*
X2824048Y-18563476D02*
X2728810Y-18563476D01*
X2719286Y-18658714D01*
X2728810Y-18649190D01*
X2747857Y-18639667D01*
X2795476Y-18639667D01*
X2814524Y-18649190D01*
X2824048Y-18658714D01*
X2833571Y-18677762D01*
X2833571Y-18725381D01*
X2824048Y-18744429D01*
X2814524Y-18753952D01*
X2795476Y-18763476D01*
X2747857Y-18763476D01*
X2728810Y-18753952D01*
X2719286Y-18744429D01*
X2957381Y-18563476D02*
X2976428Y-18563476D01*
X2995476Y-18573000D01*
X3005000Y-18582524D01*
X3014524Y-18601571D01*
X3024048Y-18639667D01*
X3024048Y-18687286D01*
X3014524Y-18725381D01*
X3005000Y-18744429D01*
X2995476Y-18753952D01*
X2976428Y-18763476D01*
X2957381Y-18763476D01*
X2938333Y-18753952D01*
X2928809Y-18744429D01*
X2919286Y-18725381D01*
X2909762Y-18687286D01*
X2909762Y-18639667D01*
X2919286Y-18601571D01*
X2928809Y-18582524D01*
X2938333Y-18573000D01*
X2957381Y-18563476D01*
X3109762Y-18763476D02*
X3109762Y-18630143D01*
X3109762Y-18649190D02*
X3119286Y-18639667D01*
X3138333Y-18630143D01*
X3166905Y-18630143D01*
X3185952Y-18639667D01*
X3195476Y-18658714D01*
X3195476Y-18763476D01*
X3195476Y-18658714D02*
X3205000Y-18639667D01*
X3224048Y-18630143D01*
X3252619Y-18630143D01*
X3271667Y-18639667D01*
X3281190Y-18658714D01*
X3281190Y-18763476D01*
X3376428Y-18763476D02*
X3376428Y-18630143D01*
X3376428Y-18649190D02*
X3385952Y-18639667D01*
X3405000Y-18630143D01*
X3433571Y-18630143D01*
X3452619Y-18639667D01*
X3462143Y-18658714D01*
X3462143Y-18763476D01*
X3462143Y-18658714D02*
X3471667Y-18639667D01*
X3490714Y-18630143D01*
X3519286Y-18630143D01*
X3538333Y-18639667D01*
X3547857Y-18658714D01*
X3547857Y-18763476D01*
X3938333Y-18553952D02*
X3766905Y-18811095D01*
X4195476Y-18563476D02*
X4214524Y-18563476D01*
X4233571Y-18573000D01*
X4243095Y-18582524D01*
X4252619Y-18601571D01*
X4262143Y-18639667D01*
X4262143Y-18687286D01*
X4252619Y-18725381D01*
X4243095Y-18744429D01*
X4233571Y-18753952D01*
X4214524Y-18763476D01*
X4195476Y-18763476D01*
X4176428Y-18753952D01*
X4166905Y-18744429D01*
X4157381Y-18725381D01*
X4147857Y-18687286D01*
X4147857Y-18639667D01*
X4157381Y-18601571D01*
X4166905Y-18582524D01*
X4176428Y-18573000D01*
X4195476Y-18563476D01*
X4347857Y-18744429D02*
X4357381Y-18753952D01*
X4347857Y-18763476D01*
X4338333Y-18753952D01*
X4347857Y-18744429D01*
X4347857Y-18763476D01*
X4481190Y-18563476D02*
X4500238Y-18563476D01*
X4519286Y-18573000D01*
X4528810Y-18582524D01*
X4538333Y-18601571D01*
X4547857Y-18639667D01*
X4547857Y-18687286D01*
X4538333Y-18725381D01*
X4528810Y-18744429D01*
X4519286Y-18753952D01*
X4500238Y-18763476D01*
X4481190Y-18763476D01*
X4462143Y-18753952D01*
X4452619Y-18744429D01*
X4443095Y-18725381D01*
X4433571Y-18687286D01*
X4433571Y-18639667D01*
X4443095Y-18601571D01*
X4452619Y-18582524D01*
X4462143Y-18573000D01*
X4481190Y-18563476D01*
X4719286Y-18630143D02*
X4719286Y-18763476D01*
X4671667Y-18553952D02*
X4624048Y-18696810D01*
X4747857Y-18696810D01*
X4919286Y-18563476D02*
X4824048Y-18563476D01*
X4814524Y-18658714D01*
X4824048Y-18649190D01*
X4843095Y-18639667D01*
X4890714Y-18639667D01*
X4909762Y-18649190D01*
X4919286Y-18658714D01*
X4928810Y-18677762D01*
X4928810Y-18725381D01*
X4919286Y-18744429D01*
X4909762Y-18753952D01*
X4890714Y-18763476D01*
X4843095Y-18763476D01*
X4824048Y-18753952D01*
X4814524Y-18744429D01*
X4995476Y-18563476D02*
X5119286Y-18563476D01*
X5052619Y-18639667D01*
X5081190Y-18639667D01*
X5100238Y-18649190D01*
X5109762Y-18658714D01*
X5119286Y-18677762D01*
X5119286Y-18725381D01*
X5109762Y-18744429D01*
X5100238Y-18753952D01*
X5081190Y-18763476D01*
X5024048Y-18763476D01*
X5005000Y-18753952D01*
X4995476Y-18744429D01*
X5195476Y-18563476D02*
X5195476Y-18601571D01*
X5271667Y-18563476D02*
X5271667Y-18601571D01*
X5566905Y-18839667D02*
X5557381Y-18830143D01*
X5538333Y-18801571D01*
X5528810Y-18782524D01*
X5519286Y-18753952D01*
X5509762Y-18706333D01*
X5509762Y-18668238D01*
X5519286Y-18620619D01*
X5528810Y-18592048D01*
X5538333Y-18573000D01*
X5557381Y-18544429D01*
X5566905Y-18534905D01*
X5652619Y-18763476D02*
X5690714Y-18763476D01*
X5709762Y-18753952D01*
X5719286Y-18744429D01*
X5738333Y-18715857D01*
X5747857Y-18677762D01*
X5747857Y-18601571D01*
X5738333Y-18582524D01*
X5728809Y-18573000D01*
X5709762Y-18563476D01*
X5671667Y-18563476D01*
X5652619Y-18573000D01*
X5643095Y-18582524D01*
X5633571Y-18601571D01*
X5633571Y-18649190D01*
X5643095Y-18668238D01*
X5652619Y-18677762D01*
X5671667Y-18687286D01*
X5709762Y-18687286D01*
X5728809Y-18677762D01*
X5738333Y-18668238D01*
X5747857Y-18649190D01*
X5985952Y-18763476D02*
X5985952Y-18563476D01*
X6071667Y-18763476D02*
X6071667Y-18658714D01*
X6062143Y-18639667D01*
X6043095Y-18630143D01*
X6014524Y-18630143D01*
X5995476Y-18639667D01*
X5985952Y-18649190D01*
X6195476Y-18763476D02*
X6176428Y-18753952D01*
X6166905Y-18744429D01*
X6157381Y-18725381D01*
X6157381Y-18668238D01*
X6166905Y-18649190D01*
X6176428Y-18639667D01*
X6195476Y-18630143D01*
X6224048Y-18630143D01*
X6243095Y-18639667D01*
X6252619Y-18649190D01*
X6262143Y-18668238D01*
X6262143Y-18725381D01*
X6252619Y-18744429D01*
X6243095Y-18753952D01*
X6224048Y-18763476D01*
X6195476Y-18763476D01*
X6376428Y-18763476D02*
X6357381Y-18753952D01*
X6347857Y-18734905D01*
X6347857Y-18563476D01*
X6528809Y-18753952D02*
X6509762Y-18763476D01*
X6471667Y-18763476D01*
X6452619Y-18753952D01*
X6443095Y-18734905D01*
X6443095Y-18658714D01*
X6452619Y-18639667D01*
X6471667Y-18630143D01*
X6509762Y-18630143D01*
X6528809Y-18639667D01*
X6538333Y-18658714D01*
X6538333Y-18677762D01*
X6443095Y-18696810D01*
X6614524Y-18753952D02*
X6633571Y-18763476D01*
X6671667Y-18763476D01*
X6690714Y-18753952D01*
X6700238Y-18734905D01*
X6700238Y-18725381D01*
X6690714Y-18706333D01*
X6671667Y-18696810D01*
X6643095Y-18696810D01*
X6624048Y-18687286D01*
X6614524Y-18668238D01*
X6614524Y-18658714D01*
X6624048Y-18639667D01*
X6643095Y-18630143D01*
X6671667Y-18630143D01*
X6690714Y-18639667D01*
X6766905Y-18839667D02*
X6776428Y-18830143D01*
X6795476Y-18801571D01*
X6805000Y-18782524D01*
X6814524Y-18753952D01*
X6824048Y-18706333D01*
X6824048Y-18668238D01*
X6814524Y-18620619D01*
X6805000Y-18592048D01*
X6795476Y-18573000D01*
X6776428Y-18544429D01*
X6766905Y-18534905D01*
D15*
X1973033Y-18990034D02*
X1973033Y-18883967D01*
X1866966Y-18883967D01*
X1866966Y-18990034D01*
X1973033Y-18990034D01*
D11*
X2357381Y-19027476D02*
X2243095Y-19027476D01*
X2300238Y-19027476D02*
X2300238Y-18827476D01*
X2281190Y-18856048D01*
X2262143Y-18875095D01*
X2243095Y-18884619D01*
X2443095Y-19008429D02*
X2452619Y-19017952D01*
X2443095Y-19027476D01*
X2433571Y-19017952D01*
X2443095Y-19008429D01*
X2443095Y-19027476D01*
X2633571Y-18827476D02*
X2538333Y-18827476D01*
X2528810Y-18922714D01*
X2538333Y-18913190D01*
X2557381Y-18903667D01*
X2605000Y-18903667D01*
X2624048Y-18913190D01*
X2633571Y-18922714D01*
X2643095Y-18941762D01*
X2643095Y-18989381D01*
X2633571Y-19008429D01*
X2624048Y-19017952D01*
X2605000Y-19027476D01*
X2557381Y-19027476D01*
X2538333Y-19017952D01*
X2528810Y-19008429D01*
X2766905Y-18827476D02*
X2785952Y-18827476D01*
X2805000Y-18837000D01*
X2814524Y-18846524D01*
X2824048Y-18865571D01*
X2833571Y-18903667D01*
X2833571Y-18951286D01*
X2824048Y-18989381D01*
X2814524Y-19008429D01*
X2805000Y-19017952D01*
X2785952Y-19027476D01*
X2766905Y-19027476D01*
X2747857Y-19017952D01*
X2738333Y-19008429D01*
X2728810Y-18989381D01*
X2719286Y-18951286D01*
X2719286Y-18903667D01*
X2728810Y-18865571D01*
X2738333Y-18846524D01*
X2747857Y-18837000D01*
X2766905Y-18827476D01*
X2957381Y-18827476D02*
X2976428Y-18827476D01*
X2995476Y-18837000D01*
X3005000Y-18846524D01*
X3014524Y-18865571D01*
X3024048Y-18903667D01*
X3024048Y-18951286D01*
X3014524Y-18989381D01*
X3005000Y-19008429D01*
X2995476Y-19017952D01*
X2976428Y-19027476D01*
X2957381Y-19027476D01*
X2938333Y-19017952D01*
X2928809Y-19008429D01*
X2919286Y-18989381D01*
X2909762Y-18951286D01*
X2909762Y-18903667D01*
X2919286Y-18865571D01*
X2928809Y-18846524D01*
X2938333Y-18837000D01*
X2957381Y-18827476D01*
X3109762Y-19027476D02*
X3109762Y-18894143D01*
X3109762Y-18913190D02*
X3119286Y-18903667D01*
X3138333Y-18894143D01*
X3166905Y-18894143D01*
X3185952Y-18903667D01*
X3195476Y-18922714D01*
X3195476Y-19027476D01*
X3195476Y-18922714D02*
X3205000Y-18903667D01*
X3224048Y-18894143D01*
X3252619Y-18894143D01*
X3271667Y-18903667D01*
X3281190Y-18922714D01*
X3281190Y-19027476D01*
X3376428Y-19027476D02*
X3376428Y-18894143D01*
X3376428Y-18913190D02*
X3385952Y-18903667D01*
X3405000Y-18894143D01*
X3433571Y-18894143D01*
X3452619Y-18903667D01*
X3462143Y-18922714D01*
X3462143Y-19027476D01*
X3462143Y-18922714D02*
X3471667Y-18903667D01*
X3490714Y-18894143D01*
X3519286Y-18894143D01*
X3538333Y-18903667D01*
X3547857Y-18922714D01*
X3547857Y-19027476D01*
X3938333Y-18817952D02*
X3766905Y-19075095D01*
X4195476Y-18827476D02*
X4214524Y-18827476D01*
X4233571Y-18837000D01*
X4243095Y-18846524D01*
X4252619Y-18865571D01*
X4262143Y-18903667D01*
X4262143Y-18951286D01*
X4252619Y-18989381D01*
X4243095Y-19008429D01*
X4233571Y-19017952D01*
X4214524Y-19027476D01*
X4195476Y-19027476D01*
X4176428Y-19017952D01*
X4166905Y-19008429D01*
X4157381Y-18989381D01*
X4147857Y-18951286D01*
X4147857Y-18903667D01*
X4157381Y-18865571D01*
X4166905Y-18846524D01*
X4176428Y-18837000D01*
X4195476Y-18827476D01*
X4347857Y-19008429D02*
X4357381Y-19017952D01*
X4347857Y-19027476D01*
X4338333Y-19017952D01*
X4347857Y-19008429D01*
X4347857Y-19027476D01*
X4481190Y-18827476D02*
X4500238Y-18827476D01*
X4519286Y-18837000D01*
X4528810Y-18846524D01*
X4538333Y-18865571D01*
X4547857Y-18903667D01*
X4547857Y-18951286D01*
X4538333Y-18989381D01*
X4528810Y-19008429D01*
X4519286Y-19017952D01*
X4500238Y-19027476D01*
X4481190Y-19027476D01*
X4462143Y-19017952D01*
X4452619Y-19008429D01*
X4443095Y-18989381D01*
X4433571Y-18951286D01*
X4433571Y-18903667D01*
X4443095Y-18865571D01*
X4452619Y-18846524D01*
X4462143Y-18837000D01*
X4481190Y-18827476D01*
X4728810Y-18827476D02*
X4633571Y-18827476D01*
X4624048Y-18922714D01*
X4633571Y-18913190D01*
X4652619Y-18903667D01*
X4700238Y-18903667D01*
X4719286Y-18913190D01*
X4728810Y-18922714D01*
X4738333Y-18941762D01*
X4738333Y-18989381D01*
X4728810Y-19008429D01*
X4719286Y-19017952D01*
X4700238Y-19027476D01*
X4652619Y-19027476D01*
X4633571Y-19017952D01*
X4624048Y-19008429D01*
X4833571Y-19027476D02*
X4871667Y-19027476D01*
X4890714Y-19017952D01*
X4900238Y-19008429D01*
X4919286Y-18979857D01*
X4928810Y-18941762D01*
X4928810Y-18865571D01*
X4919286Y-18846524D01*
X4909762Y-18837000D01*
X4890714Y-18827476D01*
X4852619Y-18827476D01*
X4833571Y-18837000D01*
X4824048Y-18846524D01*
X4814524Y-18865571D01*
X4814524Y-18913190D01*
X4824048Y-18932238D01*
X4833571Y-18941762D01*
X4852619Y-18951286D01*
X4890714Y-18951286D01*
X4909762Y-18941762D01*
X4919286Y-18932238D01*
X4928810Y-18913190D01*
X5119286Y-19027476D02*
X5005000Y-19027476D01*
X5062143Y-19027476D02*
X5062143Y-18827476D01*
X5043095Y-18856048D01*
X5024048Y-18875095D01*
X5005000Y-18884619D01*
X5195476Y-18827476D02*
X5195476Y-18865571D01*
X5271667Y-18827476D02*
X5271667Y-18865571D01*
X5566905Y-19103667D02*
X5557381Y-19094143D01*
X5538333Y-19065571D01*
X5528810Y-19046524D01*
X5519286Y-19017952D01*
X5509762Y-18970333D01*
X5509762Y-18932238D01*
X5519286Y-18884619D01*
X5528810Y-18856048D01*
X5538333Y-18837000D01*
X5557381Y-18808429D01*
X5566905Y-18798905D01*
X5624048Y-18827476D02*
X5747857Y-18827476D01*
X5681190Y-18903667D01*
X5709762Y-18903667D01*
X5728809Y-18913190D01*
X5738333Y-18922714D01*
X5747857Y-18941762D01*
X5747857Y-18989381D01*
X5738333Y-19008429D01*
X5728809Y-19017952D01*
X5709762Y-19027476D01*
X5652619Y-19027476D01*
X5633571Y-19017952D01*
X5624048Y-19008429D01*
X5919286Y-18894143D02*
X5919286Y-19027476D01*
X5871667Y-18817952D02*
X5824048Y-18960810D01*
X5947857Y-18960810D01*
X6176428Y-19027476D02*
X6176428Y-18827476D01*
X6262143Y-19027476D02*
X6262143Y-18922714D01*
X6252619Y-18903667D01*
X6233571Y-18894143D01*
X6205000Y-18894143D01*
X6185952Y-18903667D01*
X6176428Y-18913190D01*
X6385952Y-19027476D02*
X6366905Y-19017952D01*
X6357381Y-19008429D01*
X6347857Y-18989381D01*
X6347857Y-18932238D01*
X6357381Y-18913190D01*
X6366905Y-18903667D01*
X6385952Y-18894143D01*
X6414524Y-18894143D01*
X6433571Y-18903667D01*
X6443095Y-18913190D01*
X6452619Y-18932238D01*
X6452619Y-18989381D01*
X6443095Y-19008429D01*
X6433571Y-19017952D01*
X6414524Y-19027476D01*
X6385952Y-19027476D01*
X6566905Y-19027476D02*
X6547857Y-19017952D01*
X6538333Y-18998905D01*
X6538333Y-18827476D01*
X6719286Y-19017952D02*
X6700238Y-19027476D01*
X6662143Y-19027476D01*
X6643095Y-19017952D01*
X6633571Y-18998905D01*
X6633571Y-18922714D01*
X6643095Y-18903667D01*
X6662143Y-18894143D01*
X6700238Y-18894143D01*
X6719286Y-18903667D01*
X6728809Y-18922714D01*
X6728809Y-18941762D01*
X6633571Y-18960810D01*
X6805000Y-19017952D02*
X6824048Y-19027476D01*
X6862143Y-19027476D01*
X6881190Y-19017952D01*
X6890714Y-18998905D01*
X6890714Y-18989381D01*
X6881190Y-18970333D01*
X6862143Y-18960810D01*
X6833571Y-18960810D01*
X6814524Y-18951286D01*
X6805000Y-18932238D01*
X6805000Y-18922714D01*
X6814524Y-18903667D01*
X6833571Y-18894143D01*
X6862143Y-18894143D01*
X6881190Y-18903667D01*
X6957381Y-19103667D02*
X6966905Y-19094143D01*
X6985952Y-19065571D01*
X6995476Y-19046524D01*
X7005000Y-19017952D01*
X7014524Y-18970333D01*
X7014524Y-18932238D01*
X7005000Y-18884619D01*
X6995476Y-18856048D01*
X6985952Y-18837000D01*
X6966905Y-18808429D01*
X6957381Y-18798905D01*
M02*
